<svg width="322" height="132" viewBox="0 0 322 132" fill="none" xmlns="http://www.w3.org/2000/svg">
<path d="M0.311113 131.693V46.2934H32.6411C41.5064 46.2934 48.2571 48.286 52.8931 52.2714C57.6105 56.1754 59.9691 61.34 59.9691 67.7654C59.9691 72.4827 58.8305 76.346 56.5531 79.3554C54.2758 82.2834 51.4291 84.4794 48.0131 85.9434C50.8598 87.0007 53.4624 88.5867 55.8211 90.7014C58.2611 92.816 60.2131 95.3374 61.6771 98.2654C63.1411 101.112 63.8731 104.243 63.8731 107.659C63.8731 112.133 62.7751 116.199 60.5791 119.859C58.3831 123.519 55.2111 126.407 51.0631 128.521C46.9151 130.636 41.8318 131.693 35.8131 131.693H0.311113ZM15.9271 118.395H34.3491C38.9851 118.395 42.4011 117.338 44.5971 115.223C46.8744 113.109 48.0131 110.059 48.0131 106.073C48.0131 102.088 46.8338 99.038 44.4751 96.9234C42.1164 94.8087 38.6598 93.7514 34.1051 93.7514H15.9271V118.395ZM15.9271 80.4534H31.2991C35.6911 80.4534 38.9038 79.5994 40.9371 77.8914C42.9704 76.102 43.9871 73.4587 43.9871 69.9614C43.9871 66.6267 42.9704 64.0647 40.9371 62.2754C38.9851 60.486 35.6911 59.5914 31.0551 59.5914H15.9271V80.4534ZM82.5115 131.693V97.4114L53.8415 46.2934H71.5315L90.4415 81.7954L109.229 46.2934H126.675L98.1275 97.4114V131.693H82.5115ZM123.526 131.693V46.2934H153.172C159.11 46.2934 164.234 47.2694 168.544 49.2214C172.936 51.092 176.352 53.8574 178.792 57.5174C181.232 61.1774 182.452 65.6507 182.452 70.9374C182.452 77.0374 180.826 81.9174 177.572 85.5774C174.319 89.2374 169.886 91.7587 164.274 93.1414L188.064 131.693H169.642L148.658 95.7034H139.142V131.693H123.526ZM139.142 82.4054H152.806C156.466 82.4054 159.272 81.9174 161.224 80.9414C163.258 79.884 164.64 78.5014 165.372 76.7934C166.186 75.0854 166.592 73.1334 166.592 70.9374C166.592 68.7414 166.186 66.7894 165.372 65.0814C164.64 63.3734 163.258 62.0314 161.224 61.0554C159.272 60.0794 156.466 59.5914 152.806 59.5914H139.142V82.4054ZM186.385 131.693V46.2934H215.543C225.71 46.2934 234.006 48.0827 240.431 51.6614C246.938 55.24 251.696 60.242 254.705 66.6674C257.796 73.0927 259.341 80.5347 259.341 88.9934C259.341 98.1027 257.633 105.87 254.217 112.295C250.882 118.639 245.962 123.479 239.455 126.813C232.948 130.067 224.978 131.693 215.543 131.693H186.385ZM202.001 118.273H214.811C222.05 118.273 227.743 117.094 231.891 114.735C236.039 112.377 238.967 109.001 240.675 104.609C242.464 100.217 243.359 95.012 243.359 88.9934C243.359 78.8267 241 71.3847 236.283 66.6674C231.647 61.95 224.49 59.5914 214.811 59.5914H202.001V118.273ZM289.124 133.157C283.187 133.157 277.778 132.141 272.898 130.107C268.1 128.074 264.277 125.065 261.43 121.079C258.584 117.013 257.079 111.97 256.916 105.951H273.386C273.549 109.937 274.972 113.271 277.656 115.955C280.422 118.639 284.204 119.981 289.002 119.981C293.15 119.981 296.444 119.005 298.884 117.053C301.324 115.101 302.544 112.458 302.544 109.123C302.544 107.415 302.26 105.911 301.69 104.609C301.202 103.308 300.226 102.088 298.762 100.949C297.298 99.8107 295.224 98.7127 292.54 97.6554C289.938 96.5167 286.481 95.256 282.17 93.8734C276.558 92.0027 272.044 89.8474 268.628 87.4074C265.212 84.9674 262.732 82.2427 261.186 79.2334C259.722 76.1427 258.99 72.808 258.99 69.2294C258.99 63.8614 260.251 59.388 262.772 55.8094C265.375 52.1494 268.832 49.4247 273.142 47.6354C277.534 45.7647 282.374 44.8294 287.66 44.8294C293.028 44.8294 297.868 45.7647 302.178 47.6354C306.57 49.506 310.108 52.2714 312.792 55.9314C315.476 59.5914 316.859 64.1054 316.94 69.4734H300.226C300.145 66.3827 298.925 63.6987 296.566 61.4214C294.289 59.144 291.117 58.0054 287.05 58.0054C283.797 58.0054 281.032 58.8594 278.754 60.5674C276.477 62.2754 275.338 64.7967 275.338 68.1314C275.338 70.5714 276.233 72.6454 278.022 74.3534C279.893 76.0614 282.374 77.566 285.464 78.8674C288.636 80.0874 292.134 81.3887 295.956 82.7714C298.071 83.5034 300.43 84.4387 303.032 85.5774C305.716 86.716 308.278 88.2614 310.718 90.2134C313.158 92.084 315.151 94.4834 316.696 97.4114C318.323 100.258 319.136 103.796 319.136 108.025C319.136 113.231 317.794 117.704 315.11 121.445C312.508 125.187 308.929 128.074 304.374 130.107C299.901 132.141 294.818 133.157 289.124 133.157Z" fill="#EEF6F0"/>
<path d="M184.965 43.4255C180.845 43.4255 177.225 42.5255 174.105 40.7255C171.025 38.8855 168.605 36.3655 166.845 33.1655C165.085 29.9655 164.205 26.3055 164.205 22.1855C164.205 18.0255 165.065 14.3455 166.785 11.1455C168.545 7.94555 170.985 5.44555 174.105 3.64554C177.225 1.84554 180.845 0.945544 184.965 0.945544C189.085 0.945544 192.705 1.84554 195.825 3.64554C198.985 5.44555 201.425 7.94555 203.145 11.1455C204.865 14.3055 205.725 17.9855 205.725 22.1855C205.725 26.3055 204.845 29.9655 203.085 33.1655C201.365 36.3655 198.945 38.8655 195.825 40.6655C192.745 42.5055 189.125 43.4255 184.965 43.4255ZM184.965 36.0455C182.565 36.0455 180.385 35.5055 178.425 34.4255C176.465 33.3055 174.905 31.7055 173.745 29.6255C172.545 27.5055 171.945 25.0055 171.945 22.1255C171.945 19.2055 172.525 16.7055 173.685 14.6255C174.885 12.5455 176.465 10.9455 178.425 9.82554C179.425 9.26554 180.465 8.86554 181.545 8.62554C182.625 8.34555 183.765 8.20555 184.965 8.20555C187.925 8.20555 190.525 9.00555 192.765 10.6055C195.005 12.1655 196.505 14.4255 197.265 17.3855H192.645C192.085 15.5855 191.105 14.2255 189.705 13.3055C188.305 12.3455 186.705 11.8655 184.905 11.8655C182.585 11.8655 180.585 12.7255 178.905 14.4455C177.225 16.1655 176.385 18.7455 176.385 22.1855C176.385 25.5855 177.225 28.1455 178.905 29.8655C180.585 31.5855 182.585 32.4455 184.905 32.4455C186.865 32.4455 188.485 32.0055 189.765 31.1255C191.045 30.2055 192.005 28.8255 192.645 26.9855H197.265C196.505 29.7855 195.005 32.0055 192.765 33.6455C190.525 35.2455 187.925 36.0455 184.965 36.0455ZM184.965 41.2055C188.725 41.2055 191.985 40.4055 194.745 38.8055C197.545 37.2055 199.685 34.9655 201.165 32.0855C202.645 29.2455 203.385 25.9455 203.385 22.1855C203.385 18.3855 202.625 15.0655 201.105 12.2255C199.625 9.34555 197.505 7.10555 194.745 5.50555C193.385 4.70555 191.885 4.10555 190.245 3.70554C188.605 3.30554 186.845 3.10554 184.965 3.10554C181.205 3.10554 177.945 3.90554 175.185 5.50555C172.465 7.10555 170.345 9.32555 168.825 12.1655C167.305 15.0855 166.545 18.4255 166.545 22.1855C166.545 25.9055 167.285 29.2055 168.765 32.0855C170.285 34.9655 172.425 37.2055 175.185 38.8055C177.905 40.4055 181.165 41.2055 184.965 41.2055ZM205.961 43.1855V37.6655C205.961 37.6655 206.161 37.4655 206.561 37.0655C206.961 36.6255 207.501 36.0455 208.181 35.3255C208.861 34.6055 209.641 33.7855 210.521 32.8655C211.441 31.9055 212.401 30.9055 213.401 29.8655C214.441 28.7855 215.481 27.7055 216.521 26.6255C218.281 24.7855 219.901 23.1055 221.381 21.5855C222.901 20.0255 224.101 18.5655 224.981 17.2055C225.901 15.8055 226.361 14.4655 226.361 13.1855C226.361 11.3055 225.781 9.80554 224.621 8.68554C223.501 7.52554 222.001 6.94554 220.121 6.94554C218.641 6.94554 217.401 7.28555 216.401 7.96555C215.401 8.64554 214.661 9.54554 214.181 10.6655C213.701 11.7855 213.461 13.0055 213.461 14.3255H206.021C206.101 11.3255 206.741 8.80554 207.941 6.76554C209.141 4.68554 210.801 3.12554 212.921 2.08554C215.041 1.00555 217.501 0.465546 220.301 0.465546C223.421 0.465546 225.981 1.04555 227.981 2.20555C229.981 3.32555 231.461 4.84554 232.421 6.76554C233.381 8.64555 233.861 10.7455 233.861 13.0655C233.861 15.0255 233.421 16.8455 232.541 18.5255C231.701 20.1655 230.541 21.7855 229.061 23.3855C227.621 24.9855 226.001 26.6855 224.201 28.4855C223.121 29.5655 222.141 30.5455 221.261 31.4255C220.421 32.2655 219.681 33.0255 219.041 33.7055C218.401 34.3455 217.861 34.8855 217.421 35.3255C217.021 35.7655 216.701 36.1055 216.461 36.3455C216.261 36.5455 216.161 36.6455 216.161 36.6455H234.881V43.1855H205.961ZM249.046 43.9055C245.206 43.9055 242.126 42.9455 239.806 41.0255C237.486 39.1055 235.806 36.5055 234.766 33.2255C233.726 29.9455 233.206 26.2655 233.206 22.1855C233.206 18.1055 233.726 14.4255 234.766 11.1455C235.806 7.86554 237.486 5.26554 239.806 3.34554C242.126 1.42555 245.206 0.465546 249.046 0.465546C252.886 0.465546 255.946 1.40555 258.226 3.28555C260.546 5.16555 262.226 7.74555 263.266 11.0255C264.306 14.3055 264.826 18.0255 264.826 22.1855C264.826 26.3455 264.306 30.0655 263.266 33.3455C262.226 36.6255 260.546 39.2055 258.226 41.0855C255.946 42.9655 252.886 43.9055 249.046 43.9055ZM249.046 37.0655C251.806 37.0655 253.826 35.7455 255.106 33.1055C256.386 30.4255 257.026 26.7855 257.026 22.1855C257.026 17.5855 256.386 13.9655 255.106 11.3255C253.826 8.64554 251.806 7.30554 249.046 7.30554C246.286 7.30554 244.246 8.64554 242.926 11.3255C241.646 13.9655 241.006 17.5855 241.006 22.1855C241.006 26.7855 241.646 30.4255 242.926 33.1055C244.246 35.7455 246.286 37.0655 249.046 37.0655ZM263.571 43.1855V37.6655C263.571 37.6655 263.771 37.4655 264.171 37.0655C264.571 36.6255 265.111 36.0455 265.791 35.3255C266.471 34.6055 267.251 33.7855 268.131 32.8655C269.051 31.9055 270.011 30.9055 271.011 29.8655C272.051 28.7855 273.091 27.7055 274.131 26.6255C275.891 24.7855 277.511 23.1055 278.991 21.5855C280.511 20.0255 281.711 18.5655 282.591 17.2055C283.511 15.8055 283.971 14.4655 283.971 13.1855C283.971 11.3055 283.391 9.80554 282.231 8.68554C281.111 7.52554 279.611 6.94554 277.731 6.94554C276.251 6.94554 275.011 7.28555 274.011 7.96555C273.011 8.64554 272.271 9.54554 271.791 10.6655C271.311 11.7855 271.071 13.0055 271.071 14.3255H263.631C263.711 11.3255 264.351 8.80554 265.551 6.76554C266.751 4.68554 268.411 3.12554 270.531 2.08554C272.651 1.00555 275.111 0.465546 277.911 0.465546C281.031 0.465546 283.591 1.04555 285.591 2.20555C287.591 3.32555 289.071 4.84554 290.031 6.76554C290.991 8.64555 291.471 10.7455 291.471 13.0655C291.471 15.0255 291.031 16.8455 290.151 18.5255C289.311 20.1655 288.151 21.7855 286.671 23.3855C285.231 24.9855 283.611 26.6855 281.811 28.4855C280.731 29.5655 279.751 30.5455 278.871 31.4255C278.031 32.2655 277.291 33.0255 276.651 33.7055C276.011 34.3455 275.471 34.8855 275.031 35.3255C274.631 35.7655 274.311 36.1055 274.071 36.3455C273.871 36.5455 273.771 36.6455 273.771 36.6455H292.491V43.1855H263.571ZM306.955 43.9055C304.075 43.9055 301.515 43.4055 299.275 42.4055C297.035 41.3655 295.235 39.9055 293.875 38.0255C292.555 36.1455 291.795 33.9255 291.595 31.3655H299.095C299.455 33.0855 300.335 34.5255 301.735 35.6855C303.135 36.8055 304.875 37.3655 306.955 37.3655C308.475 37.3655 309.795 36.9855 310.915 36.2255C312.075 35.4655 312.975 34.4455 313.615 33.1655C314.255 31.8455 314.575 30.3855 314.575 28.7855C314.575 26.2655 313.855 24.2655 312.415 22.7855C311.015 21.3055 309.235 20.5655 307.075 20.5655C305.275 20.5655 303.715 21.0055 302.395 21.8855C301.075 22.7655 300.135 23.8655 299.575 25.1855H292.195L295.795 1.18554H319.075V7.90555H301.555L299.635 17.6255C300.515 16.6655 301.715 15.8855 303.235 15.2855C304.755 14.6455 306.455 14.3255 308.335 14.3255C311.335 14.3255 313.835 15.0055 315.835 16.3655C317.835 17.6855 319.355 19.4255 320.395 21.5855C320.915 22.7055 321.295 23.8655 321.535 25.0655C321.815 26.2255 321.955 27.4455 321.955 28.7255C321.955 31.6055 321.335 34.1855 320.095 36.4655C318.855 38.7455 317.115 40.5655 314.875 41.9255C312.635 43.2455 309.995 43.9055 306.955 43.9055Z" fill="#EEF6F0"/>
</svg>
