<svg width="34" height="37" viewBox="0 0 34 37" fill="none" xmlns="http://www.w3.org/2000/svg">
<path d="M27.4391 35.9971L12.5891 16.8471C11.3557 15.2804 10.4724 13.8637 9.93906 12.5971C9.40573 11.2971 9.2224 9.91374 9.38906 8.44707C9.55573 6.84707 10.0724 5.44707 10.9391 4.24707C11.8391 3.01373 12.9891 2.06373 14.3891 1.39707C15.8224 0.730403 17.4557 0.39707 19.2891 0.39707C20.9557 0.39707 22.3557 0.713736 23.4891 1.34707C24.6557 1.9804 25.4724 2.84707 25.9391 3.94707C26.4391 5.04707 26.5557 6.29707 26.2891 7.69707H23.9891C24.2557 6.0304 23.9557 4.7304 23.0891 3.79707C22.2224 2.8304 20.8391 2.34707 18.9391 2.34707C16.9057 2.34707 15.2391 2.91373 13.9391 4.04707C12.6724 5.14707 11.9391 6.5304 11.7391 8.19707C11.5724 9.39707 11.7224 10.5804 12.1891 11.7471C12.6557 12.9137 13.4224 14.1971 14.4891 15.5971L30.3391 35.9971H27.4391ZM10.8391 36.5971C8.6724 36.5971 6.83906 36.1971 5.33906 35.3971C3.83906 34.5971 2.7224 33.4637 1.98906 31.9971C1.28906 30.5304 1.05573 28.8137 1.28906 26.8471C1.48906 24.9804 2.03906 23.3304 2.93906 21.8971C3.83906 20.4304 5.0724 19.1471 6.63906 18.0471C8.20573 16.9471 10.0557 16.0137 12.1891 15.2471L13.1891 14.8971L14.3391 16.4471L12.7891 16.9971C10.0891 17.9971 7.95573 19.2971 6.38906 20.8971C4.8224 22.4637 3.90573 24.3804 3.63906 26.6471C3.4724 28.2804 3.63906 29.6971 4.13906 30.8971C4.63906 32.0637 5.4724 32.9637 6.63906 33.5971C7.83906 34.2304 9.35573 34.5471 11.1891 34.5471C13.2224 34.5471 15.0724 34.1137 16.7391 33.2471C18.4391 32.3804 20.1891 31.0637 21.9891 29.2971C22.9557 28.3637 23.9557 27.2971 24.9891 26.0971C26.0224 24.8637 27.1224 23.5137 28.2891 22.0471L31.4391 17.9471H33.9391L29.8891 23.2971C28.6891 24.8304 27.5391 26.2304 26.4391 27.4971C25.3724 28.7637 24.3057 29.8971 23.2391 30.8971C21.2391 32.7971 19.2391 34.2304 17.2391 35.1971C15.2724 36.1304 13.1391 36.5971 10.8391 36.5971Z" fill="#172726"/>
</svg>
