<svg preserveAspectRatio="none" width="100%" height="100%" overflow="visible" style="display: block;" viewBox="0 0 14 16" fill="none" xmlns="http://www.w3.org/2000/svg">
<g id="Frame">
<path id="Shape" d="M9.89939 3.74512C10.9595 3.74516 12.0826 4.34087 12.8818 5.36816C10.2616 6.84891 10.6856 10.7071 13.333 11.7393C12.9691 12.5706 12.794 12.9423 12.3252 13.6787C11.671 14.707 10.7485 15.9877 9.60447 15.9971C8.58924 16.0083 8.32731 15.3149 6.9492 15.3232C5.57067 15.3308 5.28283 16.0103 4.2656 16C3.12244 15.9897 2.24886 14.8339 1.59471 13.8057C-0.235447 10.9325 -0.428391 7.5597 0.700175 5.76562C1.50303 4.49202 2.76939 3.74709 3.95896 3.74707C5.16964 3.74707 5.93189 4.43164 6.93455 4.43164C7.90688 4.43146 8.49913 3.74512 9.89939 3.74512ZM9.59275 0C9.73234 0.971827 9.34598 1.92406 8.83689 2.59766C8.29221 3.32001 7.35377 3.87874 6.44432 3.84961C6.27831 2.91926 6.70344 1.96083 7.22068 1.31641C7.78816 0.605175 8.7607 0.0592693 9.59275 0Z" fill="var(--fill-0, #1C1C1C)"/>
</g>
</svg>
