<svg width="188" height="68" viewBox="0 0 188 68" fill="none" xmlns="http://www.w3.org/2000/svg">
<path d="M3.38945 40.625V5.625H17.7395C20.1728 5.625 22.2228 6.00833 23.8895 6.775C25.5561 7.54166 26.8061 8.60833 27.6395 9.975C28.5061 11.3083 28.9395 12.8583 28.9395 14.625C28.9395 16.3917 28.5561 17.875 27.7895 19.075C27.0228 20.275 26.0061 21.2083 24.7395 21.875C23.5061 22.5083 22.1395 22.875 20.6395 22.975L21.4395 22.425C23.0395 22.4917 24.4561 22.925 25.6895 23.725C26.9561 24.4917 27.9395 25.525 28.6395 26.825C29.3728 28.125 29.7395 29.5417 29.7395 31.075C29.7395 32.9417 29.2895 34.5917 28.3895 36.025C27.4895 37.4583 26.1895 38.5917 24.4895 39.425C22.7895 40.225 20.7061 40.625 18.2395 40.625H3.38945ZM10.1395 35.125H17.1395C18.9728 35.125 20.3895 34.7083 21.3895 33.875C22.3895 33.0417 22.8895 31.8417 22.8895 30.275C22.8895 28.7083 22.3728 27.4917 21.3395 26.625C20.3061 25.725 18.8728 25.275 17.0395 25.275H10.1395V35.125ZM10.1395 20.225H16.6395C18.4061 20.225 19.7395 19.825 20.6395 19.025C21.5728 18.225 22.0395 17.0917 22.0395 15.625C22.0395 14.1917 21.5728 13.075 20.6395 12.275C19.7395 11.4417 18.3895 11.025 16.5895 11.025H10.1395V20.225ZM39.7742 47.875C37.9076 45.975 36.2409 43.7917 34.7742 41.325C33.3076 38.8917 32.1576 36.2083 31.3242 33.275C30.5242 30.3417 30.1242 27.2417 30.1242 23.975C30.1242 20.675 30.5242 17.575 31.3242 14.675C32.1576 11.7417 33.3076 9.04166 34.7742 6.575C36.2409 4.10833 37.9076 1.94166 39.7742 0.0749975H46.4742V0.724998C44.4742 2.825 42.7409 5.125 41.2742 7.625C39.8409 10.125 38.7242 12.7583 37.9242 15.525C37.1242 18.2583 36.7242 21.075 36.7242 23.975C36.7242 26.875 37.1242 29.7083 37.9242 32.475C38.7242 35.2083 39.8576 37.825 41.3242 40.325C42.7909 42.7917 44.5076 45.0917 46.4742 47.225V47.875H39.7742ZM44.4555 40.625L57.2555 5.625H64.9055L77.6555 40.625H70.5055L61.0555 13.325L51.5555 40.625H44.4555ZM50.1055 32.675L51.9055 27.425H69.7055L71.4555 32.675H50.1055ZM78.2547 40.625V5.625H85.0047V40.625H78.2547ZM92.7277 47.875H85.9777V47.225C87.9777 45.0917 89.7111 42.7917 91.1777 40.325C92.6444 37.825 93.7611 35.2083 94.5277 32.475C95.3277 29.7083 95.7277 26.875 95.7277 23.975C95.7277 21.075 95.3277 18.2583 94.5277 15.525C93.7611 12.7583 92.6444 10.125 91.1777 7.625C89.7111 5.125 87.9777 2.825 85.9777 0.724998V0.0749975H92.7277C94.5944 1.94166 96.2444 4.10833 97.6777 6.575C99.1444 9.04166 100.294 11.7417 101.128 14.675C101.961 17.575 102.378 20.675 102.378 23.975C102.378 27.2417 101.961 30.3417 101.128 33.275C100.294 36.2083 99.1444 38.8917 97.6777 41.325C96.2444 43.7917 94.5944 45.975 92.7277 47.875ZM104.141 40.625V5.625H117.191C120.025 5.625 122.358 6.10833 124.191 7.075C126.025 8.04167 127.391 9.34167 128.291 10.975C129.191 12.575 129.641 14.3583 129.641 16.325C129.641 18.1917 129.208 19.9417 128.341 21.575C127.475 23.175 126.108 24.475 124.241 25.475C122.408 26.4417 120.041 26.925 117.141 26.925H110.891V40.625H104.141ZM122.291 40.625L115.091 25.225H122.391L129.991 40.625H122.291ZM110.891 22.025H116.791C118.825 22.025 120.325 21.525 121.291 20.525C122.258 19.525 122.741 18.2083 122.741 16.575C122.741 14.9417 122.258 13.6583 121.291 12.725C120.358 11.7583 118.858 11.275 116.791 11.275H110.891V22.025ZM131.684 40.625V5.625H143.384C147.451 5.625 150.801 6.35833 153.434 7.825C156.101 9.25833 158.068 11.2917 159.334 13.925C160.634 16.525 161.284 19.5917 161.284 23.125C161.284 26.6583 160.634 29.7417 159.334 32.375C158.068 34.975 156.118 37.0083 153.484 38.475C150.851 39.9083 147.484 40.625 143.384 40.625H131.684ZM138.434 34.825H143.034C145.901 34.825 148.151 34.3583 149.784 33.425C151.451 32.4917 152.634 31.1583 153.334 29.425C154.034 27.6583 154.384 25.5583 154.384 23.125C154.384 20.6583 154.034 18.5583 153.334 16.825C152.634 15.0583 151.451 13.7083 149.784 12.775C148.151 11.8417 145.901 11.375 143.034 11.375H138.434V34.825ZM175.086 41.225C172.553 41.225 170.286 40.7917 168.286 39.925C166.319 39.0583 164.753 37.7917 163.586 36.125C162.453 34.4583 161.869 32.4417 161.836 30.075H168.986C169.019 31.1083 169.286 32.0417 169.786 32.875C170.286 33.7083 170.969 34.375 171.836 34.875C172.736 35.3417 173.803 35.575 175.036 35.575C176.103 35.575 177.019 35.4083 177.786 35.075C178.586 34.7083 179.203 34.2083 179.636 33.575C180.069 32.9417 180.286 32.1917 180.286 31.325C180.286 30.325 180.036 29.4917 179.536 28.825C179.069 28.1583 178.403 27.5917 177.536 27.125C176.703 26.6583 175.719 26.2417 174.586 25.875C173.486 25.475 172.319 25.0583 171.086 24.625C168.319 23.725 166.203 22.525 164.736 21.025C163.303 19.525 162.586 17.5417 162.586 15.075C162.586 12.975 163.086 11.175 164.086 9.675C165.119 8.175 166.536 7.025 168.336 6.225C170.136 5.425 172.186 5.025 174.486 5.025C176.853 5.025 178.919 5.44167 180.686 6.275C182.486 7.075 183.903 8.24166 184.936 9.775C186.003 11.3083 186.553 13.1083 186.586 15.175H179.386C179.353 14.4083 179.119 13.6917 178.686 13.025C178.286 12.325 177.719 11.775 176.986 11.375C176.253 10.9417 175.386 10.725 174.386 10.725C173.519 10.6917 172.719 10.825 171.986 11.125C171.286 11.425 170.719 11.875 170.286 12.475C169.886 13.0417 169.686 13.7583 169.686 14.625C169.686 15.4583 169.886 16.1583 170.286 16.725C170.719 17.2917 171.303 17.7917 172.036 18.225C172.769 18.625 173.636 19.0083 174.636 19.375C175.636 19.7083 176.719 20.0583 177.886 20.425C179.619 21.025 181.219 21.7417 182.686 22.575C184.153 23.375 185.319 24.425 186.186 25.725C187.053 27.025 187.486 28.7417 187.486 30.875C187.486 32.7083 187.003 34.4083 186.036 35.975C185.069 37.5417 183.669 38.8083 181.836 39.775C180.036 40.7417 177.786 41.225 175.086 41.225Z" fill="#EEF6F0"/>
<path d="M5.73 68.0066L3.38 64.3266H4.35L6.7 68.0066H5.73ZM3.87 67.1766C3.19667 67.1766 2.60333 67.0266 2.09 66.7266C1.58333 66.42 1.18667 65.9966 0.9 65.4566C0.62 64.91 0.48 64.2766 0.48 63.5566C0.48 62.8433 0.62 62.2166 0.9 61.6766C1.18667 61.13 1.58333 60.7033 2.09 60.3966C2.60333 60.09 3.19667 59.9366 3.87 59.9366C4.55667 59.9366 5.15333 60.09 5.66 60.3966C6.16667 60.7033 6.56 61.13 6.84 61.6766C7.12667 62.2166 7.27 62.8433 7.27 63.5566C7.27 64.2766 7.12667 64.91 6.84 65.4566C6.56 65.9966 6.16667 66.42 5.66 66.7266C5.15333 67.0266 4.55667 67.1766 3.87 67.1766ZM3.87 66.4366C4.37667 66.4366 4.82 66.3233 5.2 66.0966C5.58667 65.8633 5.88333 65.5333 6.09 65.1066C6.30333 64.6733 6.41 64.1566 6.41 63.5566C6.41 62.9566 6.30333 62.4433 6.09 62.0166C5.88333 61.5833 5.58667 61.2533 5.2 61.0266C4.82 60.8 4.37667 60.6866 3.87 60.6866C3.37 60.6866 2.92667 60.8 2.54 61.0266C2.16 61.2533 1.86333 61.5833 1.65 62.0166C1.44333 62.4433 1.34 62.9566 1.34 63.5566C1.34 64.1566 1.44333 64.6733 1.65 65.1066C1.86333 65.5333 2.16 65.8633 2.54 66.0966C2.92667 66.3233 3.37 66.4366 3.87 66.4366ZM11.0141 67.1766C10.5341 67.1766 10.0975 67.08 9.70414 66.8866C9.31747 66.6933 9.00747 66.4 8.77414 66.0066C8.54081 65.6066 8.42414 65.0966 8.42414 64.4766V60.0566H9.26414V64.4866C9.26414 64.94 9.33747 65.31 9.48414 65.5966C9.63747 65.8833 9.84747 66.0933 10.1141 66.2266C10.3808 66.36 10.6875 66.4266 11.0341 66.4266C11.3875 66.4266 11.6941 66.36 11.9541 66.2266C12.2141 66.0933 12.4175 65.8833 12.5641 65.5966C12.7108 65.31 12.7841 64.94 12.7841 64.4866V60.0566H13.6241V64.4766C13.6241 65.0966 13.5075 65.6066 13.2741 66.0066C13.0408 66.4 12.7275 66.6933 12.3341 66.8866C11.9408 67.08 11.5008 67.1766 11.0141 67.1766ZM15.0469 67.0566V60.0566H15.8869V67.0566H15.0469ZM20.4306 67.1766C19.7506 67.1766 19.1606 67.0266 18.6606 66.7266C18.1673 66.42 17.7873 65.9966 17.5206 65.4566C17.254 64.91 17.1206 64.2766 17.1206 63.5566C17.1206 62.8366 17.254 62.2066 17.5206 61.6666C17.7873 61.12 18.1673 60.6966 18.6606 60.3966C19.1606 60.09 19.7506 59.9366 20.4306 59.9366C21.2306 59.9366 21.8806 60.1266 22.3806 60.5066C22.8806 60.8866 23.2006 61.4233 23.3406 62.1166H22.4106C22.304 61.6833 22.0873 61.3366 21.7606 61.0766C21.434 60.81 20.9906 60.6766 20.4306 60.6766C19.9306 60.6766 19.4973 60.7933 19.1306 61.0266C18.764 61.2533 18.4806 61.5833 18.2806 62.0166C18.0806 62.4433 17.9806 62.9566 17.9806 63.5566C17.9806 64.1566 18.0806 64.6733 18.2806 65.1066C18.4806 65.5333 18.764 65.8633 19.1306 66.0966C19.4973 66.3233 19.9306 66.4366 20.4306 66.4366C20.9906 66.4366 21.434 66.31 21.7606 66.0566C22.0873 65.7966 22.304 65.4533 22.4106 65.0266H23.3406C23.2006 65.7 22.8806 66.2266 22.3806 66.6066C21.8806 66.9866 21.2306 67.1766 20.4306 67.1766ZM24.5586 67.0566V60.0566H25.3986V63.2266L28.3186 60.0566H29.3786L26.7786 62.8466L29.4186 67.0566H28.3986L26.1786 63.4966L25.3986 64.3266V67.0566H24.5586Z" fill="#EEF6F0"/>
<circle cx="36.5" cy="63.5566" r="1.5" fill="#EEF6F0"/>
<path d="M45.98 67.1766C45.4667 67.1766 45.02 67.0833 44.64 66.8966C44.26 66.71 43.9667 66.45 43.76 66.1166C43.5533 65.7833 43.45 65.3966 43.45 64.9566H44.33C44.33 65.23 44.3933 65.4833 44.52 65.7166C44.6467 65.9433 44.83 66.1266 45.07 66.2666C45.3167 66.4 45.62 66.4666 45.98 66.4666C46.2933 66.4666 46.56 66.4166 46.78 66.3166C47.0067 66.21 47.1767 66.0666 47.29 65.8866C47.41 65.7066 47.47 65.5033 47.47 65.2766C47.47 65.0033 47.41 64.7833 47.29 64.6166C47.1767 64.4433 47.02 64.3033 46.82 64.1966C46.62 64.09 46.3867 63.9966 46.12 63.9166C45.86 63.83 45.5867 63.74 45.3 63.6466C44.7467 63.46 44.34 63.2266 44.08 62.9466C43.82 62.6666 43.69 62.3033 43.69 61.8566C43.69 61.4766 43.7767 61.1433 43.95 60.8566C44.13 60.57 44.3833 60.3466 44.71 60.1866C45.0433 60.02 45.4367 59.9366 45.89 59.9366C46.3367 59.9366 46.7233 60.02 47.05 60.1866C47.3833 60.3533 47.6433 60.5833 47.83 60.8766C48.0167 61.1633 48.11 61.4966 48.11 61.8766H47.23C47.23 61.6833 47.18 61.4933 47.08 61.3066C46.98 61.12 46.8267 60.9666 46.62 60.8466C46.42 60.72 46.1667 60.6566 45.86 60.6566C45.6067 60.65 45.38 60.6933 45.18 60.7866C44.9867 60.8733 44.8333 61 44.72 61.1666C44.6133 61.3333 44.56 61.5366 44.56 61.7766C44.56 62.0033 44.6067 62.1866 44.7 62.3266C44.8 62.4666 44.94 62.5866 45.12 62.6866C45.3067 62.78 45.5233 62.8666 45.77 62.9466C46.0167 63.0266 46.29 63.1166 46.59 63.2166C46.93 63.33 47.23 63.47 47.49 63.6366C47.7567 63.7966 47.9633 64.0033 48.11 64.2566C48.2633 64.51 48.34 64.8333 48.34 65.2266C48.34 65.56 48.25 65.8766 48.07 66.1766C47.8967 66.47 47.6367 66.71 47.29 66.8966C46.9433 67.0833 46.5067 67.1766 45.98 67.1766ZM49.5508 67.0566V60.0566H50.5308L53.0008 64.9466L55.4808 60.0566H56.4708V67.0566H55.6308V61.5566L53.3208 66.0766H52.6908L50.3908 61.5766V67.0566H49.5508ZM57.509 67.0566L60.089 60.0566H60.979L63.549 67.0566H62.659L60.529 61.1066L58.389 67.0566H57.509ZM58.689 65.2566L58.929 64.5766H62.099L62.339 65.2566H58.689ZM64.5996 67.0566V60.0566H66.8596C67.4063 60.0566 67.8529 60.15 68.1996 60.3366C68.5463 60.5166 68.8029 60.76 68.9696 61.0666C69.1363 61.3733 69.2196 61.72 69.2196 62.1066C69.2196 62.48 69.1329 62.8233 68.9596 63.1366C68.7929 63.45 68.5329 63.7 68.1796 63.8866C67.8263 64.0733 67.3729 64.1666 66.8196 64.1666H65.4396V67.0566H64.5996ZM68.2996 67.0566L66.7596 63.9266H67.6996L69.2896 67.0566H68.2996ZM65.4396 63.5066H66.7996C67.3329 63.5066 67.7229 63.3766 67.9696 63.1166C68.2229 62.8566 68.3496 62.5233 68.3496 62.1166C68.3496 61.7033 68.2263 61.3766 67.9796 61.1366C67.7396 60.89 67.3429 60.7666 66.7896 60.7666H65.4396V63.5066ZM72.1771 67.0566V60.7466H70.0871V60.0566H75.1071V60.7466H73.0171V67.0566H72.1771Z" fill="#EEF6F0"/>
<circle cx="82.5" cy="63.5566" r="1.5" fill="#EEF6F0"/>
<path d="M92.79 67.1766C92.11 67.1766 91.52 67.0266 91.02 66.7266C90.5267 66.42 90.1467 65.9966 89.88 65.4566C89.6133 64.91 89.48 64.2766 89.48 63.5566C89.48 62.8366 89.6133 62.2066 89.88 61.6666C90.1467 61.12 90.5267 60.6966 91.02 60.3966C91.52 60.09 92.11 59.9366 92.79 59.9366C93.59 59.9366 94.24 60.1266 94.74 60.5066C95.24 60.8866 95.56 61.4233 95.7 62.1166H94.77C94.6633 61.6833 94.4467 61.3366 94.12 61.0766C93.7933 60.81 93.35 60.6766 92.79 60.6766C92.29 60.6766 91.8567 60.7933 91.49 61.0266C91.1233 61.2533 90.84 61.5833 90.64 62.0166C90.44 62.4433 90.34 62.9566 90.34 63.5566C90.34 64.1566 90.44 64.6733 90.64 65.1066C90.84 65.5333 91.1233 65.8633 91.49 66.0966C91.8567 66.3233 92.29 66.4366 92.79 66.4366C93.35 66.4366 93.7933 66.31 94.12 66.0566C94.4467 65.7966 94.6633 65.4533 94.77 65.0266H95.7C95.56 65.7 95.24 66.2266 94.74 66.6066C94.24 66.9866 93.59 67.1766 92.79 67.1766ZM96.918 67.0566V60.0566H97.758V66.3866H101.018V67.0566H96.918ZM102.191 67.0566V60.0566H106.521V60.7466H103.031V63.1866H106.221V63.8666H103.031V66.3666H106.521V67.0566H102.191ZM107.396 67.0566L109.976 60.0566H110.866L113.436 67.0566H112.546L110.416 61.1066L108.276 67.0566H107.396ZM108.576 65.2566L108.816 64.5766H111.986L112.226 65.2566H108.576ZM114.486 67.0566V60.0566H116.746C117.293 60.0566 117.74 60.15 118.086 60.3366C118.433 60.5166 118.69 60.76 118.856 61.0666C119.023 61.3733 119.106 61.72 119.106 62.1066C119.106 62.48 119.02 62.8233 118.846 63.1366C118.68 63.45 118.42 63.7 118.066 63.8866C117.713 64.0733 117.26 64.1666 116.706 64.1666H115.326V67.0566H114.486ZM118.186 67.0566L116.646 63.9266H117.586L119.176 67.0566H118.186ZM115.326 63.5066H116.686C117.22 63.5066 117.61 63.3766 117.856 63.1166C118.11 62.8566 118.236 62.5233 118.236 62.1166C118.236 61.7033 118.113 61.3766 117.866 61.1366C117.626 60.89 117.23 60.7666 116.676 60.7666H115.326V63.5066Z" fill="#EEF6F0"/>
</svg>
