<svg width="33" height="17" viewBox="0 0 33 17" fill="none" xmlns="http://www.w3.org/2000/svg">
<path d="M22.9932 16.4023H10.1328L9.81641 16.0859H23.3096L22.9932 16.4023ZM16.2441 15.8418H9.57129L9.25488 15.5254H16.2441V15.8418ZM23.5547 15.8418H16.7109V15.5254H23.8711L23.5547 15.8418ZM15.0918 15.2793H9.00879L8.69141 14.9629H15.0918V15.2793ZM24.1172 15.2793H17.8701V14.9629H24.4346L24.1172 15.2793ZM13.8398 14.7197H8.44824L8.13281 14.4043H13.8398V14.7197ZM24.6777 14.7197H19.1201V14.4043H24.9932L24.6777 14.7197ZM15.0918 14.1582H7.88672L7.57031 13.8428H15.0918V14.1582ZM25.2393 14.1582H17.8701V13.8428H25.5557L25.2393 14.1582ZM16.2441 13.5986H7.32617L7.00977 13.2822H16.2441V13.5986ZM25.7998 13.5986H16.7109V13.2822H26.1162L25.7998 13.5986ZM26.3604 13.0381H6.76562L6.44824 12.7217H26.6777L26.3604 13.0381ZM17.7998 0.402344C18.0436 0.402344 18.2601 0.437358 18.4482 0.506836C18.6365 0.583409 18.7944 0.684289 18.9199 0.80957C19.0453 0.934785 19.1394 1.08115 19.2021 1.24805C19.2579 1.41519 19.2748 1.59322 19.2539 1.78125C19.233 1.9761 19.1813 2.15718 19.0977 2.32422C19.007 2.4913 18.9121 2.64115 18.8145 2.77344C18.774 2.82892 18.7315 2.88266 18.6875 2.93457C18.5517 3.09457 18.3162 3.10679 18.1436 2.9873L17.9678 2.86621C17.7293 2.701 17.7846 2.32237 18.0303 2.16797C18.1906 2.0705 18.341 1.94513 18.4805 1.79199C18.6129 1.63884 18.6787 1.45406 18.6787 1.23828C18.6787 1.15471 18.6646 1.07087 18.6367 0.987305C18.6088 0.903818 18.5637 0.823606 18.501 0.74707C18.4312 0.677506 18.34 0.618043 18.2285 0.569336C18.117 0.527733 17.9738 0.506836 17.7998 0.506836C17.6537 0.506908 17.5141 0.538101 17.3818 0.600586C17.2494 0.670207 17.1299 0.76072 17.0254 0.87207C16.9209 0.983421 16.8409 1.11268 16.7852 1.25879C16.7224 1.41196 16.6914 1.56936 16.6914 1.72949C16.6915 1.96591 16.7574 2.18502 16.8896 2.38672C17.0221 2.59555 17.1894 2.78787 17.3916 2.96191C17.5868 3.13596 17.804 3.28861 18.041 3.4209C18.278 3.5531 18.5009 3.66537 18.71 3.75586C18.7935 3.79758 18.9019 3.84293 19.0342 3.8916C19.2786 3.98651 19.5574 3.90124 19.7021 3.68262L21.127 1.53027C21.1688 1.46762 21.2215 1.37326 21.2842 1.24805C21.3398 1.12282 21.3465 0.990684 21.3047 0.851562C21.2768 0.775042 21.2354 0.711795 21.1797 0.663086C21.117 0.621371 21.0501 0.586415 20.9805 0.558594C20.9039 0.53086 20.8199 0.513783 20.7295 0.506836H23.5127C23.0455 0.506878 22.6443 0.601097 22.3096 0.789062C21.9679 0.977095 21.671 1.26257 21.4199 1.64551L19.9619 3.84082L19.96 3.8418H19.958L19.8711 3.97266C19.7923 4.09162 19.8779 4.25079 20.0205 4.25098H20.7402C20.6497 4.25794 20.5659 4.2759 20.4893 4.30371C20.4195 4.33157 20.3528 4.36643 20.29 4.4082C20.2345 4.45683 20.1929 4.51941 20.165 4.5957C20.1232 4.73499 20.1298 4.8678 20.1855 4.99316C20.2483 5.11844 20.301 5.2127 20.3428 5.27539L21.7686 7.42969C21.913 7.6476 22.1908 7.7324 22.4346 7.6377C22.5668 7.58903 22.6752 7.54368 22.7588 7.50195C22.968 7.41138 23.1916 7.29936 23.4287 7.16699C23.6658 7.03464 23.8819 6.88117 24.0771 6.70703C24.2794 6.53286 24.4476 6.34083 24.5801 6.13184C24.7123 5.92997 24.7783 5.71026 24.7783 5.47363C24.7783 5.31368 24.7472 5.15692 24.6846 5.00391C24.6288 4.85769 24.5479 4.72861 24.4434 4.61719C24.3388 4.50576 24.2204 4.41438 24.0879 4.34473C23.9554 4.28209 23.8153 4.25098 23.6689 4.25098C23.4948 4.25101 23.3517 4.27172 23.2402 4.31348C23.1289 4.36216 23.0384 4.42171 22.9688 4.49121C22.9061 4.56773 22.8599 4.64798 22.832 4.73145C22.8042 4.81491 22.7911 4.89895 22.791 4.98242C22.791 5.19822 22.857 5.38293 22.9893 5.53613C23.1287 5.68939 23.2791 5.81555 23.4395 5.91309C23.6852 6.06762 23.7405 6.44588 23.502 6.61133L23.3262 6.7334C23.1534 6.85306 22.9173 6.84082 22.7812 6.68066C22.737 6.62854 22.6948 6.57419 22.6543 6.51855C22.5568 6.38631 22.4626 6.23632 22.3721 6.06934C22.2885 5.90228 22.2358 5.72123 22.2148 5.52637C22.194 5.33833 22.2118 5.16032 22.2676 4.99316C22.3304 4.82602 22.4243 4.67908 22.5498 4.55371C22.6753 4.42845 22.8324 4.32756 23.0205 4.25098C23.2087 4.18136 23.425 4.14653 23.6689 4.14648C23.7595 4.14648 23.8819 4.17104 24.0352 4.21973C24.1955 4.26849 24.3497 4.35608 24.4961 4.48145C24.6494 4.60681 24.7821 4.78119 24.8936 5.00391C24.9315 5.07973 25.0871 5.07972 25.125 5.00391C25.2365 4.7811 25.3691 4.60682 25.5225 4.48145C25.6688 4.35614 25.8221 4.2685 25.9824 4.21973C26.1357 4.171 26.258 4.14652 26.3486 4.14648C26.5926 4.14648 26.8089 4.18141 26.9971 4.25098C27.1853 4.3276 27.3432 4.42834 27.4688 4.55371C27.5942 4.67908 27.6882 4.82603 27.751 4.99316C27.8067 5.16029 27.8236 5.33837 27.8027 5.52637C27.7818 5.72115 27.73 5.90234 27.6465 6.06934C27.5559 6.23645 27.4609 6.38623 27.3633 6.51855C27.3229 6.57406 27.2803 6.62768 27.2363 6.67969C27.1006 6.84016 26.8652 6.85306 26.6924 6.7334L26.5166 6.61133C26.2781 6.44587 26.3333 6.06766 26.5791 5.91309C26.7395 5.81555 26.8898 5.68939 27.0293 5.53613C27.1615 5.38296 27.2275 5.19815 27.2275 4.98242C27.2275 4.89895 27.2134 4.81491 27.1855 4.73145C27.1576 4.64805 27.1124 4.56767 27.0498 4.49121C26.9801 4.42163 26.8888 4.3622 26.7773 4.31348C26.6658 4.27181 26.5227 4.25098 26.3486 4.25098C26.2024 4.25101 26.063 4.2822 25.9307 4.34473C25.7982 4.41438 25.6788 4.50576 25.5742 4.61719C25.4698 4.72853 25.3897 4.85784 25.334 5.00391C25.2714 5.15695 25.2403 5.31364 25.2402 5.47363C25.2402 5.71032 25.3062 5.92993 25.4385 6.13184C25.5709 6.34073 25.7383 6.53293 25.9404 6.70703C26.1357 6.8812 26.3527 7.03462 26.5898 7.16699C26.8268 7.29929 27.0497 7.41142 27.2588 7.50195C27.3424 7.54373 27.4506 7.58896 27.583 7.6377C27.8274 7.73264 28.1063 7.64734 28.251 7.42871L29.6758 5.27539C29.7176 5.21268 29.7703 5.11848 29.833 4.99316C29.8887 4.86781 29.8953 4.73498 29.8535 4.5957C29.8257 4.51945 29.784 4.45683 29.7285 4.4082C29.6658 4.36645 29.599 4.33156 29.5293 4.30371C29.4526 4.27586 29.3689 4.25795 29.2783 4.25098H32.0615C31.5944 4.25098 31.1931 4.34521 30.8584 4.5332C30.5167 4.72131 30.2198 5.00748 29.9688 5.39062L28.5117 7.58594L28.5098 7.58691H28.5068L26.8838 10.04C26.8828 10.0418 26.8826 10.0443 26.8838 10.0459C26.8852 10.0476 26.8858 10.0499 26.8848 10.0518C26.8597 10.0897 26.8351 10.1288 26.8096 10.167C26.691 10.3411 26.5613 10.5295 26.4219 10.7314C26.2896 10.9262 26.1954 11.0762 26.1396 11.1807C26.084 11.2851 26.0698 11.3935 26.0977 11.5049C26.1186 11.5882 26.1677 11.6506 26.2441 11.6924C26.3139 11.7411 26.3872 11.7797 26.4639 11.8076C26.5408 11.8254 26.6257 11.837 26.7178 11.8447H26.7559V11.8477C26.7598 11.8479 26.7636 11.8494 26.7676 11.8496H26.7559V12.4766H6.17188V11.8447H6.23828C6.33038 11.837 6.41524 11.8254 6.49219 11.8076C6.56877 11.7798 6.64228 11.7411 6.71191 11.6924C6.78826 11.6506 6.83747 11.5882 6.8584 11.5049C6.8862 11.3936 6.87204 11.285 6.81641 11.1807C6.7606 11.0762 6.66562 10.9264 6.5332 10.7314C6.39381 10.5295 6.26499 10.3411 6.14648 10.167C6.03499 9.99992 5.9268 9.8359 5.82227 9.67578C5.7177 9.51561 5.60958 9.34791 5.49805 9.17383C5.387 9.00742 5.26172 8.8201 5.12305 8.6123L5.11328 8.6084L4.66699 7.93359C4.66653 7.9325 4.66779 7.9311 4.66895 7.93066C4.66983 7.93012 4.67033 7.9287 4.66992 7.92773L2.9873 5.39062C2.73623 5.00748 2.43938 4.72131 2.09766 4.5332C1.76289 4.34512 1.36179 4.25098 0.894531 4.25098H3.67773C3.58717 4.25794 3.50341 4.2759 3.42676 4.30371C3.35705 4.33157 3.29028 4.36643 3.22754 4.4082C3.17199 4.45683 3.1304 4.51941 3.10254 4.5957C3.06071 4.73499 3.06732 4.8678 3.12305 4.99316C3.18575 5.11844 3.23845 5.2127 3.28027 5.27539L4.70605 7.42969C4.85054 7.6476 5.12831 7.7324 5.37207 7.6377C5.50429 7.58903 5.61268 7.54368 5.69629 7.50195C5.9055 7.41138 6.12911 7.29936 6.36621 7.16699C6.60328 7.03464 6.8194 6.88117 7.01465 6.70703C7.21687 6.53286 7.38508 6.34083 7.51758 6.13184C7.64979 5.92997 7.71582 5.71026 7.71582 5.47363C7.71576 5.31368 7.68467 5.15692 7.62207 5.00391C7.56629 4.85769 7.4854 4.72861 7.38086 4.61719C7.27626 4.50576 7.15787 4.41438 7.02539 4.34473C6.89293 4.28209 6.75284 4.25098 6.60645 4.25098C6.43231 4.25101 6.28923 4.27172 6.17773 4.31348C6.06637 4.36216 5.97593 4.42171 5.90625 4.49121C5.84358 4.56773 5.79744 4.64798 5.76953 4.73145C5.74168 4.81491 5.72856 4.89895 5.72852 4.98242C5.72852 5.19822 5.79448 5.38293 5.92676 5.53613C6.06623 5.68939 6.21657 5.81555 6.37695 5.91309C6.62273 6.06762 6.67798 6.44588 6.43945 6.61133L6.26367 6.7334C6.09089 6.85306 5.85483 6.84082 5.71875 6.68066C5.6745 6.62854 5.6323 6.57419 5.5918 6.51855C5.4943 6.38631 5.40011 6.23632 5.30957 6.06934C5.22602 5.90228 5.17327 5.72123 5.15234 5.52637C5.13146 5.33833 5.14931 5.16032 5.20508 4.99316C5.26785 4.82602 5.36181 4.67908 5.4873 4.55371C5.61277 4.42845 5.76989 4.32756 5.95801 4.25098C6.1462 4.18136 6.36254 4.14653 6.60645 4.14648C6.69703 4.14648 6.81941 4.17104 6.97266 4.21973C7.13304 4.26849 7.28715 4.35608 7.43359 4.48145C7.58685 4.60681 7.71956 4.78119 7.83105 5.00391C7.86897 5.07973 8.02457 5.07972 8.0625 5.00391C8.17404 4.7811 8.30662 4.60682 8.45996 4.48145C8.60633 4.35614 8.75963 4.2685 8.91992 4.21973C9.07322 4.171 9.19549 4.14652 9.28613 4.14648C9.53005 4.14648 9.74636 4.18141 9.93457 4.25098C10.1228 4.3276 10.2807 4.42834 10.4062 4.55371C10.5317 4.67908 10.6257 4.82603 10.6885 4.99316C10.7442 5.16029 10.7611 5.33837 10.7402 5.52637C10.7193 5.72115 10.6675 5.90234 10.584 6.06934C10.4934 6.23645 10.3984 6.38623 10.3008 6.51855C10.2604 6.57406 10.2178 6.62768 10.1738 6.67969C10.0381 6.84016 9.80269 6.85306 9.62988 6.7334L9.4541 6.61133C9.21556 6.44587 9.27083 6.06766 9.5166 5.91309C9.67699 5.81555 9.82733 5.68939 9.9668 5.53613C10.099 5.38296 10.165 5.19815 10.165 4.98242C10.165 4.89895 10.1509 4.81491 10.123 4.73145C10.0951 4.64805 10.0499 4.56767 9.9873 4.49121C9.91758 4.42163 9.82633 4.3622 9.71484 4.31348C9.60333 4.27181 9.46022 4.25098 9.28613 4.25098C9.13992 4.25101 9.00048 4.2822 8.86816 4.34473C8.73569 4.41438 8.61631 4.50576 8.51172 4.61719C8.40732 4.72853 8.32721 4.85784 8.27148 5.00391C8.20886 5.15695 8.17779 5.31364 8.17773 5.47363C8.17773 5.71032 8.2437 5.92993 8.37598 6.13184C8.50841 6.34073 8.67583 6.53293 8.87793 6.70703C9.0732 6.8812 9.29024 7.03462 9.52734 7.16699C9.76434 7.29929 9.98716 7.41142 10.1963 7.50195C10.2799 7.54373 10.3881 7.58896 10.5205 7.6377C10.7649 7.73264 11.0438 7.64734 11.1885 7.42871L12.6133 5.27539C12.6551 5.21268 12.7078 5.11848 12.7705 4.99316C12.8262 4.86781 12.8328 4.73498 12.791 4.5957C12.7632 4.51945 12.7215 4.45683 12.666 4.4082C12.6033 4.36645 12.5365 4.33156 12.4668 4.30371C12.3901 4.27586 12.3064 4.25795 12.2158 4.25098H13.0205C13.1098 4.25098 13.1636 4.15157 13.1143 4.07715L11.501 1.64551C11.2499 1.26255 10.9531 0.97707 10.6113 0.789062C10.2766 0.601175 9.87535 0.506836 9.4082 0.506836H12.1914C12.101 0.513813 12.017 0.530819 11.9404 0.558594C11.8708 0.586432 11.8039 0.621356 11.7412 0.663086C11.6855 0.711802 11.6441 0.775063 11.6162 0.851562C11.5745 0.990594 11.5812 1.12289 11.6367 1.24805C11.6994 1.37319 11.7521 1.4676 11.7939 1.53027L13.2188 3.68262C13.3635 3.90124 13.6423 3.98651 13.8867 3.8916C14.019 3.84293 14.1273 3.79759 14.2109 3.75586C14.42 3.66539 14.6429 3.5531 14.8799 3.4209C15.117 3.28862 15.334 3.13595 15.5293 2.96191C15.7315 2.78786 15.8987 2.59558 16.0312 2.38672C16.1636 2.18497 16.2304 1.96598 16.2305 1.72949C16.2305 1.56932 16.1985 1.412 16.1357 1.25879C16.0799 1.11267 16.0001 0.98342 15.8955 0.87207C15.7909 0.760748 15.6715 0.67018 15.5391 0.600586C15.4068 0.53815 15.2673 0.506848 15.1211 0.506836C14.947 0.506861 14.8039 0.527665 14.6924 0.569336C14.5809 0.618063 14.4896 0.677484 14.4199 0.74707C14.3573 0.823589 14.3121 0.903839 14.2842 0.987305C14.2563 1.07084 14.2422 1.15474 14.2422 1.23828C14.2422 1.454 14.309 1.63886 14.4414 1.79199C14.5807 1.94493 14.7304 2.07058 14.8906 2.16797C15.1363 2.32242 15.1917 2.70099 14.9531 2.86621L14.7773 2.9873C14.6047 3.10679 14.3693 3.09455 14.2334 2.93457C14.1894 2.88267 14.1468 2.8289 14.1064 2.77344C14.0088 2.64116 13.9139 2.49129 13.8232 2.32422C13.7397 2.15722 13.6879 1.97605 13.667 1.78125C13.6461 1.59327 13.663 1.41515 13.7188 1.24805C13.7815 1.08111 13.8766 0.93481 14.002 0.80957C14.1274 0.684426 14.2846 0.583362 14.4727 0.506836C14.6608 0.437296 14.8772 0.402374 15.1211 0.402344C15.2117 0.402359 15.334 0.426913 15.4873 0.475586C15.6475 0.524285 15.801 0.611239 15.9473 0.736328C16.1006 0.861603 16.2332 1.03614 16.3447 1.25879C16.3827 1.33462 16.5382 1.33462 16.5762 1.25879C16.6877 1.03615 16.8203 0.861623 16.9736 0.736328C17.1199 0.611227 17.2734 0.524335 17.4336 0.475586C17.5868 0.426928 17.7092 0.402435 17.7998 0.402344ZM13.8838 8.46484C13.6394 8.36993 13.3606 8.45522 13.2158 8.67383L11.791 10.8252C11.7492 10.8877 11.6964 10.9824 11.6338 11.1074C11.5782 11.2324 11.5718 11.3651 11.6133 11.5039C11.6411 11.5803 11.6827 11.6437 11.7383 11.6924C11.801 11.7341 11.8679 11.769 11.9375 11.7969C12.0063 11.8218 12.0811 11.8366 12.1611 11.8447H14.4609C14.2767 11.7686 14.1216 11.6692 13.998 11.5459C13.8728 11.4207 13.7785 11.2742 13.7158 11.1074C13.6602 10.9405 13.6432 10.762 13.6641 10.5742C13.6851 10.3797 13.7368 10.198 13.8203 10.0312C13.9109 9.86441 14.006 9.71415 14.1035 9.58203C14.1439 9.52661 14.1864 9.47285 14.2305 9.4209C14.3663 9.26089 14.6018 9.24868 14.7744 9.36816L14.9492 9.48926C15.188 9.65453 15.1336 10.034 14.8877 10.1885C14.7276 10.2858 14.5768 10.4116 14.4375 10.5645C14.3054 10.7174 14.2394 10.9028 14.2393 11.1182C14.2393 11.2013 14.2536 11.285 14.2812 11.3682C14.3091 11.4515 14.3545 11.532 14.417 11.6084C14.4867 11.678 14.578 11.7374 14.6895 11.7861C14.773 11.8174 14.8743 11.8369 14.9932 11.8447H15.1904C15.3105 11.836 15.4258 11.807 15.5361 11.7549C15.6685 11.6853 15.7881 11.5947 15.8926 11.4834C15.9969 11.3721 16.0771 11.2426 16.1328 11.0967C16.1953 10.9438 16.2275 10.7868 16.2275 10.627C16.2274 10.3905 16.1607 10.1705 16.0283 9.96875C15.8959 9.76015 15.7283 9.56841 15.5264 9.39453C15.3312 9.22057 15.1139 9.0668 14.877 8.93457C14.6402 8.8025 14.417 8.69101 14.208 8.60059C14.1245 8.5589 14.0159 8.51345 13.8838 8.46484ZM16.5732 11.0967C16.5354 11.0209 16.3796 11.0209 16.3418 11.0967C16.2303 11.3193 16.0976 11.4938 15.9443 11.6191C15.8281 11.7186 15.707 11.7933 15.582 11.8447H17.333C17.208 11.7933 17.0869 11.7186 16.9707 11.6191C16.8174 11.4938 16.6848 11.3194 16.5732 11.0967ZM19.6992 8.67383C19.5544 8.45522 19.2757 8.36993 19.0312 8.46484C18.8992 8.51344 18.7906 8.55891 18.707 8.60059C18.4981 8.69099 18.2748 8.80252 18.0381 8.93457C17.8011 9.06677 17.5838 9.22062 17.3887 9.39453C17.1868 9.56837 17.0191 9.76021 16.8867 9.96875C16.7544 10.1705 16.6877 10.3905 16.6875 10.627C16.6875 10.7868 16.7197 10.9438 16.7822 11.0967C16.8379 11.2427 16.9181 11.3721 17.0225 11.4834C17.127 11.5947 17.2465 11.6853 17.3789 11.7549C17.4892 11.807 17.6046 11.8361 17.7246 11.8447H17.9219C18.0407 11.8369 18.142 11.8174 18.2256 11.7861C18.337 11.7374 18.4284 11.6779 18.498 11.6084C18.5605 11.5321 18.606 11.4514 18.6338 11.3682C18.6614 11.2851 18.6757 11.2013 18.6758 11.1182C18.6756 10.9028 18.6097 10.7174 18.4775 10.5645C18.3382 10.4115 18.1875 10.2859 18.0273 10.1885C17.7815 10.034 17.7271 9.65453 17.9658 9.48926L18.1406 9.36816C18.3132 9.24868 18.5487 9.26089 18.6846 9.4209C18.7286 9.47284 18.7711 9.5266 18.8115 9.58203C18.9091 9.71419 19.0041 9.86435 19.0947 10.0312C19.1782 10.198 19.23 10.3797 19.251 10.5742C19.2719 10.7619 19.2548 10.9405 19.1992 11.1074C19.1366 11.2742 19.0421 11.4207 18.917 11.5459C18.7935 11.6692 18.6383 11.7686 18.4541 11.8447H20.7539C20.8339 11.8366 20.9088 11.8218 20.9775 11.7969C21.0471 11.769 21.1141 11.7341 21.1768 11.6924C21.2322 11.6437 21.274 11.5802 21.3018 11.5039C21.3432 11.3651 21.3369 11.2324 21.2812 11.1074C21.2186 10.9824 21.1658 10.8878 21.124 10.8252L19.6992 8.67383ZM20.0498 5.39062C19.762 4.95141 19.1561 5.05246 18.8662 5.49023L18.583 5.91797C18.4808 6.07233 18.4808 6.27276 18.582 6.42773C18.6865 6.58763 18.7949 6.75494 18.9062 6.92871C19.0172 7.0949 19.1417 7.28273 19.2803 7.49023C19.2813 7.49183 19.2833 7.4925 19.2852 7.49219C19.2872 7.49168 19.2898 7.49243 19.291 7.49414L19.7363 8.16699L19.7344 8.1748L21.417 10.71C21.668 11.0929 21.965 11.3793 22.3066 11.5674C22.5697 11.7151 22.8738 11.8045 23.2188 11.8359C23.284 11.8419 23.3501 11.8405 23.415 11.832C23.464 11.8256 23.5108 11.8177 23.5547 11.8076C23.6313 11.7798 23.7048 11.7411 23.7744 11.6924C23.8508 11.6506 23.9 11.5882 23.9209 11.5049C23.9487 11.3936 23.9345 11.285 23.8789 11.1807C23.8231 11.0762 23.7281 10.9264 23.5957 10.7314C23.4563 10.5295 23.3275 10.3411 23.209 10.167C23.0975 9.99992 22.9893 9.8359 22.8848 9.67578C22.7802 9.51561 22.6721 9.34791 22.5605 9.17383C22.4495 9.00742 22.3242 8.8201 22.1855 8.6123L22.1758 8.6084L21.7295 7.93359C21.729 7.9325 21.7303 7.9311 21.7314 7.93066C21.7323 7.93012 21.7328 7.9287 21.7324 7.92773L20.0498 5.39062ZM13.6357 4.86328C13.5786 4.7775 13.4606 4.75738 13.3838 4.82617C13.2097 4.98219 13.0505 5.17052 12.9062 5.39062L11.4492 7.58594L11.4473 7.58691H11.4443L9.82129 10.04C9.82026 10.0418 9.82007 10.0443 9.82129 10.0459C9.82268 10.0476 9.82335 10.0499 9.82227 10.0518C9.79717 10.0897 9.77258 10.1288 9.74707 10.167C9.62854 10.3411 9.49881 10.5295 9.35938 10.7314C9.22707 10.9262 9.13292 11.0762 9.07715 11.1807C9.02146 11.2851 9.00734 11.3935 9.03516 11.5049C9.05612 11.5882 9.10517 11.6506 9.18164 11.6924C9.25136 11.7411 9.32468 11.7797 9.40137 11.8076C9.43649 11.8157 9.47334 11.8226 9.51172 11.8281C9.58348 11.8385 9.65639 11.8394 9.72852 11.832C10.0599 11.7981 10.3538 11.7103 10.6084 11.5674C10.95 11.3793 11.2471 11.0928 11.498 10.71L12.9551 8.51367L12.957 8.5127H12.96L13.9238 7.05664C13.9529 7.01299 13.9814 6.96979 14.0088 6.92871C14.0161 6.91736 14.024 6.90582 14.0312 6.89453L14.1064 6.78027C14.3485 6.41424 14.3486 5.93918 14.1064 5.57324C14.0753 5.52489 14.0434 5.47617 14.0117 5.42676C13.9003 5.25985 13.775 5.07184 13.6357 4.86328ZM8.15625 6.79102C8.08201 6.67529 7.81057 6.67529 7.73633 6.79102C7.56207 7.06944 7.34289 7.31359 7.07812 7.52246C6.82008 7.73844 6.54012 7.92289 6.24023 8.07617C6.16408 8.11686 6.08911 8.15574 6.01562 8.19336C5.7015 8.35417 5.58439 8.75432 5.78027 9.04785C5.89881 9.22199 6.01441 9.39337 6.12598 9.56055C6.2374 9.72751 6.34854 9.89835 6.45996 10.0723C6.57153 10.2464 6.69746 10.4385 6.83691 10.6475C6.92756 10.7798 7.02907 10.9088 7.14062 11.0342C7.23821 11.1386 7.35296 11.247 7.48535 11.3584C7.62482 11.4699 7.77516 11.5602 7.93555 11.6299H7.95801C8.11816 11.5603 8.26793 11.4697 8.40723 11.3584C8.5397 11.2469 8.65531 11.1387 8.75293 11.0342C8.86447 10.9088 8.96601 10.7798 9.05664 10.6475C9.19605 10.4386 9.32108 10.2464 9.43262 10.0723C9.54414 9.8982 9.65606 9.72766 9.76758 9.56055C9.87914 9.39337 9.99475 9.22199 10.1133 9.04785C10.309 8.75455 10.1908 8.35501 9.87695 8.19434C9.80335 8.15666 9.72865 8.11694 9.65234 8.07617C9.35253 7.92291 9.07342 7.73839 8.81543 7.52246C8.55048 7.31348 8.33058 7.06963 8.15625 6.79102ZM25.2188 6.79102C25.1445 6.67529 24.8731 6.67529 24.7988 6.79102C24.6246 7.06944 24.4054 7.31359 24.1406 7.52246C23.8826 7.73844 23.6026 7.92289 23.3027 8.07617C23.2266 8.11686 23.1516 8.15574 23.0781 8.19336C22.764 8.35417 22.6469 8.75432 22.8428 9.04785C22.9613 9.22199 23.0769 9.39337 23.1885 9.56055C23.2999 9.72751 23.411 9.89835 23.5225 10.0723C23.634 10.2464 23.76 10.4385 23.8994 10.6475C23.9901 10.7798 24.0916 10.9088 24.2031 11.0342C24.3007 11.1386 24.4155 11.247 24.5479 11.3584C24.6873 11.4699 24.8377 11.5602 24.998 11.6299H25.0205C25.1807 11.5603 25.3304 11.4697 25.4697 11.3584C25.6022 11.2469 25.7178 11.1387 25.8154 11.0342C25.927 10.9088 26.0285 10.7798 26.1191 10.6475C26.2586 10.4386 26.3836 10.2464 26.4951 10.0723C26.6066 9.8982 26.7186 9.72766 26.8301 9.56055C26.9416 9.39337 27.0572 9.22199 27.1758 9.04785C27.3715 8.75455 27.2533 8.35501 26.9395 8.19434C26.8659 8.15666 26.7911 8.11694 26.7148 8.07617C26.415 7.92291 26.1359 7.73839 25.8779 7.52246C25.613 7.31348 25.3931 7.06963 25.2188 6.79102ZM15.7383 8.10156C15.5116 8.10156 15.415 8.4337 15.5889 8.5791C15.8537 8.78788 16.0737 9.03223 16.248 9.31055C16.3224 9.42634 16.5927 9.42634 16.667 9.31055C16.8413 9.03229 17.0614 8.78784 17.3262 8.5791C17.4999 8.43384 17.4032 8.10156 17.1768 8.10156H15.7383ZM14.7441 6.54102C14.7179 6.50253 14.6626 6.50326 14.6367 6.54199C14.5253 6.70892 14.4094 6.88081 14.291 7.05469C14.0952 7.34789 14.2134 7.74787 14.5273 7.9082C14.6009 7.94574 14.6758 7.98472 14.752 8.02539C14.8248 8.06258 14.9064 8.08082 14.9863 8.06348C14.9929 8.06206 14.9994 8.06105 15.0059 8.05957C15.0825 8.03174 15.1559 7.99302 15.2256 7.94434C15.3022 7.90262 15.3511 7.84018 15.3721 7.75684C15.4 7.64541 15.3859 7.53708 15.3301 7.43262C15.2743 7.32817 15.1803 7.17825 15.0479 6.9834C14.9403 6.82775 14.8391 6.68027 14.7441 6.54102ZM18.2783 6.54199C18.2541 6.50569 18.2005 6.5051 18.1758 6.54102C18.0809 6.68004 17.9803 6.82818 17.873 6.9834C17.7406 7.17827 17.6466 7.32819 17.5908 7.43262C17.5351 7.53702 17.521 7.64548 17.5488 7.75684C17.5698 7.84011 17.6189 7.90261 17.6953 7.94434C17.765 7.99303 17.8384 8.03172 17.915 8.05957C17.9205 8.06082 17.9261 8.0623 17.9316 8.06348C18.0103 8.08016 18.0914 8.062 18.1631 8.02539C18.2393 7.98472 18.3142 7.94575 18.3877 7.9082C18.7017 7.74787 18.8198 7.34789 18.624 7.05469C18.5056 6.88076 18.3898 6.70897 18.2783 6.54199ZM16.4463 4.47363C16.2862 4.54317 16.1364 4.63491 15.9971 4.74609C15.8648 4.8573 15.7489 4.96507 15.6514 5.06934C15.54 5.19442 15.4392 5.32404 15.3486 5.45605C15.2094 5.6646 15.0831 5.85642 14.9717 6.03027C14.9149 6.11889 14.9139 6.23074 14.9707 6.31934C14.9719 6.32116 14.9734 6.32337 14.9746 6.3252C15.0862 6.49921 15.2121 6.69061 15.3516 6.89941C15.4421 7.03157 15.5429 7.16092 15.6543 7.28613C15.7519 7.39055 15.8676 7.49898 16 7.61035C16.1394 7.72166 16.2899 7.81223 16.4502 7.88184C16.4562 7.88451 16.4635 7.88492 16.4697 7.88281L16.4717 7.88184C16.6318 7.81228 16.7816 7.72155 16.9209 7.61035C17.0534 7.49898 17.169 7.39055 17.2666 7.28613C17.3781 7.1609 17.4787 7.03159 17.5693 6.89941C17.7088 6.69059 17.8347 6.49923 17.9463 6.3252C18.0033 6.23629 18.0034 6.12302 17.9463 6.03418C17.9454 6.03281 17.9442 6.03164 17.9434 6.03027C17.8319 5.85638 17.7057 5.66466 17.5664 5.45605C17.4759 5.32399 17.3751 5.19446 17.2637 5.06934C17.1661 4.96502 17.0503 4.85735 16.918 4.74609C16.7787 4.63487 16.6289 4.5432 16.4688 4.47363H16.4463ZM17.9375 4.29102C17.9289 4.29282 17.9205 4.29495 17.9121 4.29688C17.8357 4.32464 17.7619 4.36262 17.6924 4.41113C17.6159 4.45277 17.5669 4.51646 17.5459 4.59961C17.5181 4.71066 17.5325 4.81872 17.5879 4.92285C17.6436 5.02716 17.7379 5.17748 17.8701 5.37207C17.9775 5.5275 18.0796 5.67529 18.1748 5.81445C18.2007 5.85203 18.2559 5.8515 18.2812 5.81348C18.3928 5.64638 18.5084 5.47581 18.627 5.30176C18.823 5.0082 18.704 4.60781 18.3896 4.44727C18.3164 4.40985 18.2419 4.37061 18.166 4.33008C18.095 4.29377 18.0156 4.27457 17.9375 4.29102ZM14.9795 4.29199C14.9028 4.27596 14.8247 4.29443 14.7549 4.33008C14.679 4.37058 14.6044 4.40988 14.5312 4.44727C14.2168 4.60802 14.0988 5.00803 14.2949 5.30176C14.4134 5.47569 14.5282 5.6465 14.6396 5.81348C14.6635 5.84924 14.7158 5.84979 14.7402 5.81445C14.8355 5.67535 14.9376 5.52745 15.0449 5.37207C15.1771 5.17756 15.2714 5.02714 15.3271 4.92285C15.3825 4.81876 15.3969 4.71062 15.3691 4.59961C15.3481 4.51645 15.2991 4.45279 15.2227 4.41113C15.1531 4.36259 15.0794 4.32467 15.0029 4.29688C14.9952 4.2951 14.9874 4.29364 14.9795 4.29199ZM16.6699 3.04492C16.5958 2.92936 16.3251 2.92937 16.251 3.04492C16.0766 3.32341 15.8568 3.56749 15.5918 3.77637C15.4016 3.93544 15.1994 4.07636 14.9863 4.20117C14.9633 4.21467 14.9723 4.25098 14.999 4.25098C14.9635 4.25098 14.9283 4.25281 14.8936 4.25391V4.25488H18.0244C18.0255 4.25452 18.0255 4.25258 18.0244 4.25195L17.957 4.25098C17.9743 4.25098 17.9807 4.22742 17.9658 4.21875C17.7414 4.08956 17.5284 3.94306 17.3291 3.77637C17.0642 3.5675 16.8442 3.32338 16.6699 3.04492Z" fill="#0E1319"/>
</svg>
