<svg width="16" height="17" viewBox="0 0 16 17" fill="none" xmlns="http://www.w3.org/2000/svg">
<path d="M15.8346 7.70743C15.8466 8.19508 15.8203 8.68161 15.7654 9.16587C15.6759 9.9483 15.4995 10.7112 15.1999 11.4417C14.8348 12.3309 14.2863 13.0832 13.5185 13.6698C12.882 14.1563 12.23 14.6218 11.5544 15.0523C11.0844 15.3516 10.6103 15.6448 10.1354 15.9362C9.89401 16.0844 9.62668 16.1742 9.35635 16.2532C8.96383 16.3682 8.56378 16.4167 8.15396 16.3987C7.59073 16.3742 7.03127 16.322 6.48083 16.1956C5.974 16.0791 5.48485 15.9054 4.99908 15.7219C4.76108 15.632 4.52835 15.5309 4.30238 15.4136C3.66847 15.085 3.1624 14.6127 2.75934 14.0288C2.52887 13.695 2.32997 13.3404 2.12318 12.9915C1.77013 12.396 1.41746 11.8 1.0614 11.206C0.921911 10.9732 0.801221 10.7322 0.692561 10.4841C0.501186 10.0479 0.327104 9.6054 0.200398 9.14557C0.112418 8.82561 0.0684277 8.4985 0.062036 8.16801C0.0582762 7.98453 0.0759478 7.8003 0.0906111 7.6172C0.147009 6.9111 0.318833 6.23095 0.57375 5.57185C0.747455 5.12217 0.952365 4.68678 1.19675 4.27057C1.36144 3.99046 1.54642 3.72313 1.75472 3.47348C2.03783 3.13434 2.36494 2.84521 2.73866 2.60872C2.96275 2.4666 3.1906 2.33049 3.4301 2.21657C3.9388 1.97443 4.42645 1.6947 4.90997 1.40632C5.23068 1.21495 5.55478 1.02996 5.90031 0.885962C6.42669 0.666763 6.96998 0.505465 7.53509 0.424629C7.67383 0.404702 7.81595 0.401694 7.95619 0.402446C8.4649 0.405454 8.97398 0.40771 9.48231 0.421622C9.93687 0.434029 10.3903 0.471627 10.8355 0.572015C11.4619 0.713385 12.057 0.939351 12.6161 1.25555C12.8665 1.3973 13.0887 1.57927 13.2982 1.77704C13.9125 2.35794 14.419 3.0223 14.8344 3.7581C15.0751 4.18409 15.2525 4.6364 15.4093 5.09773C15.5364 5.47183 15.6368 5.85383 15.7266 6.23809C15.7958 6.53361 15.8248 6.8359 15.8346 7.13932C15.8398 7.32844 15.8346 7.51794 15.8346 7.70743ZM6.38307 3.00613C6.24697 3.0975 6.13906 3.21932 6.03002 3.33888C5.73713 3.65922 5.60516 4.0367 5.63223 4.46946C5.63336 4.48713 5.62471 4.51496 5.66269 4.51984C5.67209 4.5033 5.68487 4.48638 5.69201 4.46721C5.75518 4.30365 5.87512 4.18898 6.01348 4.08972C6.03529 4.0743 6.05935 4.06152 6.08417 4.05137C6.11236 4.03971 6.15372 4.07355 6.14884 4.10438C6.1447 4.1307 6.13568 4.15664 6.12816 4.18221C6.10973 4.24425 6.08567 4.30553 6.07251 4.3687C6.00596 4.69167 6.06499 4.98155 6.30449 5.2218C6.32743 5.24474 6.34961 5.26843 6.3733 5.29099C6.40601 5.32182 6.4327 5.31655 6.44248 5.27407C6.48384 5.09961 6.53535 4.92929 6.62897 4.77476C6.64852 4.74205 6.64551 4.71498 6.6222 4.6864C6.57106 4.62324 6.52106 4.55932 6.47068 4.49578C6.35788 4.35328 6.28532 4.19311 6.24509 4.01565C6.21313 3.87616 6.22027 3.73592 6.2199 3.59567C6.21915 3.44152 6.259 3.29639 6.32179 3.15653C6.34359 3.10765 6.37931 3.06441 6.38495 3.00877C6.38232 2.99786 6.39097 2.99673 6.39059 3.00501C6.38946 3.02644 6.4045 3.00313 6.38307 3.00613ZM10.8167 7.37393C10.6986 7.58148 10.5245 7.72962 10.3185 7.84354C10.2952 7.85632 10.2692 7.8661 10.2433 7.87287C10.1959 7.88527 10.1474 7.8879 10.0989 7.877C10.0515 7.8661 10.0327 7.81309 10.0681 7.77737C10.1057 7.73902 10.1486 7.70593 10.1892 7.67021C10.2865 7.58524 10.3873 7.50327 10.4809 7.41417C10.626 7.2758 10.7482 7.11789 10.8618 6.95321C10.8892 6.91335 10.9141 6.87125 10.9573 6.84493C11.0129 6.81109 11.0802 6.8359 11.1017 6.89719C11.1148 6.93403 11.1167 6.97088 11.1099 7.00886C11.093 7.10436 11.0791 7.20061 11.0588 7.29536C10.9877 7.63224 10.8659 7.94618 10.6392 8.21238C10.6257 8.22855 10.6167 8.24885 10.6069 8.26765L10.6027 8.26314C10.6249 8.27178 10.6452 8.26577 10.6633 8.25261C10.7246 8.20862 10.7889 8.16726 10.8468 8.11876C11.1607 7.85519 11.4149 7.5405 11.6239 7.18933C11.7811 6.92539 11.8713 6.63926 11.9164 6.33584C11.9529 6.09145 11.9367 5.8497 11.9044 5.60794C11.8578 5.2594 11.7442 4.93531 11.528 4.65294C11.4589 4.56271 11.387 4.47473 11.3148 4.3875C11.2799 4.34539 11.2476 4.3029 11.2351 4.24801C11.216 4.16341 11.2423 4.10814 11.3246 4.08483C11.3867 4.06716 11.4517 4.05588 11.5156 4.05212C11.6017 4.04686 11.6886 4.05212 11.7751 4.05137C11.7942 4.05137 11.8228 4.06002 11.8251 4.02881C11.8258 4.01715 11.8119 4.00061 11.8006 3.99196C11.6393 3.86714 11.463 3.80397 11.2554 3.85022C11.1381 3.87616 11.028 3.91752 10.9204 3.9694C10.7633 4.04498 10.7268 4.01866 10.7185 3.84006C10.7043 3.53101 10.6245 3.24263 10.4332 2.99297C10.4181 2.97342 10.4053 2.94485 10.367 2.95425C10.373 3.00688 10.379 3.06028 10.3854 3.11366C10.3978 3.21668 10.3903 3.31933 10.3756 3.42122C10.3689 3.46859 10.3617 3.52574 10.302 3.53289C10.2497 3.53928 10.2328 3.49002 10.2147 3.45055C10.1226 3.24902 9.97823 3.09111 9.80716 2.9535C9.45148 2.667 9.05068 2.47224 8.60777 2.36583C8.26073 2.28236 7.91182 2.27109 7.56291 2.35944C7.25272 2.43802 6.97525 2.57676 6.74853 2.80724C6.52031 3.03922 6.41015 3.32083 6.41729 3.64343C6.42406 3.94722 6.51504 4.22846 6.68273 4.483C6.69439 4.50104 6.7083 4.51796 6.74214 4.50405C6.74214 4.46984 6.74026 4.43186 6.74251 4.39464C6.74928 4.27545 6.77259 4.1589 6.8023 4.04347C6.8147 3.99535 6.83538 3.95211 6.86884 3.91526C6.89291 3.88894 6.92299 3.8818 6.9572 3.88894C6.99593 3.89684 7.01059 3.92617 7.01209 3.95925C7.01435 4.00211 7.01022 4.04573 7.00721 4.08859C6.99931 4.20815 7.00194 4.32884 7.03691 4.44314C7.11624 4.70332 7.23204 4.94734 7.39597 5.16616C7.4629 5.25564 7.5302 5.30189 7.6351 5.34287C7.65239 5.31505 7.63397 5.29136 7.6257 5.26655C7.51666 4.93718 7.52719 4.6067 7.61667 4.27545C7.62946 4.22846 7.64187 4.18183 7.67383 4.14311C7.69563 4.11679 7.7415 4.11641 7.75729 4.14649C7.77722 4.18447 7.79451 4.22432 7.80655 4.2653C7.92197 4.66121 8.33104 5.10074 8.97247 5.11879C8.98713 5.11916 9.00518 5.12066 9.00969 5.09961C9.01045 5.07442 8.99127 5.06239 8.97586 5.0481C8.60288 4.70069 8.52016 3.99723 8.84389 3.52085C8.87735 3.47122 8.91269 3.42385 8.96383 3.39039C8.98676 3.37535 9.01045 3.36445 9.03902 3.36407C9.06008 3.36369 9.08339 3.38813 9.07361 3.40618C9.04579 3.45844 9.01759 3.51108 8.98638 3.56146C8.88148 3.72953 8.81118 3.91113 8.80178 4.10927C8.78335 4.49841 8.88562 4.83755 9.22889 5.06728C9.26348 5.09059 9.31424 5.11051 9.29507 5.16428C9.27815 5.21203 9.22664 5.2094 9.18415 5.21391C9.03827 5.22895 8.89239 5.22857 8.74651 5.21391C8.72207 5.21165 8.69236 5.19849 8.67657 5.23196C8.74312 5.44627 8.82809 5.59516 8.97285 5.74593C9.02173 5.79668 9.07098 5.84669 9.12249 5.89482C9.20859 5.97528 9.24431 6.07002 9.21649 6.18733C9.19543 6.27681 9.17851 6.36705 9.16046 6.45729C9.15294 6.49413 9.1458 6.53136 9.14166 6.56895C9.13941 6.59001 9.14129 6.61294 9.17062 6.61708C9.19618 6.62084 9.2116 6.60543 9.22137 6.58587C9.24092 6.54715 9.25709 6.50729 9.27589 6.46819C9.33191 6.35088 9.39169 6.23508 9.48005 6.13808C9.66616 5.93429 9.92221 5.94294 10.0959 6.15725C10.1579 6.23395 10.2027 6.32043 10.2309 6.41443C10.3027 6.65205 10.3136 6.89418 10.2632 7.13631C10.2087 7.39913 10.0831 7.62171 9.86393 7.78489C9.83836 7.80406 9.81092 7.82098 9.81017 7.86008C9.80603 8.12891 9.73309 8.3827 9.63834 8.6316C9.6327 8.64589 9.62969 8.66356 9.65338 8.68386C9.74362 8.65529 9.84551 8.63386 9.92785 8.5752C10.0688 8.47519 10.208 8.37067 10.3369 8.25562C10.5629 8.05371 10.7246 7.80632 10.8167 7.51531C10.8317 7.46793 10.849 7.42244 10.8129 7.3777L10.8216 7.38108L10.8167 7.37393ZM10.2832 10.1047C10.3384 10.0957 10.3756 10.09 10.4129 10.0836C10.6603 10.0397 10.9084 10.0393 11.1554 10.0818C11.5307 10.1461 11.8664 10.3028 12.1691 10.5318C12.4533 10.7469 12.6804 11.0135 12.8692 11.3139C13.1117 11.7 13.3072 12.1098 13.4677 12.5362C13.5403 12.7287 13.6038 12.9238 13.6531 13.1239C13.6685 13.1859 13.6569 13.2543 13.6967 13.3107C13.7734 13.3017 13.8054 13.2314 13.8591 13.1912C13.8719 13.1814 13.8824 13.1686 13.8941 13.1573C14.4712 12.5888 14.8822 11.9154 15.157 11.1563C15.4259 10.4145 15.5853 9.64939 15.6481 8.86321C15.6992 8.22028 15.7218 7.57734 15.6763 6.93291C15.6608 6.71672 15.6379 6.50128 15.5887 6.29035C15.5011 5.91662 15.4052 5.54478 15.2841 5.18045C15.1134 4.6661 14.91 4.1668 14.634 3.69757C14.2362 3.02117 13.7595 2.40832 13.1876 1.87066C12.9383 1.63643 12.6665 1.43302 12.359 1.27736C12.1074 1.1499 11.8469 1.04651 11.5848 0.943862C10.9987 0.714888 10.3869 0.606606 9.76317 0.579159C9.15783 0.552464 8.551 0.55284 7.94491 0.543065C7.70578 0.538929 7.46929 0.569759 7.23618 0.620141C6.55527 0.76715 5.90332 0.991237 5.29986 1.34541C5.18331 1.41384 5.06412 1.47814 4.94832 1.54769C4.47947 1.82893 4.00498 2.09888 3.51131 2.33463C3.33121 2.42073 3.15751 2.52224 2.98493 2.62301C2.57962 2.85912 2.21793 3.14976 1.91225 3.50732C1.67237 3.7878 1.4637 4.09047 1.28022 4.41043C1.07794 4.7631 0.90612 5.13006 0.753094 5.50642C0.544047 6.01927 0.392526 6.54828 0.298906 7.09383C0.265068 7.2916 0.252284 7.49124 0.230477 7.69014C0.179343 8.15824 0.212054 8.61919 0.330113 9.07451C0.448923 9.53133 0.622252 9.96822 0.81062 10.3999C0.899352 10.6033 0.989589 10.8059 1.10389 10.9965C1.35692 11.4188 1.61146 11.8406 1.863 12.2636C2.13972 12.7287 2.41306 13.1953 2.68903 13.6608C2.87778 13.9785 3.0981 14.2725 3.35941 14.5345C3.3846 14.5597 3.40378 14.597 3.45416 14.5932C3.55906 14.4522 3.65757 14.3037 3.73803 14.1439C3.86699 13.8879 3.98994 13.6288 4.09559 13.3619C4.28283 12.8885 4.50353 12.4309 4.72987 11.9752C4.85733 11.7188 4.97877 11.4586 5.09721 11.1977C5.26039 10.8382 5.33897 10.4593 5.34724 10.0645C5.35363 9.7667 5.37581 9.46967 5.41341 9.17452C5.43785 8.98089 5.48259 8.79139 5.54689 8.60679C5.57734 8.51956 5.61456 8.43571 5.67622 8.36503C5.69653 8.34172 5.72698 8.32367 5.72322 8.28081C5.68675 8.26314 5.64765 8.24509 5.60967 8.22479C5.27167 8.04394 5.11263 7.7533 5.10586 7.3777C5.10097 7.11263 5.26039 6.92576 5.52132 6.87576C5.59012 6.8626 5.66119 6.86147 5.73074 6.8532C5.77172 6.84831 5.81647 6.86034 5.85181 6.83064C5.8567 6.79304 5.83263 6.76823 5.81797 6.7404C5.64239 6.40014 5.62772 6.04634 5.7345 5.68426C5.79015 5.49477 5.91272 5.36618 6.10485 5.30828C6.12929 5.30076 6.15786 5.29738 6.16876 5.25828C6.07665 5.16428 5.9913 5.06051 5.93979 4.93267C5.88903 4.80747 5.88527 4.67362 5.877 4.54203C5.8379 4.54541 5.83526 4.56985 5.82624 4.58865C5.76872 4.70596 5.73413 4.83078 5.70405 4.95749C5.69014 5.01577 5.6593 5.04998 5.62584 5.04547C5.57584 5.03908 5.55403 5.00261 5.54237 4.95786C5.53824 4.94207 5.53598 4.92591 5.53185 4.91049C5.48485 4.73152 5.4653 4.54955 5.46605 4.36419C5.46868 3.85999 5.65442 3.43739 6.02514 3.09637C6.21275 2.92379 6.41127 2.76513 6.6331 2.63767C6.74552 2.573 6.85869 2.50946 6.96961 2.44216C7.31739 2.23085 7.69789 2.13573 8.10057 2.14851C8.76079 2.16995 9.3462 2.40306 9.85904 2.81626C10.0241 2.94936 10.1719 3.1005 10.255 3.30241C10.2617 3.31933 10.2756 3.32873 10.2929 3.32083C10.2997 3.31745 10.3053 3.30429 10.3057 3.29526C10.3125 3.07193 10.2677 2.86476 10.1121 2.69369C10.094 2.67376 10.0752 2.65384 10.0594 2.63203C10.0463 2.61398 10.0421 2.59217 10.0542 2.57112C10.0696 2.54367 10.0955 2.53653 10.1234 2.54405C10.1598 2.55345 10.1963 2.56473 10.2309 2.57902C10.3779 2.64105 10.505 2.73091 10.6106 2.85048C10.793 3.05727 10.8851 3.30053 10.9032 3.57387C10.9069 3.63064 10.8949 3.69005 10.9212 3.75321C11.0472 3.71637 11.1682 3.69042 11.2912 3.67388C11.4882 3.64756 11.6664 3.69118 11.8262 3.81149C11.927 3.88744 12.0119 3.97692 12.0826 4.08032C12.0976 4.1025 12.1112 4.12656 12.1217 4.151C12.1364 4.18484 12.1059 4.2356 12.0698 4.23447C12.0382 4.23334 12.0059 4.22545 11.9751 4.21718C11.8431 4.18108 11.7089 4.16792 11.5732 4.17732C11.528 4.18033 11.4615 4.15777 11.4453 4.21417C11.4337 4.2544 11.4931 4.27997 11.5231 4.31004C11.6724 4.46044 11.8153 4.61722 11.9044 4.81161C12.033 5.09209 12.1495 5.37709 12.1834 5.68878C12.2176 6.0031 12.2225 6.31629 12.1469 6.6246C11.9642 7.36867 11.5419 7.94506 10.9043 8.36428C10.5478 8.59889 10.1632 8.76658 9.73534 8.81997C9.68684 8.82598 9.63872 8.83125 9.59059 8.83914C9.55074 8.84554 9.52404 8.87674 9.52291 8.91735C9.52254 8.93878 9.52705 8.96021 9.5293 8.98164C9.54848 9.15835 9.62443 9.31288 9.71542 9.46177C9.73384 9.49185 9.75828 9.50727 9.79212 9.51479C9.87183 9.53283 9.94627 9.56404 10.017 9.60578C10.1719 9.69752 10.2636 9.82911 10.2768 10.0115C10.2779 10.0378 10.2798 10.0637 10.2832 10.1047ZM8.91006 15.4437C8.92397 15.4113 8.93525 15.3925 8.94014 15.3719C8.98864 15.1771 9.06008 14.9902 9.13264 14.8038C9.36274 14.2142 9.62368 13.6378 9.8801 13.0592C10.0049 12.7772 10.1331 12.4971 10.2779 12.2245C10.3745 12.0425 10.4817 11.8673 10.611 11.7064C10.6997 11.5966 10.7975 11.4962 10.9167 11.418C11.0453 11.3338 11.1851 11.3033 11.3348 11.3323C11.4746 11.3594 11.6025 11.4176 11.713 11.5094C11.7296 11.5229 11.7461 11.5383 11.7578 11.556C11.7657 11.568 11.7705 11.5898 11.7645 11.6004C11.7589 11.6098 11.7356 11.6162 11.7224 11.6132C11.6228 11.5895 11.5228 11.5658 11.4243 11.5372C11.2291 11.4804 11.0626 11.524 10.9178 11.6662C10.8129 11.7692 10.7227 11.8835 10.6422 12.0057C10.517 12.1959 10.4136 12.3982 10.3174 12.6042C10.0015 13.2806 9.70263 13.9642 9.41162 14.6515C9.31048 14.8902 9.21724 15.1327 9.14392 15.3824C9.10595 15.5121 9.06985 15.6422 9.06309 15.7787C9.06121 15.814 9.06008 15.8603 9.01082 15.867C8.96608 15.873 8.94465 15.8354 8.92585 15.8031C8.90705 15.7704 8.89352 15.7347 8.87735 15.7008C8.85893 15.6621 8.84389 15.6204 8.8202 15.585C8.64612 15.3252 8.54047 15.0369 8.46715 14.7357C8.36864 14.3304 8.31488 13.9172 8.27239 13.5028C8.23479 13.137 8.20509 12.7701 8.16636 12.4042C8.15433 12.2918 8.12989 12.1798 8.1017 12.07C8.0735 11.9598 8.00469 11.8775 7.89716 11.8327C7.71556 11.7572 7.72007 11.7463 7.65202 11.9252C7.58284 12.1072 7.52005 12.2914 7.45839 12.476C7.35161 12.7964 7.20159 13.0945 7.00909 13.372C6.87035 13.5724 6.71995 13.7638 6.57106 13.9563C6.52557 14.0153 6.44774 14.0646 6.44774 14.1401C6.44774 14.1988 6.497 14.2571 6.52444 14.3157C6.54475 14.3597 6.56392 14.4048 6.58498 14.4484C6.69965 14.6872 6.81169 14.9274 6.93088 15.1643C7.12526 15.5512 7.38244 15.8877 7.73661 16.1441C7.74113 16.1471 7.74564 16.1501 7.74902 16.1547C7.80843 16.2291 7.89077 16.2415 7.9795 16.249C8.60175 16.3024 9.19693 16.1926 9.77144 15.9561C9.85641 15.9212 9.94138 15.8836 10.0196 15.8366C10.993 15.2497 11.9567 14.6485 12.8726 13.974C13.0775 13.8232 13.279 13.6683 13.4831 13.5168C13.5268 13.4844 13.5426 13.4498 13.5369 13.3931C13.5256 13.2788 13.5008 13.1682 13.4647 13.0611C13.3136 12.6148 13.1327 12.1809 12.9109 11.7647C12.8068 11.5688 12.6962 11.3763 12.5642 11.1973C12.1435 10.6251 11.5867 10.2912 10.8734 10.2314C10.6843 10.2156 10.4948 10.2213 10.3057 10.2333C10.2659 10.2359 10.2343 10.2472 10.2162 10.2889C10.1459 10.4529 10.0662 10.613 10.0023 10.7796C9.90642 11.0296 9.85716 11.2887 9.88799 11.5586C9.90153 11.6778 9.93236 11.7925 9.97259 11.9045C10.0038 11.991 10.0384 12.076 10.0756 12.1602C10.1467 12.3208 10.0598 12.3756 9.94138 12.3662C9.88198 12.3614 9.8222 12.3621 9.76317 12.3538C9.42027 12.3061 9.08076 12.238 8.74312 12.1632C8.67996 12.1493 8.61341 12.1373 8.56227 12.0952C8.52129 12.0613 8.48821 12.0421 8.43256 12.0688C8.37391 12.097 8.32541 12.0279 8.25434 12.032C8.26863 12.1316 8.2863 12.2264 8.2957 12.3219C8.31976 12.5697 8.34007 12.8174 8.36225 13.0656C8.40023 13.4912 8.45061 13.9157 8.53069 14.3356C8.59348 14.6658 8.67432 14.9906 8.82095 15.2955C8.84351 15.344 8.85629 15.3986 8.91006 15.4437ZM6.17666 8.34623C6.09958 8.34247 6.02438 8.34059 5.94919 8.3342C5.89993 8.33006 5.8676 8.35262 5.83752 8.38646C5.77511 8.45639 5.73225 8.53685 5.70405 8.62559C5.63975 8.82711 5.59802 9.03353 5.57208 9.24333C5.53636 9.53359 5.52282 9.82573 5.51117 10.1175C5.49538 10.5119 5.4074 10.8879 5.24685 11.2477C5.10586 11.5639 4.94907 11.8726 4.78965 12.1798C4.58813 12.5689 4.39863 12.9633 4.23169 13.369C4.05461 13.7991 3.87038 14.2262 3.62636 14.6244C3.60719 14.656 3.59064 14.6895 3.57485 14.7192C3.59365 14.7673 3.63238 14.7898 3.66471 14.818C3.85346 14.9823 4.06137 15.1181 4.27945 15.2391C4.64979 15.4444 5.04344 15.5948 5.44311 15.7305C5.45552 15.7347 5.46417 15.7328 5.48748 15.6937C5.51154 15.5708 5.55628 15.4211 5.57245 15.2647C5.59652 15.0278 5.62246 14.7913 5.6484 14.5548C5.68638 14.2108 5.72661 13.8668 5.76345 13.5228C5.80143 13.1678 5.83414 12.8122 5.87324 12.4572C5.92324 12 5.97626 11.5436 6.03002 11.0868C6.07514 10.7025 6.16087 10.3341 6.3842 10.0039C6.56054 9.74263 6.54813 9.73436 6.54437 9.41214C6.544 9.39598 6.54362 9.37981 6.54399 9.36327C6.5455 9.30875 6.54399 9.25536 6.5094 9.20836C6.49549 9.18956 6.4985 9.16738 6.51128 9.14783C6.52896 9.12113 6.5564 9.12 6.58347 9.1264C6.64664 9.14181 6.7083 9.16249 6.76206 9.20084C6.77861 9.2125 6.80042 9.22866 6.78838 9.2531C6.78274 9.26438 6.76432 9.27077 6.75041 9.27528C6.68499 9.29709 6.68386 9.29672 6.69514 9.3565C6.71657 9.46892 6.71958 9.58209 6.71394 9.69601C6.71206 9.73361 6.71018 9.77158 6.71319 9.80918C6.71432 9.82234 6.72747 9.84415 6.73838 9.84603C6.83801 9.86483 6.93126 9.91671 7.03916 9.8934C7.13617 9.87272 7.2343 9.88175 7.32566 9.92198C7.41628 9.96183 7.49937 9.95958 7.5881 9.9107C7.67458 9.86332 7.76556 9.87122 7.84903 9.9295C7.86219 9.9389 7.87573 9.94792 7.88889 9.9577C7.92649 9.98589 7.96672 9.99191 8.01146 9.97725C8.07312 9.95694 8.13741 9.94341 8.19682 9.91822C8.45211 9.80956 8.69049 9.67157 8.90066 9.48922C9.09053 9.32454 9.24807 9.13279 9.36387 8.90908C9.50148 8.64326 9.59736 8.3624 9.65639 8.0695C9.66503 8.02739 9.66729 7.98378 9.66992 7.94054C9.6718 7.91084 9.66052 7.88828 9.62556 7.88678C9.59322 7.88565 9.56051 7.88565 9.52855 7.88114C9.47103 7.87362 9.43042 7.83978 9.40185 7.79052C9.38267 7.75744 9.39583 7.72022 9.43117 7.7157C9.46313 7.71157 9.49584 7.70969 9.5278 7.71006C9.64285 7.71119 9.73685 7.66344 9.81881 7.58674C9.9113 7.49989 9.97898 7.39762 10.0245 7.27956C10.1132 7.04946 10.1087 6.81372 10.0715 6.57572C10.0583 6.49 10.0361 6.40578 9.99365 6.32945C9.96996 6.28734 9.94552 6.24373 9.91281 6.20876C9.8316 6.12191 9.73421 6.11213 9.63496 6.17605C9.5842 6.20876 9.54509 6.25388 9.51013 6.30238C9.43606 6.4039 9.38154 6.51557 9.34056 6.63325C9.23153 6.94494 9.14167 7.26189 9.08151 7.58674C9.06684 7.66645 9.05293 7.74691 9.02925 7.82399C8.98939 7.95483 8.89465 7.97589 8.79802 7.88076C8.7702 7.85332 8.75403 7.81985 8.74275 7.783C8.72808 7.73488 8.72996 7.68675 8.73711 7.63825C8.7544 7.52057 8.77207 7.40138 8.81982 7.29197C8.87096 7.17466 8.88336 7.05322 8.88374 6.92802C8.88412 6.8062 8.88261 6.80319 8.75515 6.81485C8.66905 6.82274 8.58295 6.8329 8.49685 6.84154C8.27615 6.86373 8.05545 6.88591 7.83324 6.88666C7.80204 6.88666 7.78361 6.90245 7.77722 6.93253C7.76707 6.98028 7.75729 7.02803 7.74601 7.0754C7.71217 7.21865 7.65991 7.35438 7.57983 7.47846C7.52682 7.5608 7.46365 7.63449 7.38169 7.69051C7.20573 7.8112 7.02826 7.81121 6.8523 7.69089C6.79365 7.65066 6.74439 7.60103 6.70078 7.54538C6.63385 7.45928 6.5831 7.36416 6.5455 7.26189C6.48083 7.08781 6.44661 6.90809 6.44586 6.72236C6.44549 6.65957 6.44586 6.59678 6.44586 6.52534C6.39736 6.55354 6.3921 6.59151 6.37894 6.62535C6.36503 6.66069 6.35112 6.69566 6.33495 6.73025C6.31652 6.76935 6.29547 6.80733 6.27667 6.84605C6.26125 6.87801 6.21726 6.89418 6.22403 6.93779C6.25787 6.98254 6.31577 7.00058 6.33795 7.05322C6.34171 7.06262 6.34359 7.07503 6.34059 7.08443C6.33532 7.10097 6.32066 7.10736 6.30336 7.10774C6.26953 7.10849 6.23907 7.09721 6.212 7.07879C6.10973 7.0081 5.99656 6.98178 5.87362 6.99081C5.84692 6.99269 5.81947 6.9878 5.79278 6.98479C5.71645 6.97652 5.64126 6.98667 5.56719 7.00284C5.35062 7.04946 5.23519 7.20587 5.25211 7.42657C5.28257 7.82211 5.56794 8.12478 5.96235 8.17666C6.29171 8.2199 6.58422 8.13906 6.83237 7.91197C6.86245 7.88452 6.88915 7.84128 6.94066 7.85632C6.96886 7.86459 6.95645 7.92964 6.91283 7.98528C6.88952 8.01499 6.86208 8.04168 6.83388 8.0665C6.73951 8.14921 6.6331 8.21313 6.51768 8.26163C6.48797 8.27404 6.45714 8.28494 6.42781 8.29848C6.40676 8.30826 6.39548 8.32517 6.39811 8.34999C6.41917 8.5455 6.50301 8.70078 6.68537 8.79064C6.73875 8.81696 6.79327 8.84065 6.84854 8.86283C6.94893 8.90306 7.01849 8.976 7.07263 9.06624C7.08579 9.08805 7.10308 9.11399 7.07902 9.1388C7.06172 9.15647 7.03841 9.15046 7.01811 9.14294C6.90231 9.0982 6.78312 9.05985 6.6722 9.0057C6.47256 8.90833 6.30825 8.77109 6.23418 8.55077C6.21388 8.48873 6.19922 8.42556 6.17666 8.34623ZM8.08402 10.395C8.02913 10.4168 7.97875 10.4352 7.92949 10.457C7.73511 10.5423 7.53321 10.5987 7.32303 10.6288C7.19294 10.6472 7.06285 10.6476 6.93727 10.6081C6.74026 10.5461 6.56956 10.4495 6.5 10.2355C6.49812 10.2299 6.48233 10.2288 6.4688 10.2239C6.41315 10.3032 6.37781 10.3931 6.34623 10.4848C6.28607 10.6593 6.24809 10.8386 6.22027 11.0206C6.16575 11.3785 6.11725 11.7376 6.08003 12.0978C6.04394 12.4475 6.00258 12.7964 5.9646 13.1457C5.92212 13.5378 5.88038 13.9303 5.83903 14.3229C5.8285 14.424 5.81947 14.5251 5.8097 14.624C5.83451 14.6285 5.84655 14.6165 5.85557 14.603C6.04732 14.3142 6.27253 14.051 6.48271 13.7758C6.60754 13.6126 6.73011 13.4476 6.84967 13.2806C7.03353 13.0238 7.17113 12.7437 7.27378 12.4448C7.35574 12.2057 7.42605 11.9609 7.57118 11.7526C7.5599 11.7372 7.55614 11.7248 7.54787 11.7211C7.502 11.7008 7.45989 11.6782 7.45199 11.6214C7.44485 11.5684 7.46929 11.5274 7.50125 11.4891C7.51516 11.4725 7.52945 11.4564 7.54411 11.4402C7.73022 11.2364 7.90581 11.0236 8.07688 10.807C8.11974 10.7525 8.19306 10.7089 8.19795 10.6405C8.20321 10.5668 8.14493 10.5021 8.11335 10.4341C8.10884 10.4254 8.10057 10.4175 8.08402 10.395ZM6.56242 5.95685C6.60378 5.95535 6.60791 5.93166 6.61957 5.91474C6.66581 5.84819 6.7083 5.77826 6.76094 5.71735C6.95306 5.49439 7.23167 5.48086 7.44748 5.68051C7.51967 5.74743 7.57532 5.82676 7.62119 5.91324C7.71067 6.08281 7.76143 6.26403 7.77985 6.4539C7.78812 6.54 7.78812 6.62648 7.79301 6.71296C7.79564 6.76108 7.81031 6.77612 7.85016 6.76935C8.1329 6.72123 8.41865 6.69942 8.70365 6.67273C8.76756 6.66671 8.84464 6.67047 8.89126 6.63625C8.94615 6.59602 8.93563 6.5088 8.95104 6.4415C8.9642 6.38359 8.97435 6.32494 8.9845 6.26666C9.0033 6.15613 8.97022 6.06589 8.88261 5.99332C8.8202 5.94181 8.76004 5.88692 8.7044 5.82827C8.56942 5.68577 8.49347 5.51582 8.48407 5.31843C8.48181 5.27557 8.48745 5.23233 8.48971 5.18909C8.49084 5.16541 8.48106 5.14698 8.46113 5.1357C8.43782 5.12255 8.41301 5.11127 8.38895 5.09923C8.1329 4.97478 7.93739 4.78717 7.80166 4.53676C7.79151 4.51796 7.78098 4.49916 7.76932 4.48112C7.76669 4.47736 7.7588 4.47322 7.75541 4.47473C7.74639 4.47849 7.73436 4.483 7.73173 4.49052C7.72609 4.50518 7.72383 4.5221 7.72346 4.53789C7.7133 4.95937 7.81745 5.34062 8.11749 5.65268C8.15095 5.68765 8.18328 5.72449 8.21261 5.76285C8.23329 5.79029 8.23742 5.82225 8.21637 5.85308C8.19682 5.88241 8.16824 5.8997 8.13403 5.89444C8.09192 5.88805 8.04943 5.87715 8.0092 5.86248C7.76594 5.77262 7.5584 5.63088 7.39033 5.43236C7.17414 5.17669 7.02412 4.88605 6.93539 4.56346C6.9305 4.54541 6.93539 4.51759 6.89065 4.5206C6.88501 4.6003 6.89441 4.67888 6.91396 4.75747C6.92299 4.79356 6.91095 4.82589 6.87448 4.83454C6.80869 4.85071 6.77823 4.89658 6.75229 4.9526C6.70266 5.06126 6.66281 5.17218 6.63949 5.28986C6.5955 5.50793 6.57483 5.72788 6.56242 5.95685ZM9.80678 9.67796C9.797 9.69601 9.78497 9.71443 9.77745 9.73398C9.5763 10.2528 9.28755 10.7206 8.94991 11.1605C8.9236 11.1947 8.89916 11.2293 8.88299 11.2706C8.82772 11.4116 8.76944 11.5511 8.71079 11.6906C8.68146 11.7605 8.65477 11.8312 8.64349 11.9068C8.63672 11.9523 8.65213 11.9816 8.69312 11.9963C8.71831 12.0053 8.74538 12.0102 8.7717 12.0162C9.09316 12.0907 9.41726 12.1512 9.74362 12.1993C9.7955 12.2068 9.85002 12.2219 9.90416 12.1971C9.90905 12.1335 9.8722 12.0828 9.85002 12.0294C9.70263 11.6763 9.68271 11.318 9.79099 10.9503C9.83536 10.7991 9.89438 10.6544 9.96206 10.513C10.0155 10.4006 10.0696 10.2886 10.1049 10.169C10.161 9.97687 10.1113 9.84528 9.94176 9.73925C9.9004 9.71331 9.86055 9.68398 9.80678 9.67796ZM7.46929 16.1956C7.46177 16.1486 7.43507 16.1374 7.41665 16.1189C7.17226 15.873 6.94367 15.6147 6.78575 15.3019C6.74928 15.2297 6.71131 15.1579 6.67634 15.085C6.55941 14.8417 6.43345 14.6026 6.34773 14.3458C6.33382 14.3044 6.30524 14.2999 6.27705 14.3334C6.13756 14.4988 6.01348 14.6752 5.9067 14.8639C5.74917 15.1429 5.69916 15.4516 5.64953 15.761C5.64539 15.7858 5.65968 15.8016 5.68111 15.8106C5.70593 15.8212 5.73112 15.8313 5.75669 15.84C6.18192 15.9832 6.61543 16.0949 7.06022 16.1577C7.19257 16.1768 7.32529 16.2092 7.46929 16.1956ZM7.65202 6.6731C7.65202 6.62986 7.65427 6.58625 7.65164 6.54339C7.63999 6.35803 7.59976 6.17981 7.5193 6.01175C7.46967 5.90835 7.4065 5.81436 7.31288 5.7448C7.18091 5.64704 7.0418 5.64629 6.90682 5.74029C6.81545 5.80383 6.75079 5.8888 6.70792 5.99107C6.52482 6.42721 6.5267 6.86373 6.70943 7.29949C6.74928 7.39499 6.80681 7.48071 6.88464 7.55065C7.03992 7.68976 7.21061 7.68751 7.36289 7.54426C7.45162 7.46079 7.5099 7.35739 7.55276 7.24535C7.62269 7.06112 7.65879 6.87049 7.65202 6.6731ZM9.35522 9.2031C9.07098 9.67383 8.68297 10.0415 8.20923 10.3262C8.26299 10.4217 8.31638 10.5085 8.36187 10.5991C8.45173 10.7773 8.53708 10.9582 8.62619 11.1368C8.64161 11.1676 8.64499 11.2112 8.71455 11.2236C8.71906 11.2154 8.72658 11.1936 8.74087 11.1778C8.88675 11.0172 9.01157 10.8409 9.13001 10.66C9.32552 10.3611 9.4981 10.0502 9.64285 9.72308C9.66278 9.67796 9.66353 9.6445 9.62856 9.60653C9.52479 9.49486 9.44095 9.37003 9.38793 9.22565C9.3853 9.21851 9.37177 9.21438 9.35522 9.2031ZM8.2472 10.7683C8.18291 10.8898 8.1126 11.0104 8.02838 11.1225C7.92724 11.2567 7.81482 11.3812 7.70052 11.5041C7.68059 11.5255 7.64563 11.5421 7.65954 11.5827C7.68774 11.6132 7.72797 11.6124 7.76331 11.6241C7.8558 11.6541 7.95281 11.6771 8.03176 11.7353C8.13741 11.8135 8.25961 11.8587 8.37203 11.923C8.42993 11.956 8.47655 11.9357 8.4946 11.8688C8.52017 11.7744 8.54724 11.6805 8.59423 11.5951C8.63334 11.5244 8.62243 11.4635 8.58859 11.397C8.49084 11.2041 8.39571 11.0097 8.29984 10.8161C8.29006 10.7958 8.27878 10.7777 8.2472 10.7683ZM6.31088 6.20763C6.27968 6.21403 6.27554 6.24561 6.2575 6.26403C6.17478 6.34788 6.06988 6.32945 6.02626 6.22079C6.01423 6.19109 6.01311 6.15763 6.00521 6.12604C6.0007 6.10837 5.98641 6.10198 5.96874 6.10725C5.94844 6.11326 5.92851 6.12191 5.90745 6.12529C5.89918 6.1268 5.88602 6.12003 5.88038 6.11289C5.87474 6.10574 5.87061 6.08995 5.87474 6.08393C5.9428 5.9858 6.02589 5.91437 6.15711 5.93429C6.21275 5.94294 6.25825 5.97001 6.29998 6.00611C6.31577 6.01964 6.32931 6.04107 6.35375 6.03243C6.38608 6.02077 6.38232 5.98881 6.38307 5.96362C6.38646 5.84481 6.38683 5.72562 6.38946 5.60644C6.3921 5.48161 6.35826 5.44213 6.23644 5.43386C6.16952 5.42935 6.10785 5.44664 6.05108 5.48199C5.95934 5.53876 5.90219 5.62185 5.8691 5.72262C5.83827 5.81586 5.82587 5.91249 5.81722 6.00949C5.79466 6.26516 5.85068 6.50391 5.97588 6.72687C5.99167 6.75507 6.01235 6.78063 6.03303 6.80545C6.06499 6.8438 6.09281 6.84117 6.12327 6.79943C6.20862 6.68325 6.31088 6.36104 6.31088 6.20763ZM9.09091 6.88027C9.09655 6.88365 9.10181 6.88704 9.10745 6.8908C9.11873 6.86861 9.13151 6.84718 9.14054 6.82425C9.14317 6.8171 9.13565 6.8062 9.13302 6.7968C9.12587 6.80056 9.11497 6.80282 9.11272 6.80846C9.10407 6.83177 9.09805 6.8562 9.09091 6.88027Z" fill="#332B22"/>
<path d="M9.62857 15.2173C9.61052 15.2162 9.60375 15.2004 9.60037 15.185C9.59022 15.1406 9.60225 15.0997 9.62142 15.0598C9.65865 14.982 9.69662 14.9041 9.73309 14.8256C9.97146 14.3161 10.2189 13.8112 10.4884 13.3171C10.5866 13.137 10.6971 12.9629 10.8061 12.7889C10.905 12.6313 11.0317 12.4986 11.1836 12.3911C11.2231 12.3633 11.2618 12.3313 11.3141 12.332C11.3239 12.332 11.337 12.3366 11.3423 12.3433C11.3472 12.3497 11.3472 12.3655 11.3427 12.3723C11.3212 12.4035 11.2998 12.4347 11.2746 12.4629C11.0054 12.7641 10.808 13.1126 10.6178 13.4649C10.3527 13.9548 10.1049 14.4537 9.86619 14.9572C9.8316 15.0305 9.79926 15.1053 9.74324 15.1662C9.70527 15.2076 9.6703 15.2226 9.62857 15.2173Z" fill="#332B22"/>
<path d="M9.9194 6.95504C9.91112 7.05467 9.88932 7.14905 9.83931 7.23477C9.80585 7.2923 9.75998 7.33741 9.69531 7.35884C9.68177 7.36336 9.66072 7.36223 9.65019 7.35433C9.64004 7.34644 9.63215 7.32388 9.63628 7.3126C9.65245 7.2671 9.67238 7.22274 9.69268 7.17875C9.75321 7.04791 9.75697 6.91894 9.68478 6.79036C9.6611 6.74825 9.63026 6.70839 9.62801 6.65763C9.62688 6.6347 9.63778 6.61703 9.66485 6.61402C9.71148 6.60913 9.74908 6.62906 9.78367 6.65688C9.87917 6.73321 9.91376 6.83848 9.9194 6.95504Z" fill="#332B22"/>
<path d="M11.2212 5.31777C11.2193 5.71669 11.0851 6.06861 10.8354 6.3773C10.7704 6.45776 10.6963 6.52957 10.5952 6.56416C10.5753 6.57093 10.5531 6.57506 10.5324 6.57394C10.5166 6.57318 10.5031 6.55815 10.5057 6.54047C10.508 6.52506 10.5143 6.50889 10.523 6.49648C10.5542 6.45249 10.5888 6.41076 10.62 6.36639C10.9776 5.85806 11.0915 5.30762 10.9076 4.70567C10.8948 4.66432 10.8828 4.62258 10.8749 4.58047C10.87 4.5534 10.8779 4.52633 10.9027 4.50903C10.9339 4.48685 10.9659 4.49625 10.9934 4.5143C11.0498 4.55152 11.0821 4.60829 11.1065 4.6692C11.1697 4.82561 11.211 4.98766 11.2208 5.15648C11.2238 5.20949 11.2212 5.26401 11.2212 5.31777Z" fill="#332B22"/>
<path d="M9.04504 4.18982C9.05105 3.87098 9.10331 3.63073 9.23679 3.41228C9.26461 3.36641 9.2977 3.3228 9.33379 3.28332C9.35861 3.25625 9.39019 3.23031 9.43343 3.24798C9.462 3.26001 9.47554 3.29761 9.462 3.34836C9.44245 3.4213 9.41914 3.49349 9.39508 3.56531C9.34357 3.71984 9.31123 3.87737 9.29995 4.04055C9.27965 4.33382 9.37064 4.59437 9.52028 4.83952C9.54848 4.88539 9.57856 4.9305 9.60412 4.97788C9.61014 4.98878 9.6045 5.00908 9.59849 5.02262C9.59097 5.03954 9.57216 5.0418 9.55637 5.03766C9.41839 5.00232 9.31387 4.92035 9.24092 4.80041C9.11422 4.59249 9.03676 4.37066 9.04504 4.18982Z" fill="#332B22"/>
<path d="M11.667 6.03714C11.6666 5.83035 11.6478 5.64236 11.6008 5.45812C11.5888 5.41113 11.5786 5.36338 11.5685 5.31563C11.5636 5.29344 11.5666 5.27089 11.5873 5.25885C11.6166 5.24156 11.6407 5.25961 11.6561 5.28179C11.6805 5.31713 11.7027 5.35435 11.7215 5.39308C11.7621 5.47617 11.788 5.5649 11.8027 5.65552C11.8493 5.94202 11.8347 6.22701 11.7677 6.509C11.7264 6.68233 11.6392 6.82934 11.5008 6.94364C11.4816 6.95943 11.4594 6.98537 11.4324 6.96168C11.4124 6.94439 11.4286 6.92183 11.4376 6.90303C11.4444 6.88837 11.4519 6.8737 11.4606 6.86017C11.5876 6.65789 11.6418 6.43418 11.6549 6.19844C11.6587 6.13903 11.6636 6.08 11.667 6.03714Z" fill="#332B22"/>
<path d="M7.35528 3.40714C7.3519 3.24734 7.38461 3.09093 7.45417 2.94167C7.51207 2.81684 7.59666 2.7142 7.70683 2.63186C7.74593 2.60253 7.78729 2.57772 7.83541 2.56681C7.84368 2.56493 7.85797 2.56982 7.86286 2.57621C7.86737 2.5826 7.86662 2.59764 7.86211 2.60479C7.8324 2.64991 7.80308 2.69502 7.76999 2.73751C7.57185 2.9913 7.49477 3.28156 7.50906 3.59964C7.51357 3.69664 7.51996 3.79327 7.5241 3.89028C7.52485 3.91133 7.52109 3.93276 7.51808 3.95382C7.51771 3.9572 7.51132 3.96284 7.50793 3.96246C7.49853 3.96171 7.48575 3.96171 7.48049 3.9557C7.46996 3.94404 7.46169 3.92975 7.45605 3.91509C7.40529 3.78876 7.34701 3.58272 7.35528 3.40714Z" fill="#332B22"/>
<path d="M6.94741 6.22274C7.16097 6.22462 7.36626 6.36523 7.44334 6.55398C7.45838 6.59082 7.46101 6.62804 7.42905 6.65888C7.39747 6.68933 7.361 6.68632 7.32377 6.67128C7.31889 6.6694 7.31362 6.66677 7.30986 6.66301C7.25309 6.60511 7.21173 6.61075 7.15233 6.67279C7.07562 6.75362 6.98163 6.73069 6.92711 6.63218C6.90906 6.59947 6.88575 6.56112 6.88876 6.52728C6.89628 6.44569 6.88726 6.38478 6.79664 6.35621C6.76769 6.34681 6.77183 6.29605 6.79589 6.27199C6.84327 6.22574 6.90192 6.22198 6.94741 6.22274Z" fill="#332B22"/>
</svg>
