<svg width="193" height="64" viewBox="0 0 193 64" fill="none" xmlns="http://www.w3.org/2000/svg">
<path d="M20.396 60.377L23.48 51.977H24.056L27.104 60.377H26.528L23.756 52.673L20.96 60.377H20.396ZM21.704 57.713L21.884 57.257H25.628L25.808 57.713H21.704ZM31.4357 60.377V51.977H32.0597L35.3237 58.505L38.5877 51.977H39.2237V60.377H38.6837V52.985L35.5517 59.201H35.0957L31.9757 53.009V60.377H31.4357ZM43.6125 60.521C43.0605 60.521 42.5645 60.393 42.1245 60.137C41.6925 59.881 41.3485 59.517 41.0925 59.045C40.8445 58.565 40.7205 58.005 40.7205 57.365C40.7205 56.701 40.8485 56.133 41.1045 55.661C41.3605 55.189 41.7085 54.825 42.1485 54.569C42.5885 54.313 43.0845 54.185 43.6365 54.185C44.1965 54.185 44.6925 54.313 45.1245 54.569C45.5645 54.825 45.9085 55.189 46.1565 55.661C46.4125 56.133 46.5405 56.701 46.5405 57.365C46.5405 58.005 46.4125 58.565 46.1565 59.045C45.9005 59.517 45.5525 59.881 45.1125 60.137C44.6725 60.393 44.1725 60.521 43.6125 60.521ZM43.6125 60.041C44.0285 60.041 44.4125 59.941 44.7645 59.741C45.1245 59.541 45.4165 59.241 45.6405 58.841C45.8645 58.441 45.9765 57.945 45.9765 57.353C45.9765 56.761 45.8645 56.265 45.6405 55.865C45.4245 55.465 45.1365 55.169 44.7765 54.977C44.4245 54.777 44.0445 54.677 43.6365 54.677C43.2285 54.677 42.8445 54.777 42.4845 54.977C42.1245 55.177 41.8325 55.477 41.6085 55.877C41.3925 56.269 41.2845 56.761 41.2845 57.353C41.2845 57.945 41.3925 58.441 41.6085 58.841C41.8325 59.241 42.1205 59.541 42.4725 59.741C42.8245 59.941 43.2045 60.041 43.6125 60.041ZM47.9692 60.377V54.329H48.4492L48.5092 55.553C48.6452 55.233 48.8212 54.973 49.0372 54.773C49.2612 54.573 49.5252 54.425 49.8292 54.329C50.1332 54.233 50.4772 54.185 50.8612 54.185V54.737H50.6452C50.4052 54.737 50.1572 54.769 49.9012 54.833C49.6532 54.897 49.4212 55.013 49.2052 55.181C48.9972 55.341 48.8292 55.573 48.7012 55.877C48.5732 56.181 48.5092 56.569 48.5092 57.041V60.377H47.9692ZM52.0239 63.017V54.329H52.5039L52.5639 55.841C52.6839 55.537 52.8559 55.261 53.0799 55.013C53.3039 54.765 53.5759 54.565 53.8959 54.413C54.2239 54.261 54.5919 54.185 54.9999 54.185C55.5839 54.185 56.0879 54.325 56.5119 54.605C56.9439 54.877 57.2759 55.253 57.5079 55.733C57.7399 56.205 57.8559 56.749 57.8559 57.365C57.8559 57.973 57.7399 58.517 57.5079 58.997C57.2759 59.469 56.9439 59.841 56.5119 60.113C56.0879 60.385 55.5799 60.521 54.9879 60.521C54.4119 60.521 53.9119 60.373 53.4879 60.077C53.0639 59.781 52.7559 59.369 52.5639 58.841V63.017H52.0239ZM54.9639 60.029C55.4199 60.029 55.8199 59.921 56.1639 59.705C56.5159 59.489 56.7919 59.181 56.9919 58.781C57.1919 58.381 57.2919 57.905 57.2919 57.353C57.2919 56.809 57.1919 56.337 56.9919 55.937C56.7919 55.537 56.5159 55.229 56.1639 55.013C55.8199 54.789 55.4199 54.677 54.9639 54.677C54.5079 54.677 54.1039 54.793 53.7519 55.025C53.3999 55.249 53.1239 55.565 52.9239 55.973C52.7319 56.373 52.6359 56.833 52.6359 57.353C52.6359 57.881 52.7319 58.349 52.9239 58.757C53.1239 59.157 53.3999 59.469 53.7519 59.693C54.1039 59.917 54.5079 60.029 54.9639 60.029ZM59.2895 60.377V51.737H59.8295V55.589C60.0295 55.141 60.3215 54.797 60.7055 54.557C61.0975 54.309 61.5135 54.185 61.9535 54.185C62.3935 54.185 62.7815 54.273 63.1175 54.449C63.4535 54.625 63.7135 54.897 63.8975 55.265C64.0895 55.633 64.1855 56.105 64.1855 56.681V60.377H63.6575V56.765C63.6575 56.053 63.5055 55.529 63.2015 55.193C62.8975 54.849 62.4615 54.677 61.8935 54.677C61.5015 54.677 61.1495 54.777 60.8375 54.977C60.5255 55.169 60.2775 55.449 60.0935 55.817C59.9175 56.177 59.8295 56.621 59.8295 57.149V60.377H59.2895ZM65.7583 60.377V51.737H66.2983V60.377H65.7583ZM68.0568 60.377V54.329H68.5968V60.377H68.0568ZM68.3328 52.733C68.2208 52.733 68.1208 52.693 68.0328 52.613C67.9528 52.525 67.9128 52.421 67.9128 52.301C67.9128 52.181 67.9528 52.085 68.0328 52.013C68.1208 51.933 68.2208 51.893 68.3328 51.893C68.4448 51.893 68.5408 51.933 68.6208 52.013C68.7088 52.085 68.7528 52.181 68.7528 52.301C68.7528 52.421 68.7088 52.525 68.6208 52.613C68.5408 52.693 68.4448 52.733 68.3328 52.733ZM70.3754 60.377V54.329H70.8554L70.9034 55.553C71.1114 55.097 71.3994 54.757 71.7674 54.533C72.1434 54.301 72.5594 54.185 73.0154 54.185C73.4554 54.185 73.8434 54.273 74.1794 54.449C74.5154 54.625 74.7794 54.897 74.9714 55.265C75.1634 55.625 75.2594 56.093 75.2594 56.669V60.377H74.7194V56.753C74.7194 56.041 74.5674 55.517 74.2634 55.181C73.9594 54.845 73.5194 54.677 72.9434 54.677C72.5594 54.677 72.2114 54.773 71.8994 54.965C71.5954 55.149 71.3554 55.421 71.1794 55.781C71.0034 56.141 70.9154 56.585 70.9154 57.113V60.377H70.3754ZM79.3165 60.521C78.7485 60.521 78.2565 60.389 77.8405 60.125C77.4325 59.861 77.1165 59.489 76.8925 59.009C76.6685 58.529 76.5565 57.965 76.5565 57.317C76.5565 56.661 76.6725 56.101 76.9045 55.637C77.1445 55.173 77.4725 54.817 77.8885 54.569C78.3125 54.313 78.7965 54.185 79.3405 54.185C79.9245 54.185 80.4125 54.317 80.8045 54.581C81.1965 54.837 81.4925 55.177 81.6925 55.601C81.8925 56.025 81.9925 56.489 81.9925 56.993C81.9925 57.073 81.9925 57.149 81.9925 57.221C81.9925 57.293 81.9885 57.377 81.9805 57.473H76.9405V57.005H81.4645C81.4565 56.229 81.2525 55.645 80.8525 55.253C80.4525 54.861 79.9405 54.665 79.3165 54.665C78.9325 54.665 78.5725 54.753 78.2365 54.929C77.9005 55.105 77.6245 55.377 77.4085 55.745C77.2005 56.113 77.0965 56.581 77.0965 57.149V57.365C77.0965 57.973 77.2005 58.477 77.4085 58.877C77.6165 59.269 77.8885 59.561 78.2245 59.753C78.5605 59.945 78.9245 60.041 79.3165 60.041C79.8205 60.041 80.2365 59.925 80.5645 59.693C80.8925 59.453 81.1325 59.117 81.2845 58.685H81.8245C81.7205 59.037 81.5565 59.353 81.3325 59.633C81.1165 59.913 80.8405 60.133 80.5045 60.293C80.1685 60.445 79.7725 60.521 79.3165 60.521ZM88.9758 60.521C88.3278 60.521 87.7838 60.405 87.3438 60.173C86.9118 59.941 86.5838 59.625 86.3598 59.225C86.1438 58.817 86.0398 58.361 86.0478 57.857H86.6118C86.6118 58.249 86.6918 58.613 86.8518 58.949C87.0198 59.277 87.2758 59.541 87.6198 59.741C87.9718 59.941 88.4198 60.041 88.9638 60.041C89.4598 60.041 89.8638 59.961 90.1758 59.801C90.4958 59.641 90.7358 59.425 90.8958 59.153C91.0558 58.881 91.1358 58.577 91.1358 58.241C91.1358 57.833 91.0438 57.509 90.8598 57.269C90.6838 57.021 90.4478 56.821 90.1518 56.669C89.8638 56.517 89.5398 56.389 89.1798 56.285C88.8278 56.173 88.4798 56.053 88.1358 55.925C87.5758 55.725 87.1478 55.473 86.8518 55.169C86.5558 54.857 86.4078 54.445 86.4078 53.933C86.4078 53.541 86.4998 53.189 86.6838 52.877C86.8758 52.557 87.1558 52.305 87.5238 52.121C87.8918 51.929 88.3398 51.833 88.8678 51.833C89.3558 51.833 89.7878 51.921 90.1638 52.097C90.5398 52.273 90.8358 52.529 91.0518 52.865C91.2678 53.193 91.3758 53.601 91.3758 54.089H90.7998C90.7998 53.713 90.7198 53.393 90.5598 53.129C90.4078 52.865 90.1838 52.665 89.8878 52.529C89.5998 52.385 89.2558 52.313 88.8558 52.313C88.4318 52.313 88.0798 52.385 87.7998 52.529C87.5198 52.665 87.3118 52.853 87.1758 53.093C87.0398 53.325 86.9718 53.593 86.9718 53.897C86.9718 54.241 87.0558 54.517 87.2238 54.725C87.3918 54.933 87.6158 55.105 87.8958 55.241C88.1838 55.369 88.5038 55.489 88.8558 55.601C89.2078 55.713 89.5678 55.841 89.9358 55.985C90.2718 56.121 90.5718 56.281 90.8358 56.465C91.1078 56.649 91.3198 56.881 91.4718 57.161C91.6318 57.441 91.7118 57.793 91.7118 58.217C91.7118 58.633 91.6118 59.017 91.4118 59.369C91.2118 59.713 90.9078 59.993 90.4998 60.209C90.0998 60.417 89.5918 60.521 88.9758 60.521ZM95.2101 60.377C94.8901 60.377 94.6181 60.329 94.3941 60.233C94.1781 60.137 94.0101 59.973 93.8901 59.741C93.7781 59.501 93.7221 59.181 93.7221 58.781V54.797H92.6661V54.329H93.7221L93.8061 53.009H94.2621V54.329H96.1581V54.797H94.2621V58.769C94.2621 59.193 94.3461 59.489 94.5141 59.657C94.6821 59.825 94.9661 59.909 95.3661 59.909H96.0381V60.377H95.2101ZM99.5578 60.521C99.1258 60.521 98.7378 60.437 98.3938 60.269C98.0578 60.093 97.7938 59.825 97.6018 59.465C97.4098 59.097 97.3138 58.621 97.3138 58.037V54.329H97.8538V57.965C97.8538 58.669 98.0058 59.189 98.3098 59.525C98.6218 59.861 99.0698 60.029 99.6538 60.029C100.046 60.029 100.39 59.937 100.686 59.753C100.99 59.569 101.226 59.297 101.394 58.937C101.57 58.569 101.658 58.121 101.658 57.593V54.329H102.198V60.377H101.73L101.658 59.153C101.458 59.617 101.17 59.961 100.794 60.185C100.418 60.409 100.006 60.521 99.5578 60.521ZM106.483 60.521C105.899 60.521 105.391 60.385 104.959 60.113C104.535 59.833 104.207 59.457 103.975 58.985C103.743 58.505 103.627 57.961 103.627 57.353C103.627 56.745 103.743 56.205 103.975 55.733C104.207 55.253 104.539 54.877 104.971 54.605C105.403 54.325 105.911 54.185 106.495 54.185C107.079 54.185 107.579 54.337 107.995 54.641C108.419 54.937 108.727 55.345 108.919 55.865V51.737H109.459V60.377H108.979L108.907 58.889C108.787 59.193 108.611 59.469 108.379 59.717C108.155 59.957 107.883 60.153 107.563 60.305C107.243 60.449 106.883 60.521 106.483 60.521ZM106.519 60.029C106.975 60.029 107.379 59.917 107.731 59.693C108.083 59.461 108.355 59.145 108.547 58.745C108.747 58.337 108.847 57.873 108.847 57.353C108.847 56.825 108.747 56.361 108.547 55.961C108.355 55.553 108.083 55.237 107.731 55.013C107.387 54.789 106.983 54.677 106.519 54.677C106.071 54.677 105.667 54.785 105.307 55.001C104.955 55.217 104.679 55.529 104.479 55.937C104.279 56.337 104.179 56.809 104.179 57.353C104.179 57.897 104.279 58.369 104.479 58.769C104.687 59.169 104.967 59.481 105.319 59.705C105.671 59.921 106.071 60.029 106.519 60.029ZM111.24 60.377V54.329H111.78V60.377H111.24ZM111.516 52.733C111.404 52.733 111.304 52.693 111.216 52.613C111.136 52.525 111.096 52.421 111.096 52.301C111.096 52.181 111.136 52.085 111.216 52.013C111.304 51.933 111.404 51.893 111.516 51.893C111.628 51.893 111.724 51.933 111.804 52.013C111.892 52.085 111.936 52.181 111.936 52.301C111.936 52.421 111.892 52.525 111.804 52.613C111.724 52.693 111.628 52.733 111.516 52.733ZM116.175 60.521C115.623 60.521 115.127 60.393 114.687 60.137C114.255 59.881 113.911 59.517 113.655 59.045C113.407 58.565 113.283 58.005 113.283 57.365C113.283 56.701 113.411 56.133 113.667 55.661C113.923 55.189 114.271 54.825 114.711 54.569C115.151 54.313 115.647 54.185 116.199 54.185C116.759 54.185 117.255 54.313 117.687 54.569C118.127 54.825 118.471 55.189 118.719 55.661C118.975 56.133 119.103 56.701 119.103 57.365C119.103 58.005 118.975 58.565 118.719 59.045C118.463 59.517 118.115 59.881 117.675 60.137C117.235 60.393 116.735 60.521 116.175 60.521ZM116.175 60.041C116.591 60.041 116.975 59.941 117.327 59.741C117.687 59.541 117.979 59.241 118.203 58.841C118.427 58.441 118.539 57.945 118.539 57.353C118.539 56.761 118.427 56.265 118.203 55.865C117.987 55.465 117.699 55.169 117.339 54.977C116.987 54.777 116.607 54.677 116.199 54.677C115.791 54.677 115.407 54.777 115.047 54.977C114.687 55.177 114.395 55.477 114.171 55.877C113.955 56.269 113.847 56.761 113.847 57.353C113.847 57.945 113.955 58.441 114.171 58.841C114.395 59.241 114.683 59.541 115.035 59.741C115.387 59.941 115.767 60.041 116.175 60.041ZM122.632 60.521C122.192 60.521 121.796 60.449 121.444 60.305C121.092 60.153 120.808 59.929 120.592 59.633C120.384 59.337 120.252 58.969 120.196 58.529H120.772C120.804 58.849 120.904 59.121 121.072 59.345C121.248 59.569 121.472 59.741 121.744 59.861C122.016 59.973 122.316 60.029 122.644 60.029C122.972 60.029 123.248 59.977 123.472 59.873C123.704 59.769 123.88 59.625 124 59.441C124.128 59.249 124.192 59.037 124.192 58.805C124.192 58.509 124.128 58.281 124 58.121C123.88 57.953 123.696 57.825 123.448 57.737C123.2 57.649 122.888 57.569 122.512 57.497C122.208 57.441 121.932 57.369 121.684 57.281C121.444 57.193 121.236 57.085 121.06 56.957C120.884 56.829 120.748 56.673 120.652 56.489C120.564 56.297 120.52 56.081 120.52 55.841C120.52 55.513 120.6 55.225 120.76 54.977C120.928 54.729 121.16 54.537 121.456 54.401C121.752 54.257 122.104 54.185 122.512 54.185C123.088 54.185 123.564 54.337 123.94 54.641C124.324 54.945 124.544 55.393 124.6 55.985H124.048C124.024 55.593 123.876 55.277 123.604 55.037C123.34 54.797 122.972 54.677 122.5 54.677C122.044 54.677 121.692 54.781 121.444 54.989C121.204 55.189 121.084 55.457 121.084 55.793C121.084 55.985 121.132 56.157 121.228 56.309C121.332 56.461 121.496 56.597 121.72 56.717C121.944 56.829 122.244 56.925 122.62 57.005C123.012 57.077 123.368 57.169 123.688 57.281C124.016 57.393 124.276 57.561 124.468 57.785C124.66 58.009 124.756 58.329 124.756 58.745C124.756 59.089 124.668 59.397 124.492 59.669C124.324 59.933 124.08 60.141 123.76 60.293C123.448 60.445 123.072 60.521 122.632 60.521ZM132.875 60.521C132.083 60.521 131.391 60.341 130.799 59.981C130.215 59.613 129.763 59.105 129.443 58.457C129.123 57.801 128.963 57.041 128.963 56.177C128.963 55.313 129.123 54.557 129.443 53.909C129.763 53.253 130.215 52.745 130.799 52.385C131.391 52.017 132.083 51.833 132.875 51.833C133.795 51.833 134.535 52.045 135.095 52.469C135.655 52.885 136.023 53.477 136.199 54.245H135.599C135.455 53.669 135.159 53.205 134.711 52.853C134.271 52.501 133.659 52.325 132.875 52.325C132.211 52.325 131.627 52.477 131.123 52.781C130.627 53.085 130.235 53.525 129.947 54.101C129.667 54.677 129.527 55.369 129.527 56.177C129.527 56.985 129.667 57.677 129.947 58.253C130.235 58.821 130.627 59.261 131.123 59.573C131.627 59.877 132.211 60.029 132.875 60.029C133.651 60.029 134.263 59.853 134.711 59.501C135.167 59.141 135.463 58.673 135.599 58.097H136.199C136.023 58.865 135.655 59.461 135.095 59.885C134.535 60.309 133.795 60.521 132.875 60.521ZM137.629 60.377V54.329H138.109L138.169 55.553C138.305 55.233 138.481 54.973 138.697 54.773C138.921 54.573 139.185 54.425 139.489 54.329C139.793 54.233 140.137 54.185 140.521 54.185V54.737H140.305C140.065 54.737 139.817 54.769 139.561 54.833C139.313 54.897 139.081 55.013 138.865 55.181C138.657 55.341 138.489 55.573 138.361 55.877C138.233 56.181 138.169 56.569 138.169 57.041V60.377H137.629ZM143.84 60.521C143.272 60.521 142.78 60.389 142.364 60.125C141.956 59.861 141.64 59.489 141.416 59.009C141.192 58.529 141.08 57.965 141.08 57.317C141.08 56.661 141.196 56.101 141.428 55.637C141.668 55.173 141.996 54.817 142.412 54.569C142.836 54.313 143.32 54.185 143.864 54.185C144.448 54.185 144.936 54.317 145.328 54.581C145.72 54.837 146.016 55.177 146.216 55.601C146.416 56.025 146.516 56.489 146.516 56.993C146.516 57.073 146.516 57.149 146.516 57.221C146.516 57.293 146.512 57.377 146.504 57.473H141.464V57.005H145.988C145.98 56.229 145.776 55.645 145.376 55.253C144.976 54.861 144.464 54.665 143.84 54.665C143.456 54.665 143.096 54.753 142.76 54.929C142.424 55.105 142.148 55.377 141.932 55.745C141.724 56.113 141.62 56.581 141.62 57.149V57.365C141.62 57.973 141.724 58.477 141.932 58.877C142.14 59.269 142.412 59.561 142.748 59.753C143.084 59.945 143.448 60.041 143.84 60.041C144.344 60.041 144.76 59.925 145.088 59.693C145.416 59.453 145.656 59.117 145.808 58.685H146.348C146.244 59.037 146.08 59.353 145.856 59.633C145.64 59.913 145.364 60.133 145.028 60.293C144.692 60.445 144.296 60.521 143.84 60.521ZM149.696 60.521C149.24 60.521 148.856 60.433 148.544 60.257C148.232 60.081 147.996 59.853 147.836 59.573C147.676 59.285 147.596 58.977 147.596 58.649C147.596 58.209 147.696 57.849 147.896 57.569C148.096 57.289 148.376 57.081 148.736 56.945C149.104 56.801 149.528 56.729 150.008 56.729H151.832C151.832 56.297 151.768 55.929 151.64 55.625C151.52 55.321 151.332 55.085 151.076 54.917C150.82 54.749 150.484 54.665 150.068 54.665C149.58 54.665 149.176 54.781 148.856 55.013C148.544 55.245 148.344 55.597 148.256 56.069H147.704C147.76 55.645 147.9 55.297 148.124 55.025C148.356 54.745 148.64 54.537 148.976 54.401C149.312 54.257 149.676 54.185 150.068 54.185C150.62 54.185 151.064 54.297 151.4 54.521C151.736 54.737 151.98 55.033 152.132 55.409C152.292 55.777 152.372 56.197 152.372 56.669V60.377H151.892L151.832 59.165C151.768 59.293 151.68 59.437 151.568 59.597C151.456 59.757 151.316 59.905 151.148 60.041C150.98 60.177 150.776 60.289 150.536 60.377C150.304 60.473 150.024 60.521 149.696 60.521ZM149.756 60.029C150.1 60.029 150.4 59.965 150.656 59.837C150.912 59.701 151.128 59.525 151.304 59.309C151.48 59.085 151.612 58.845 151.7 58.589C151.788 58.333 151.832 58.081 151.832 57.833V57.197H150.044C149.572 57.197 149.2 57.261 148.928 57.389C148.656 57.509 148.46 57.677 148.34 57.893C148.228 58.109 148.172 58.357 148.172 58.637C148.172 58.893 148.232 59.129 148.352 59.345C148.472 59.553 148.652 59.721 148.892 59.849C149.132 59.969 149.42 60.029 149.756 60.029ZM155.819 60.377C155.499 60.377 155.227 60.329 155.003 60.233C154.787 60.137 154.619 59.973 154.499 59.741C154.387 59.501 154.331 59.181 154.331 58.781V54.797H153.275V54.329H154.331L154.415 53.009H154.871V54.329H156.767V54.797H154.871V58.769C154.871 59.193 154.955 59.489 155.123 59.657C155.291 59.825 155.575 59.909 155.975 59.909H156.647V60.377H155.819ZM158.127 60.377V54.329H158.667V60.377H158.127ZM158.403 52.733C158.291 52.733 158.191 52.693 158.103 52.613C158.023 52.525 157.983 52.421 157.983 52.301C157.983 52.181 158.023 52.085 158.103 52.013C158.191 51.933 158.291 51.893 158.403 51.893C158.515 51.893 158.611 51.933 158.691 52.013C158.779 52.085 158.823 52.181 158.823 52.301C158.823 52.421 158.779 52.525 158.691 52.613C158.611 52.693 158.515 52.733 158.403 52.733ZM163.062 60.521C162.51 60.521 162.014 60.393 161.574 60.137C161.142 59.881 160.798 59.517 160.542 59.045C160.294 58.565 160.17 58.005 160.17 57.365C160.17 56.701 160.298 56.133 160.554 55.661C160.81 55.189 161.158 54.825 161.598 54.569C162.038 54.313 162.534 54.185 163.086 54.185C163.646 54.185 164.142 54.313 164.574 54.569C165.014 54.825 165.358 55.189 165.606 55.661C165.862 56.133 165.99 56.701 165.99 57.365C165.99 58.005 165.862 58.565 165.606 59.045C165.35 59.517 165.002 59.881 164.562 60.137C164.122 60.393 163.622 60.521 163.062 60.521ZM163.062 60.041C163.478 60.041 163.862 59.941 164.214 59.741C164.574 59.541 164.866 59.241 165.09 58.841C165.314 58.441 165.426 57.945 165.426 57.353C165.426 56.761 165.314 56.265 165.09 55.865C164.874 55.465 164.586 55.169 164.226 54.977C163.874 54.777 163.494 54.677 163.086 54.677C162.678 54.677 162.294 54.777 161.934 54.977C161.574 55.177 161.282 55.477 161.058 55.877C160.842 56.269 160.734 56.761 160.734 57.353C160.734 57.945 160.842 58.441 161.058 58.841C161.282 59.241 161.57 59.541 161.922 59.741C162.274 59.941 162.654 60.041 163.062 60.041ZM167.418 60.377V54.329H167.898L167.946 55.553C168.154 55.097 168.442 54.757 168.81 54.533C169.186 54.301 169.602 54.185 170.058 54.185C170.498 54.185 170.886 54.273 171.222 54.449C171.558 54.625 171.822 54.897 172.014 55.265C172.206 55.625 172.302 56.093 172.302 56.669V60.377H171.762V56.753C171.762 56.041 171.61 55.517 171.306 55.181C171.002 54.845 170.562 54.677 169.986 54.677C169.602 54.677 169.254 54.773 168.942 54.965C168.638 55.149 168.398 55.421 168.222 55.781C168.046 56.141 167.958 56.585 167.958 57.113V60.377H167.418Z" fill="#EEF6F0"/>
<path d="M1.74 21.1934V9.52336H0V6.31336H1.74V5.17336C1.74 3.37336 2.19 2.09336 3.09 1.33336C4.01 0.573358 5.25 0.193358 6.81 0.193358H8.07V3.46336H7.41C6.75 3.46336 6.28 3.59336 6 3.85336C5.72 4.11336 5.58 4.55336 5.58 5.17336V6.31336H8.25V9.52336H5.58V21.1934H1.74ZM10.59 21.1934V0.193358H14.43V21.1934H10.59ZM18.5503 27.7934L21.8203 20.5034L15.7903 6.31336H20.0803L23.9203 16.4534L27.8503 6.31336H31.9003L22.6003 27.7934H18.5503ZM45.7737 27.5534C43.7137 27.5534 41.8537 27.2234 40.1937 26.5634C38.5537 25.9034 37.1437 24.9834 35.9637 23.8034C34.8037 22.6434 33.9137 21.2834 33.2937 19.7234C32.6737 18.1634 32.3637 16.4734 32.3637 14.6534C32.3637 12.7334 32.7037 10.9734 33.3837 9.37336C34.0637 7.77336 35.0137 6.39336 36.2337 5.23336C37.4537 4.07336 38.8837 3.17336 40.5237 2.53336C42.1637 1.89336 43.9537 1.57336 45.8937 1.57336C47.7737 1.57336 49.5137 1.87336 51.1137 2.47336C52.7337 3.05336 54.1337 3.88336 55.3137 4.96336C56.5137 6.04336 57.4437 7.33336 58.1037 8.83336C58.7837 10.3134 59.1237 11.9634 59.1237 13.7834C59.1237 15.2234 58.8937 16.5134 58.4337 17.6534C57.9937 18.7934 57.3337 19.6934 56.4537 20.3534C55.5737 21.0134 54.5037 21.3434 53.2437 21.3434C52.3037 21.3434 51.4937 21.1234 50.8137 20.6834C50.1537 20.2434 49.6537 19.6234 49.3137 18.8234C48.8537 19.5634 48.2537 20.1834 47.5137 20.6834C46.7937 21.1634 45.8837 21.4034 44.7837 21.4034C43.5437 21.4034 42.4537 21.0934 41.5137 20.4734C40.5937 19.8534 39.8837 19.0334 39.3837 18.0134C38.8837 16.9734 38.6337 15.8434 38.6337 14.6234C38.6337 13.3834 38.8937 12.2534 39.4137 11.2334C39.9337 10.2134 40.6537 9.40336 41.5737 8.80336C42.5137 8.20336 43.5837 7.90336 44.7837 7.90336C45.6037 7.90336 46.3837 8.07336 47.1237 8.41336C47.8637 8.73336 48.4737 9.25336 48.9537 9.97336V8.20336H52.1637V16.6934C52.1637 17.2534 52.2937 17.6834 52.5537 17.9834C52.8137 18.2634 53.1837 18.4034 53.6637 18.4034C54.3437 18.4034 54.8737 18.1534 55.2537 17.6534C55.6337 17.1534 55.8937 16.5534 56.0337 15.8534C56.1937 15.1334 56.2737 14.4634 56.2737 13.8434C56.2737 11.8434 55.8137 10.1334 54.8937 8.71336C53.9937 7.27336 52.7637 6.17336 51.2037 5.41336C49.6437 4.63336 47.8737 4.24336 45.8937 4.24336C44.3937 4.24336 42.9937 4.49336 41.6937 4.99336C40.4137 5.49336 39.2837 6.20336 38.3037 7.12336C37.3437 8.04336 36.5937 9.14336 36.0537 10.4234C35.5137 11.7034 35.2437 13.1134 35.2437 14.6534C35.2437 16.0534 35.4837 17.3734 35.9637 18.6134C36.4437 19.8534 37.1437 20.9334 38.0637 21.8534C38.9837 22.7934 40.0937 23.5234 41.3937 24.0434C42.6937 24.5834 44.1537 24.8534 45.7737 24.8534C46.7737 24.8534 47.7337 24.7534 48.6537 24.5534C49.5937 24.3534 50.4737 24.0434 51.2937 23.6234L52.1637 26.2034C51.7637 26.4034 51.3137 26.5834 50.8137 26.7434C50.3137 26.9234 49.7737 27.0734 49.1937 27.1934C48.0537 27.4334 46.9137 27.5534 45.7737 27.5534ZM45.4737 18.4934C46.5737 18.4934 47.4337 18.1234 48.0537 17.3834C48.6937 16.6434 49.0137 15.7334 49.0137 14.6534C49.0137 13.9334 48.8637 13.2834 48.5637 12.7034C48.2637 12.1034 47.8437 11.6334 47.3037 11.2934C46.7837 10.9534 46.1737 10.7834 45.4737 10.7834C44.4537 10.7834 43.6037 11.1334 42.9237 11.8334C42.2437 12.5334 41.9037 13.4634 41.9037 14.6234C41.9037 15.7234 42.2237 16.6434 42.8637 17.3834C43.5237 18.1234 44.3937 18.4934 45.4737 18.4934ZM71.1075 21.5534C70.1075 21.5534 69.1675 21.3634 68.2875 20.9834C67.4275 20.5834 66.7075 19.9734 66.1275 19.1534V21.1934H62.2875V0.193358H66.0975V8.41336C66.6575 7.59336 67.3775 6.98336 68.2575 6.58336C69.1375 6.16336 70.0875 5.95336 71.1075 5.95336C72.5275 5.95336 73.7475 6.30336 74.7675 7.00336C75.8075 7.68336 76.6075 8.61336 77.1675 9.79336C77.7275 10.9534 78.0075 12.2534 78.0075 13.6934C78.0075 15.1134 77.7275 16.4234 77.1675 17.6234C76.6075 18.8234 75.8075 19.7834 74.7675 20.5034C73.7475 21.2034 72.5275 21.5534 71.1075 21.5534ZM70.0875 18.1934C70.8875 18.1934 71.5875 17.9934 72.1875 17.5934C72.7875 17.1934 73.2575 16.6534 73.5975 15.9734C73.9375 15.2734 74.1075 14.5134 74.1075 13.6934C74.1075 12.7534 73.9175 11.9634 73.5375 11.3234C73.1775 10.6634 72.6875 10.1634 72.0675 9.82336C71.4675 9.48336 70.8075 9.31336 70.0875 9.31336C69.3075 9.31336 68.6175 9.50336 68.0175 9.88336C67.4375 10.2634 66.9775 10.7934 66.6375 11.4734C66.2975 12.1334 66.1275 12.8934 66.1275 13.7534C66.1275 14.6334 66.2975 15.4134 66.6375 16.0934C66.9975 16.7534 67.4775 17.2734 68.0775 17.6534C68.6775 18.0134 69.3475 18.1934 70.0875 18.1934ZM80.5425 27.7934L83.8125 20.5034L77.7825 6.31336H82.0725L85.9125 16.4534L89.8425 6.31336H93.8925L84.5925 27.7934H80.5425ZM95.2172 21.1934V6.31336H99.0272V8.53336C99.5472 7.69336 100.207 7.05336 101.007 6.61336C101.807 6.17336 102.697 5.95336 103.677 5.95336V9.97336H102.657C101.437 9.97336 100.527 10.2634 99.9272 10.8434C99.3272 11.4234 99.0272 12.3934 99.0272 13.7534V21.1934H95.2172ZM111.598 21.5534C110.158 21.5534 108.918 21.2034 107.878 20.5034C106.858 19.7834 106.068 18.8334 105.508 17.6534C104.968 16.4534 104.698 15.1334 104.698 13.6934C104.698 12.2534 104.978 10.9534 105.538 9.79336C106.098 8.61336 106.898 7.68336 107.938 7.00336C108.978 6.30336 110.198 5.95336 111.598 5.95336C112.558 5.95336 113.468 6.15336 114.328 6.55336C115.208 6.95336 115.948 7.53336 116.548 8.29336V0.193358H120.418V21.1934H116.548V19.0634C116.048 19.8834 115.348 20.5034 114.448 20.9234C113.548 21.3434 112.598 21.5534 111.598 21.5534ZM112.588 18.1934C113.388 18.1934 114.078 18.0034 114.658 17.6234C115.258 17.2434 115.728 16.7234 116.068 16.0634C116.408 15.3834 116.578 14.6134 116.578 13.7534C116.578 12.6934 116.368 11.8434 115.948 11.2034C115.528 10.5434 115.008 10.0634 114.388 9.76336C113.768 9.46336 113.158 9.31336 112.558 9.31336C111.778 9.31336 111.088 9.50336 110.488 9.88336C109.908 10.2634 109.448 10.7834 109.108 11.4434C108.768 12.0834 108.598 12.8334 108.598 13.6934C108.598 14.5334 108.768 15.2934 109.108 15.9734C109.448 16.6534 109.918 17.1934 110.518 17.5934C111.118 17.9934 111.808 18.1934 112.588 18.1934ZM129.198 21.5534C128.078 21.5534 127.028 21.3534 126.048 20.9534C125.068 20.5334 124.258 19.9434 123.618 19.1834C122.998 18.4234 122.658 17.5334 122.598 16.5134H126.438C126.538 17.1534 126.848 17.6534 127.368 18.0134C127.908 18.3734 128.508 18.5534 129.168 18.5534C129.728 18.5534 130.248 18.4334 130.728 18.1934C131.228 17.9334 131.478 17.5334 131.478 16.9934C131.478 16.5734 131.298 16.2434 130.938 16.0034C130.578 15.7634 130.158 15.5734 129.678 15.4334C129.198 15.2934 128.758 15.1734 128.358 15.0734C127.358 14.8334 126.448 14.5534 125.628 14.2334C124.808 13.8934 124.158 13.4334 123.678 12.8534C123.198 12.2534 122.958 11.4634 122.958 10.4834C122.958 9.52336 123.228 8.70336 123.768 8.02336C124.328 7.34336 125.058 6.83336 125.958 6.49336C126.878 6.13336 127.868 5.95336 128.928 5.95336C130.588 5.95336 131.988 6.37336 133.128 7.21336C134.268 8.05336 134.888 9.29336 134.988 10.9334H131.358C131.298 10.2934 131.028 9.81336 130.548 9.49336C130.088 9.15336 129.508 8.98336 128.808 8.98336C128.248 8.98336 127.748 9.08336 127.308 9.28336C126.868 9.48336 126.648 9.86336 126.648 10.4234C126.648 10.8234 126.828 11.1534 127.188 11.4134C127.548 11.6534 127.978 11.8534 128.478 12.0134C128.978 12.1534 129.418 12.2734 129.798 12.3734C130.838 12.6334 131.748 12.9334 132.528 13.2734C133.328 13.6134 133.958 14.0734 134.418 14.6534C134.878 15.2334 135.118 16.0134 135.138 16.9934C135.138 17.9734 134.858 18.8034 134.298 19.4834C133.758 20.1634 133.038 20.6834 132.138 21.0434C131.238 21.3834 130.258 21.5534 129.198 21.5534ZM139.357 21.5534C138.657 21.5534 138.067 21.3134 137.587 20.8334C137.107 20.3334 136.867 19.7434 136.867 19.0634C136.867 18.3634 137.107 17.7734 137.587 17.2934C138.067 16.8134 138.657 16.5734 139.357 16.5734C140.057 16.5734 140.647 16.8134 141.127 17.2934C141.607 17.7734 141.847 18.3634 141.847 19.0634C141.847 19.7434 141.607 20.3334 141.127 20.8334C140.647 21.3134 140.057 21.5534 139.357 21.5534ZM151.344 21.5534C149.844 21.5534 148.504 21.2334 147.324 20.5934C146.164 19.9334 145.254 19.0134 144.594 17.8334C143.934 16.6534 143.604 15.2934 143.604 13.7534C143.604 12.1334 143.954 10.7434 144.654 9.58336C145.374 8.40336 146.324 7.50336 147.504 6.88336C148.704 6.26336 150.024 5.95336 151.464 5.95336C152.964 5.95336 154.304 6.28336 155.484 6.94336C156.664 7.58336 157.594 8.48336 158.274 9.64336C158.974 10.8034 159.324 12.1734 159.324 13.7534C159.324 15.2534 158.984 16.5934 158.304 17.7734C157.624 18.9534 156.684 19.8834 155.484 20.5634C154.304 21.2234 152.924 21.5534 151.344 21.5534ZM151.404 18.2234C152.204 18.2234 152.894 18.0234 153.474 17.6234C154.074 17.2034 154.544 16.6534 154.884 15.9734C155.224 15.2734 155.394 14.5134 155.394 13.6934C155.394 12.7534 155.204 11.9534 154.824 11.2934C154.464 10.6334 153.984 10.1334 153.384 9.79336C152.784 9.45336 152.124 9.28336 151.404 9.28336C150.624 9.28336 149.934 9.47336 149.334 9.85336C148.754 10.2334 148.294 10.7634 147.954 11.4434C147.634 12.1034 147.474 12.8734 147.474 13.7534C147.474 14.6334 147.644 15.4134 147.984 16.0934C148.344 16.7734 148.824 17.3034 149.424 17.6834C150.024 18.0434 150.684 18.2234 151.404 18.2234ZM161.545 21.1934V6.31336H165.355V8.05336C165.875 7.35336 166.565 6.83336 167.425 6.49336C168.305 6.13336 169.185 5.95336 170.065 5.95336C171.785 5.95336 173.195 6.51336 174.295 7.63336C175.395 8.73336 175.945 10.3334 175.945 12.4334V21.1934H172.135V12.9434C172.135 11.8234 171.845 10.9234 171.265 10.2434C170.705 9.54336 169.875 9.19336 168.775 9.19336C167.675 9.19336 166.825 9.54336 166.225 10.2434C165.645 10.9234 165.355 11.8234 165.355 12.9434V21.1934H161.545ZM185.501 21.5534C183.941 21.5534 182.591 21.2134 181.451 20.5334C180.331 19.8534 179.461 18.9234 178.841 17.7434C178.221 16.5634 177.911 15.2334 177.911 13.7534C177.911 12.1734 178.231 10.8034 178.871 9.64336C179.511 8.48336 180.401 7.58336 181.541 6.94336C182.681 6.28336 184.001 5.95336 185.501 5.95336C186.981 5.95336 188.271 6.27336 189.371 6.91336C190.491 7.55336 191.361 8.43336 191.981 9.55336C192.621 10.6734 192.941 11.9634 192.941 13.4234C192.941 13.6834 192.931 13.9434 192.911 14.2034C192.891 14.4434 192.861 14.6734 192.821 14.8934H181.781C181.841 15.5934 182.021 16.2134 182.321 16.7534C182.641 17.2734 183.061 17.6834 183.581 17.9834C184.121 18.2634 184.731 18.4034 185.411 18.4034C186.111 18.4034 186.711 18.2534 187.211 17.9534C187.731 17.6534 188.141 17.1934 188.441 16.5734H192.551C192.271 17.4534 191.821 18.2734 191.201 19.0334C190.581 19.7934 189.791 20.4034 188.831 20.8634C187.891 21.3234 186.781 21.5534 185.501 21.5534ZM181.811 12.3434H188.981C188.961 11.3434 188.591 10.5534 187.871 9.97336C187.171 9.39336 186.341 9.10336 185.381 9.10336C184.561 9.10336 183.801 9.36336 183.101 9.88336C182.401 10.3834 181.971 11.2034 181.811 12.3434Z" fill="#EEF6F0"/>
</svg>
