<svg preserveAspectRatio="none" width="100%" height="100%" overflow="visible" style="display: block;" viewBox="0 0 16 16" fill="none" xmlns="http://www.w3.org/2000/svg">
<g id="Frame">
<path id="Shape" d="M8.16325 3.09334C9.69613 3.09334 10.7301 3.74222 11.3197 4.28445L13.6236 2.08C12.2086 0.791112 10.3673 0 8.16325 0C4.97051 0 2.21314 1.79556 0.870735 4.40889L3.51019 6.41778C4.17232 4.48889 6.00452 3.09334 8.16325 3.09334V3.09334Z" fill="var(--fill-0, #F25022)"/>
<path id="Shape_2" d="M16 8.17776C16 7.51999 15.9456 7.03999 15.8277 6.54221H8.16326V9.5111H12.6621C12.5714 10.2489 12.0816 11.36 10.9932 12.1067L13.5692 14.0622C15.1111 12.6667 16 10.6133 16 8.17776V8.17776Z" fill="var(--fill-0, #4285F4)"/>
<path id="Shape_3" d="M3.51928 9.58252C3.34694 9.08474 3.24717 8.55141 3.24717 8.00029C3.24717 7.44918 3.34694 6.91585 3.51021 6.41807L0.870749 4.40918C0.31746 5.49362 0 6.7114 0 8.00029C0 9.28918 0.31746 10.507 0.870749 11.5914L3.51928 9.58252V9.58252Z" fill="var(--fill-0, #FBBC05)"/>
<path id="Shape_4" d="M8.16325 16C10.3673 16 12.2177 15.2889 13.5691 14.0622L10.9932 12.1067C10.3038 12.5778 9.37867 12.9067 8.16325 12.9067C6.00452 12.9067 4.17232 11.5111 3.51926 9.58222L0.879803 11.5911C2.22221 14.2044 4.97051 16 8.16325 16V16Z" fill="var(--fill-0, #34A853)"/>
</g>
</svg>
