<svg preserveAspectRatio="none" width="100%" height="100%" overflow="visible" style="display: block;" viewBox="0 0 1377 618" fill="none" xmlns="http://www.w3.org/2000/svg">
<path id="Union" d="M908.151 448.833C914.688 448.833 920.694 449.745 926.167 451.569H966.757V473.461H951.022C951.935 476.045 952.695 478.63 953.303 481.214C954.063 483.798 954.443 486.459 954.443 489.195C954.443 497.101 952.391 504.094 948.286 510.175C944.182 516.256 938.633 521.044 931.64 524.541C924.799 527.886 916.969 529.558 908.151 529.558C904.351 529.558 900.855 529.254 897.662 528.646C894.47 527.885 891.353 526.746 888.312 525.226C884.968 526.898 883.296 529.558 883.296 533.207C883.296 539.896 888.845 543.24 899.942 543.24H920.693C929.815 543.24 937.568 544.533 943.953 547.117C950.49 549.55 955.431 553.426 958.775 558.747C962.12 564.068 963.793 570.833 963.793 579.042C963.793 586.947 961.436 593.789 956.724 599.565C952.011 605.342 945.626 609.751 937.568 612.792C929.511 615.984 920.542 617.58 910.66 617.58C900.323 617.58 891.049 616.44 882.84 614.16C874.631 611.88 868.093 608.155 863.229 602.986C858.516 597.97 856.159 591.356 856.159 583.146C856.159 577.826 857.3 573.189 859.58 569.236C861.86 565.436 865.357 562.091 870.069 559.203C866.117 556.923 863.152 554.034 861.176 550.537C859.2 547.041 858.212 543.012 858.212 538.451C858.212 528.418 862.924 520.664 872.35 515.191C869.005 511.695 866.421 507.743 864.597 503.334C862.772 498.773 861.86 494.06 861.86 489.195C861.86 480.986 863.837 473.917 867.789 467.988C871.742 461.907 877.215 457.194 884.208 453.85C891.201 450.505 899.182 448.833 908.151 448.833ZM901.767 567.185C895.686 567.185 890.972 568.324 887.628 570.604C884.435 572.885 882.84 576.23 882.84 580.639C882.84 584.135 884.132 586.871 886.716 588.848C889.3 590.976 892.721 592.496 896.978 593.408C901.234 594.32 905.795 594.776 910.66 594.776C917.957 594.776 924.114 593.56 929.131 591.128C934.3 588.848 936.885 585.351 936.885 580.639C936.885 571.669 930.651 567.185 918.186 567.185H901.767ZM1240.12 448.833C1251.37 448.833 1261.17 451.265 1269.54 456.13C1278.05 460.995 1284.66 467.684 1289.38 476.197C1294.24 484.711 1296.67 494.517 1296.67 505.614C1296.67 507.591 1296.6 509.567 1296.44 511.543C1296.29 513.367 1296.06 515.116 1295.76 516.788H1211.84C1212.3 522.109 1213.67 526.822 1215.95 530.927C1218.38 534.879 1221.57 537.995 1225.52 540.275C1229.63 542.404 1234.27 543.469 1239.43 543.469C1244.76 543.469 1249.32 542.328 1253.12 540.048C1257.07 537.767 1260.19 534.27 1262.47 529.558H1293.71C1291.58 536.247 1288.16 542.48 1283.45 548.257C1278.73 554.034 1272.73 558.67 1265.43 562.167C1258.29 565.664 1249.85 567.412 1240.12 567.412C1228.26 567.412 1218 564.828 1209.33 559.659C1200.82 554.49 1194.21 547.421 1189.49 538.451C1184.78 529.482 1182.42 519.372 1182.42 508.122C1182.42 496.112 1184.86 485.699 1189.72 476.882C1194.59 468.064 1201.35 461.223 1210.02 456.358C1218.68 451.342 1228.72 448.833 1240.12 448.833ZM654.911 405.05C671.482 405.05 684.099 408.775 692.765 416.224C701.582 423.521 705.991 433.175 705.991 445.185C705.991 454.002 703.863 461.223 699.606 466.848C695.35 472.321 690.029 476.426 683.644 479.162C688.964 481.138 693.83 484.103 698.238 488.056C702.799 492.008 706.447 496.721 709.184 502.193C711.92 507.514 713.288 513.368 713.288 519.753C713.288 528.114 711.236 535.716 707.132 542.557C703.027 549.398 697.098 554.794 689.345 558.747C681.591 562.7 672.09 564.676 660.84 564.676H594.481V405.05H654.911ZM796.533 479.39H788.779C779.506 479.39 772.589 481.594 768.028 486.003C763.468 490.412 761.187 497.785 761.187 508.122V564.676H732.227V451.569H761.187V468.444C765.139 462.059 770.156 457.194 776.237 453.85C782.318 450.505 789.084 448.833 796.533 448.833V479.39ZM840.498 564.676H811.309V451.569H840.498V564.676ZM1009.93 464.796C1013.89 459.475 1019.13 455.522 1025.67 452.938C1032.36 450.201 1039.05 448.833 1045.74 448.833C1058.81 448.833 1069.53 453.089 1077.89 461.603C1086.25 469.964 1090.43 482.126 1090.43 498.089V564.676H1061.47V501.966C1061.47 493.452 1059.27 486.611 1054.86 481.442C1050.6 476.122 1044.29 473.461 1035.93 473.461C1027.57 473.461 1021.11 476.122 1016.55 481.442C1012.14 486.611 1009.93 493.452 1009.93 501.966V564.676H980.974V405.05H1009.93V464.796ZM1145.96 451.569H1171.73V475.97H1145.96V529.33C1145.96 533.587 1147.1 536.475 1149.38 537.995C1151.67 539.515 1154.63 540.275 1158.28 540.275H1171.73V564.676H1153.49C1141.33 564.676 1132.13 561.711 1125.9 555.782C1119.82 549.853 1116.78 540.959 1116.78 529.102V475.97H1102.18V451.569H1116.78V423.977H1145.96V451.569ZM1376.42 479.39H1368.67C1359.4 479.39 1352.48 481.594 1347.92 486.003C1343.36 490.412 1341.08 497.785 1341.08 508.122V564.676H1312.12V451.569H1341.08V468.444C1345.03 462.059 1350.05 457.194 1356.13 453.85C1362.21 450.505 1368.97 448.833 1376.42 448.833V479.39ZM623.67 539.819H658.104C666.769 539.819 673.154 537.843 677.259 533.891C681.515 529.938 683.644 524.237 683.644 516.788C683.644 509.339 681.439 503.638 677.03 499.686C672.622 495.733 666.161 493.756 657.647 493.756H623.67V539.819ZM907.924 471.637C902.147 471.637 897.434 473.309 893.785 476.653C890.289 479.998 888.54 484.179 888.54 489.195C888.54 494.364 890.213 498.621 893.558 501.966C897.054 505.158 901.843 506.754 907.924 506.754C913.7 506.754 918.413 505.158 922.062 501.966C925.862 498.621 927.763 494.364 927.763 489.195C927.763 484.179 925.862 479.998 922.062 476.653C918.413 473.309 913.701 471.637 907.924 471.637ZM1239.21 472.776C1232.97 472.776 1227.2 474.754 1221.88 478.706C1216.56 482.507 1213.29 488.74 1212.07 497.405H1266.57C1266.42 489.804 1263.61 483.798 1258.13 479.39C1252.81 474.981 1246.5 472.776 1239.21 472.776ZM623.67 468.9H652.402C660.612 468.9 666.617 467.304 670.418 464.111C674.218 460.767 676.118 455.826 676.118 449.289C676.118 443.056 674.218 438.267 670.418 434.923C666.769 431.578 660.612 429.906 651.946 429.906H623.67V468.9ZM825.903 399.121C831.224 399.121 835.709 400.945 839.357 404.594C843.006 408.242 844.83 412.727 844.83 418.048C844.83 423.217 843.006 427.701 839.357 431.502C835.709 435.151 831.224 436.975 825.903 436.975C820.735 436.975 816.25 435.151 812.449 431.502C808.801 427.701 806.977 423.217 806.977 418.048C806.977 412.727 808.801 408.242 812.449 404.594C816.25 400.945 820.735 399.121 825.903 399.121ZM77.5322 196.313C96.6873 196.313 112.346 201.102 124.508 210.68C136.822 220.105 144.5 233.407 147.54 250.586H115.387C113.41 241.921 109.153 235.156 102.616 230.291C96.2312 225.274 87.7179 222.766 77.0762 222.766C67.3466 222.766 58.9088 225.046 51.7637 229.606C44.7706 234.167 39.3738 240.629 35.5732 248.99C31.7727 257.352 29.8721 267.385 29.8721 279.091C29.8721 290.645 31.7727 300.678 35.5732 309.191C39.3738 317.553 44.7706 324.014 51.7637 328.575C58.9088 332.984 67.3466 335.187 77.0762 335.188C87.7179 335.188 96.2312 332.907 102.616 328.347C109.153 323.634 113.41 317.173 115.387 308.964H147.54C144.5 325.382 136.822 338.228 124.508 347.502C112.346 356.775 96.6873 361.412 77.5322 361.412C61.1136 361.412 47.1271 357.839 35.5732 350.694C24.0195 343.549 15.202 333.82 9.12109 321.506C3.0401 309.04 2.36399e-06 294.901 0 279.091C0 263.28 2.96459 249.142 8.89355 236.676C14.8225 224.21 23.5634 214.404 35.1172 207.259C46.6711 199.962 60.8095 196.313 77.5322 196.313ZM269.854 242.833C281.104 242.833 290.91 245.265 299.271 250.13C307.785 254.995 314.399 261.684 319.111 270.197C323.976 278.711 326.408 288.516 326.408 299.614C326.408 301.591 326.332 303.567 326.18 305.543C326.028 307.367 325.8 309.116 325.496 310.788H241.578C242.034 316.109 243.402 320.822 245.683 324.927C248.115 328.879 251.308 331.995 255.261 334.275C259.365 336.404 264.002 337.469 269.171 337.469C274.492 337.469 279.053 336.328 282.854 334.048C286.806 331.767 289.922 328.27 292.202 323.558H323.443C321.315 330.247 317.894 336.48 313.182 342.257C308.469 348.034 302.464 352.67 295.167 356.167C288.022 359.664 279.584 361.412 269.854 361.412C257.997 361.412 247.736 358.828 239.07 353.659C230.557 348.49 223.943 341.421 219.23 332.451C214.518 323.482 212.161 313.372 212.161 302.122C212.161 290.112 214.594 279.699 219.459 270.882C224.324 262.064 231.089 255.223 239.754 250.358C248.419 245.342 258.453 242.833 269.854 242.833ZM392.25 242.833C402.892 242.833 411.862 244.809 419.159 248.762C426.608 252.714 432.309 258.34 436.262 265.637C440.214 272.782 442.19 281.295 442.19 291.177V325.61C442.494 328.955 443.711 331.235 445.839 332.451C447.967 333.667 450.78 334.275 454.276 334.275V358.676C447.131 358.676 441.126 357.991 436.262 356.623C431.549 355.255 427.672 353.279 424.632 350.694C421.591 347.958 419.006 344.537 416.878 340.433C413.381 346.362 407.909 351.379 400.46 355.483C393.163 359.436 385.181 361.412 376.516 361.412C369.827 361.412 363.593 360.044 357.816 357.308C352.04 354.571 347.327 350.694 343.679 345.678C340.182 340.509 338.434 334.428 338.434 327.435C338.434 319.073 340.486 312.232 344.591 306.911C348.695 301.59 354.321 297.638 361.466 295.054C368.763 292.469 376.896 291.177 385.865 291.177H412.773C412.773 286.008 411.938 281.675 410.266 278.179C408.745 274.682 406.389 272.022 403.196 270.197C400.156 268.221 396.355 267.232 391.794 267.232C386.473 267.232 381.684 268.449 377.428 270.882C373.323 273.162 370.814 277.039 369.902 282.512H340.714C341.474 274.302 344.287 267.233 349.151 261.304C354.016 255.375 360.249 250.815 367.851 247.622C375.452 244.43 383.585 242.833 392.25 242.833ZM650.437 242.833C661.686 242.833 671.492 245.265 679.854 250.13C688.367 254.995 694.98 261.684 699.692 270.197C704.557 278.711 706.99 288.516 706.99 299.614C706.99 301.59 706.914 303.567 706.762 305.543C706.61 307.367 706.381 309.116 706.077 310.788H622.16C622.616 316.109 623.984 320.822 626.265 324.927C628.697 328.879 631.889 331.995 635.842 334.275C639.946 336.404 644.584 337.469 649.753 337.469C655.074 337.469 659.634 336.328 663.435 334.048C667.387 331.767 670.504 328.27 672.784 323.558H704.025C701.897 330.247 698.476 336.48 693.764 342.257C689.051 348.034 683.046 352.67 675.749 356.167C668.604 359.664 660.166 361.412 650.437 361.412C638.579 361.412 628.317 358.828 619.651 353.659C611.138 348.49 604.525 341.421 599.812 332.451C595.1 323.482 592.743 313.372 592.743 302.122C592.743 290.113 595.175 279.699 600.04 270.882C604.905 262.064 611.671 255.223 620.336 250.358C629.001 245.342 639.035 242.833 650.437 242.833ZM196.229 358.676H167.04V199.05H196.229V358.676ZM533.106 242.833C546.18 242.833 556.898 247.089 565.26 255.603C573.621 263.964 577.802 276.126 577.802 292.089V358.676H548.841V295.966C548.841 287.452 546.636 280.611 542.228 275.442C537.971 270.122 531.662 267.461 523.301 267.461C514.939 267.461 508.478 270.122 503.917 275.442C499.508 280.611 497.305 287.453 497.305 295.966V358.676H468.344V245.569H497.305V258.796C501.257 253.475 506.502 249.522 513.039 246.938C519.728 244.201 526.417 242.833 533.106 242.833ZM786.742 273.39H778.989C769.716 273.39 762.798 275.594 758.237 280.003C753.677 284.412 751.397 291.785 751.396 302.122V358.676H722.436V245.569H751.396V262.444C755.349 256.059 760.366 251.194 766.447 247.85C772.528 244.505 779.293 242.833 786.742 242.833V273.39ZM387.689 309.876C384.345 309.876 381.153 310.408 378.112 311.472C375.072 312.384 372.639 313.905 370.814 316.033C368.99 318.009 368.078 320.746 368.078 324.242C368.078 328.955 369.675 332.451 372.867 334.731C376.212 336.86 380.24 337.925 384.953 337.925C389.97 337.925 394.531 336.784 398.636 334.504C402.892 332.224 406.313 329.031 408.897 324.927C411.482 320.822 412.773 316.109 412.773 310.788V309.876H387.689ZM268.942 266.776C262.71 266.776 256.933 268.754 251.612 272.706C246.291 276.507 243.023 282.74 241.807 291.405H296.308C296.156 283.804 293.343 277.798 287.87 273.39C282.549 268.981 276.24 266.776 268.942 266.776ZM649.524 266.776C643.291 266.776 637.514 268.753 632.193 272.706C626.873 276.507 623.604 282.74 622.388 291.405H676.889C676.737 283.804 673.924 277.798 668.451 273.39C663.13 268.981 656.821 266.776 649.524 266.776ZM355.454 0C373.383 5.4273e-05 388.251 4.29948 400.058 12.8994C411.864 21.4995 419.517 33.3796 423.016 48.5391H391.749C389.417 41.3967 385.189 35.8575 379.067 31.9219C372.945 27.8406 365.074 25.7999 355.454 25.7998C345.251 25.7998 336.577 27.9864 329.435 32.3594C322.292 36.7323 316.826 43.0004 313.036 51.1631C309.392 59.1801 307.57 68.8737 307.57 80.2432C307.57 91.4669 309.392 101.088 313.036 109.104C316.826 116.976 322.147 123.025 328.998 127.252C335.995 131.333 344.158 133.374 353.486 133.374C366.605 133.374 376.663 130.021 383.659 123.316C390.656 116.611 395.101 107.72 396.996 96.6416H348.238V73.0273H425.857V155.676H400.058L397.871 135.561C392.915 142.849 386.72 148.461 379.286 152.396C371.852 156.332 362.378 158.3 350.862 158.3C336.432 158.3 323.823 155.02 313.036 148.461C302.25 141.902 293.869 132.718 287.893 120.911C281.916 109.104 278.928 95.4753 278.928 80.0244C278.928 65.0108 281.843 51.4548 287.674 39.3564C293.504 27.2581 302.104 17.7105 313.474 10.7139C324.989 3.57143 338.983 0 355.454 0ZM571.406 44.6035C582.193 44.6035 591.594 46.9362 599.611 51.6006C607.774 56.265 614.115 62.6781 618.634 70.8408C623.298 79.0036 625.63 88.4061 625.63 99.0469C625.63 100.942 625.558 102.837 625.412 104.731C625.266 106.48 625.047 108.157 624.756 109.76H544.294C544.731 114.862 546.043 119.381 548.229 123.316C550.562 127.106 553.623 130.094 557.413 132.28C561.349 134.321 565.794 135.342 570.75 135.342C575.852 135.342 580.225 134.248 583.869 132.062C587.659 129.875 590.647 126.522 592.833 122.004H622.788C620.747 128.418 617.468 134.395 612.949 139.934C608.431 145.473 602.672 149.918 595.676 153.271C588.825 156.623 580.735 158.3 571.406 158.3C560.037 158.3 550.197 155.821 541.889 150.865C533.726 145.909 527.385 139.131 522.866 130.531C518.348 121.931 516.089 112.238 516.089 101.451C516.089 89.936 518.421 79.9513 523.085 71.4971C527.749 63.0428 534.236 56.4838 542.545 51.8193C550.853 47.0091 560.474 44.6035 571.406 44.6035ZM692.259 44.6035C703.045 44.6035 712.448 46.9361 720.465 51.6006C728.627 56.265 734.969 62.6781 739.487 70.8408C744.152 79.0036 746.483 88.4061 746.483 99.0469C746.483 100.942 746.41 102.837 746.265 104.731C746.119 106.48 745.901 108.157 745.609 109.76H665.147C665.585 114.862 666.897 119.381 669.083 123.316C671.415 127.106 674.476 130.094 678.266 132.28C682.201 134.321 686.648 135.342 691.604 135.342C696.705 135.342 701.078 134.248 704.722 132.062C708.512 129.875 711.5 126.523 713.687 122.004H743.641C741.6 128.418 738.32 134.395 733.802 139.934C729.283 145.472 723.526 149.918 716.529 153.271C709.678 156.623 701.588 158.3 692.259 158.3C680.889 158.3 671.051 155.821 662.742 150.865C654.579 145.909 648.238 139.131 643.72 130.531C639.201 121.931 636.941 112.238 636.941 101.451C636.941 89.936 639.274 79.9513 643.938 71.4971C648.603 63.0428 655.09 56.4838 663.398 51.8193C671.707 47.0092 681.327 44.6036 692.259 44.6035ZM935.888 44.6035C946.674 44.6036 956.076 46.9362 964.093 51.6006C972.255 56.265 978.597 62.6781 983.115 70.8408C987.78 79.0036 990.111 88.4061 990.111 99.0469C990.111 100.942 990.038 102.837 989.893 104.731C989.747 106.48 989.529 108.157 989.237 109.76H908.775C909.213 114.862 910.524 119.381 912.711 123.316C915.043 127.106 918.104 130.094 921.894 132.28C925.829 134.321 930.275 135.342 935.231 135.342C940.333 135.342 944.706 134.248 948.351 132.062C952.14 129.875 955.128 126.522 957.314 122.004H987.27C985.229 128.418 981.948 134.395 977.43 139.934C972.911 145.472 967.154 149.918 960.157 153.271C953.306 156.623 945.216 158.3 935.888 158.3C924.518 158.3 914.679 155.821 906.37 150.865C898.207 145.909 891.866 139.131 887.348 130.531C882.829 121.931 880.57 112.238 880.57 101.451C880.57 89.936 882.902 79.9513 887.566 71.4971C892.231 63.0428 898.718 56.4838 907.026 51.8193C915.335 47.0091 924.955 44.6035 935.888 44.6035ZM508.647 73.9023H501.214C492.322 73.9023 485.69 76.016 481.317 80.2432C476.945 84.4703 474.758 91.5394 474.758 101.451V155.676H446.989V47.2275H474.758V63.4072C478.548 57.2851 483.358 52.6209 489.188 49.4141C495.019 46.2073 501.505 44.6036 508.647 44.6035V73.9023ZM823.389 44.6035C835.924 44.6035 846.201 48.685 854.218 56.8477C862.235 64.8647 866.243 76.5259 866.243 91.8311V155.676H838.476V95.5479C838.476 87.3852 836.362 80.826 832.135 75.8701C828.053 70.7684 822.004 68.2178 813.987 68.2178C805.97 68.2178 799.775 70.7684 795.402 75.8701C791.175 80.826 789.062 87.3852 789.062 95.5479V155.676H761.293V47.2275H789.062V59.9092C792.851 54.8074 797.881 51.017 804.148 48.5391C810.562 45.9154 816.975 44.6035 823.389 44.6035ZM1066.58 73.9023H1059.15C1050.25 73.9024 1043.62 76.016 1039.25 80.2432C1034.88 84.4703 1032.69 91.5395 1032.69 101.451V155.676H1004.92V47.2275H1032.69V63.4072C1036.48 57.2852 1041.29 52.6209 1047.12 49.4141C1052.95 46.2073 1059.44 44.6035 1066.58 44.6035V73.9023ZM570.531 67.5615C564.555 67.5616 559.016 69.4563 553.914 73.2461C548.812 76.8901 545.679 82.8665 544.513 91.1748H596.769C596.623 83.8868 593.926 78.1294 588.679 73.9023C583.577 69.6753 577.528 67.5615 570.531 67.5615ZM691.385 67.5615C685.408 67.5615 679.869 69.4562 674.768 73.2461C669.666 76.8901 666.532 82.8665 665.366 91.1748H717.622C717.476 83.8868 714.78 78.1294 709.532 73.9023C704.43 69.6752 698.381 67.5615 691.385 67.5615ZM935.013 67.5615C929.036 67.5615 923.497 69.4562 918.396 73.2461C913.294 76.8901 910.16 82.8665 908.994 91.1748H961.25C961.104 83.8868 958.408 78.1294 953.16 73.9023C948.058 69.6752 942.009 67.5615 935.013 67.5615Z" fill="url(#paint0_radial_6485_657)"/>
<defs>
<radialGradient id="paint0_radial_6485_657" cx="0" cy="0" r="1" gradientUnits="userSpaceOnUse" gradientTransform="translate(607.061 49.468) rotate(81.8707) scale(573.879 1279.03)">
<stop stop-color="#B3FF68"/>
<stop offset="1" stop-color="#F1F586"/>
</radialGradient>
</defs>
</svg>
