<svg width="1377" height="618" viewBox="0 0 1377 618" fill="none" xmlns="http://www.w3.org/2000/svg">
<path d="M908.55 449.104C915.087 449.104 921.093 450.016 926.566 451.84H967.156V473.731H951.421C952.333 476.316 953.094 478.9 953.702 481.484C954.462 484.069 954.842 486.729 954.842 489.466C954.842 497.371 952.79 504.364 948.685 510.445C944.58 516.526 939.032 521.315 932.039 524.812C925.197 528.156 917.368 529.828 908.55 529.828C904.75 529.828 901.253 529.524 898.061 528.916C894.869 528.156 891.752 527.016 888.711 525.496C885.367 527.168 883.695 529.829 883.695 533.478C883.695 540.166 889.244 543.511 900.341 543.511H921.092C930.214 543.511 937.967 544.803 944.352 547.388C950.889 549.82 955.83 553.697 959.174 559.018C962.519 564.338 964.192 571.103 964.192 579.312C964.192 587.218 961.835 594.059 957.123 599.836C952.41 605.613 946.025 610.022 937.967 613.062C929.91 616.255 920.941 617.851 911.059 617.851C900.722 617.851 891.448 616.711 883.239 614.431C875.03 612.15 868.492 608.426 863.627 603.257C858.915 598.24 856.558 591.626 856.558 583.417C856.558 578.096 857.699 573.459 859.979 569.507C862.259 565.706 865.756 562.362 870.468 559.474C866.516 557.193 863.551 554.304 861.575 550.808C859.599 547.311 858.611 543.282 858.611 538.722C858.611 528.688 863.323 520.935 872.749 515.462C869.404 511.965 866.82 508.013 864.996 503.604C863.171 499.044 862.259 494.331 862.259 489.466C862.259 481.257 864.235 474.188 868.188 468.259C872.141 462.178 877.614 457.465 884.607 454.12C891.6 450.776 899.581 449.104 908.55 449.104ZM902.166 567.455C896.085 567.455 891.371 568.595 888.027 570.875C884.834 573.155 883.239 576.5 883.239 580.909C883.239 584.406 884.531 587.142 887.115 589.118C889.699 591.246 893.12 592.767 897.376 593.679C901.633 594.591 906.194 595.047 911.059 595.047C918.356 595.047 924.513 593.831 929.53 591.398C934.699 589.118 937.284 585.622 937.284 580.909C937.284 571.94 931.05 567.455 918.584 567.455H902.166ZM1240.52 449.104C1251.77 449.104 1261.57 451.536 1269.93 456.4C1278.45 461.265 1285.06 467.954 1289.77 476.468C1294.64 484.981 1297.07 494.787 1297.07 505.885C1297.07 507.861 1296.99 509.837 1296.84 511.813C1296.69 513.638 1296.46 515.386 1296.16 517.059H1212.24C1212.7 522.379 1214.06 527.093 1216.35 531.197C1218.78 535.15 1221.97 538.266 1225.92 540.546C1230.03 542.674 1234.66 543.739 1239.83 543.739C1245.15 543.739 1249.71 542.599 1253.52 540.318C1257.47 538.038 1260.58 534.541 1262.86 529.828H1294.11C1291.98 536.517 1288.56 542.75 1283.84 548.527C1279.13 554.304 1273.13 558.941 1265.83 562.438C1258.68 565.934 1250.25 567.683 1240.52 567.683C1228.66 567.683 1218.4 565.099 1209.73 559.93C1201.22 554.761 1194.61 547.691 1189.89 538.722C1185.18 529.752 1182.82 519.642 1182.82 508.393C1182.82 496.383 1185.26 485.97 1190.12 477.152C1194.99 468.335 1201.75 461.494 1210.42 456.629C1219.08 451.612 1229.12 449.104 1240.52 449.104ZM655.31 405.32C671.88 405.32 684.498 409.045 693.164 416.494C701.981 423.791 706.39 433.445 706.39 445.455C706.39 454.272 704.262 461.493 700.005 467.118C695.749 472.591 690.428 476.696 684.042 479.433C689.363 481.409 694.229 484.374 698.637 488.326C703.198 492.279 706.846 496.991 709.583 502.464C712.319 507.785 713.687 513.638 713.687 520.023C713.687 528.385 711.635 535.986 707.531 542.827C703.426 549.668 697.497 555.065 689.744 559.018C681.99 562.97 672.489 564.946 661.239 564.946H594.88V405.32H655.31ZM796.932 479.66H789.178C779.905 479.66 772.988 481.865 768.427 486.273C763.867 490.682 761.586 498.055 761.585 508.393V564.946H732.625V451.84H761.585V468.715C765.538 462.33 770.555 457.465 776.636 454.12C782.717 450.776 789.483 449.104 796.932 449.104V479.66ZM840.897 564.946H811.708V451.84H840.897V564.946ZM1010.33 465.066C1014.29 459.746 1019.53 455.792 1026.07 453.208C1032.76 450.472 1039.45 449.104 1046.14 449.104C1059.21 449.104 1069.93 453.36 1078.29 461.873C1086.65 470.234 1090.83 482.397 1090.83 498.359V564.946H1061.87V502.236C1061.87 493.723 1059.67 486.882 1055.26 481.713C1051 476.392 1044.69 473.731 1036.33 473.731C1027.97 473.731 1021.51 476.392 1016.95 481.713C1012.54 486.882 1010.33 493.723 1010.33 502.236V564.946H981.373V405.32H1010.33V465.066ZM1146.36 451.84H1172.13V476.24H1146.36V529.601C1146.36 533.857 1147.5 536.745 1149.78 538.266C1152.06 539.786 1155.03 540.546 1158.68 540.546H1172.13V564.946H1153.89C1141.73 564.946 1132.53 561.982 1126.3 556.053C1120.21 550.124 1117.17 541.23 1117.17 529.372V476.24H1102.58V451.84H1117.17V424.247H1146.36V451.84ZM1376.82 479.66H1369.07C1359.8 479.66 1352.88 481.865 1348.32 486.273C1343.76 490.682 1341.48 498.055 1341.48 508.393V564.946H1312.52V451.84H1341.48V468.715C1345.43 462.33 1350.45 457.465 1356.53 454.12C1362.61 450.776 1369.37 449.104 1376.82 449.104V479.66ZM624.069 540.09H658.502C667.168 540.09 673.553 538.114 677.658 534.161C681.914 530.208 684.042 524.508 684.042 517.059C684.042 509.609 681.838 503.909 677.429 499.956C673.021 496.003 666.56 494.026 658.046 494.026H624.069V540.09ZM908.323 471.907C902.546 471.907 897.833 473.579 894.184 476.924C890.688 480.268 888.939 484.449 888.939 489.466C888.939 494.635 890.612 498.892 893.957 502.236C897.453 505.429 902.242 507.024 908.323 507.024C914.099 507.024 918.812 505.429 922.46 502.236C926.261 498.892 928.162 494.635 928.162 489.466C928.162 484.449 926.261 480.268 922.46 476.924C918.812 473.579 914.099 471.907 908.323 471.907ZM1239.6 473.047C1233.37 473.047 1227.6 475.024 1222.27 478.977C1216.95 482.777 1213.69 489.01 1212.47 497.676H1266.97C1266.82 490.075 1264.01 484.069 1258.53 479.66C1253.21 475.251 1246.9 473.047 1239.6 473.047ZM624.069 469.171H652.801C661.011 469.171 667.016 467.574 670.817 464.382C674.617 461.037 676.517 456.096 676.517 449.56C676.517 443.327 674.617 438.538 670.817 435.193C667.168 431.849 661.011 430.177 652.345 430.177H624.069V469.171ZM826.302 399.392C831.623 399.392 836.108 401.216 839.756 404.864C843.405 408.513 845.229 412.998 845.229 418.318C845.229 423.487 843.405 427.972 839.756 431.772C836.108 435.421 831.623 437.245 826.302 437.245C821.133 437.245 816.649 435.421 812.848 431.772C809.2 427.972 807.375 423.487 807.375 418.318C807.375 412.997 809.2 408.513 812.848 404.864C816.649 401.216 821.133 399.392 826.302 399.392ZM77.9312 196.584C97.0862 196.584 112.745 201.373 124.907 210.95C137.221 220.376 144.898 233.678 147.939 250.856H115.786C113.809 242.191 109.552 235.426 103.015 230.562C96.6301 225.545 88.1167 223.036 77.4751 223.036C67.7458 223.036 59.3086 225.316 52.1636 229.877C45.1704 234.438 39.7728 240.899 35.9722 249.261C32.1717 257.622 30.272 267.656 30.272 279.361C30.272 290.915 32.1717 300.949 35.9722 309.462C39.7728 317.823 45.1704 324.285 52.1636 328.846C59.3086 333.254 67.7458 335.458 77.4751 335.458C88.1167 335.458 96.6301 333.178 103.015 328.617C109.552 323.904 113.809 317.444 115.786 309.234H147.939C144.898 325.653 137.221 338.499 124.907 347.772C112.745 357.046 97.0861 361.683 77.9312 361.683C61.5126 361.683 47.526 358.11 35.9722 350.965C24.4185 343.82 15.6009 334.09 9.52002 321.776C3.43903 309.31 0.398928 295.172 0.398926 279.361C0.398926 263.551 3.36351 249.412 9.29248 236.946C15.2214 224.48 23.9624 214.674 35.5161 207.529C47.0699 200.232 61.2086 196.584 77.9312 196.584ZM270.254 243.104C281.504 243.104 291.31 245.536 299.671 250.4C308.185 255.265 314.798 261.954 319.51 270.468C324.375 278.981 326.807 288.787 326.807 299.885C326.807 301.861 326.732 303.837 326.58 305.813C326.428 307.638 326.199 309.386 325.895 311.059H241.977C242.433 316.379 243.802 321.093 246.083 325.197C248.515 329.15 251.707 332.266 255.66 334.546C259.764 336.674 264.401 337.739 269.57 337.739C274.891 337.739 279.452 336.599 283.252 334.318C287.205 332.038 290.322 328.541 292.602 323.828H323.843C321.715 330.517 318.294 336.75 313.582 342.527C308.869 348.304 302.863 352.941 295.566 356.438C288.421 359.934 279.984 361.683 270.254 361.683C258.397 361.683 248.135 359.098 239.469 353.93C230.956 348.761 224.342 341.691 219.629 332.722C214.917 323.752 212.561 313.642 212.561 302.393C212.561 290.383 214.993 279.97 219.858 271.152C224.723 262.335 231.488 255.494 240.153 250.629C248.818 245.612 258.853 243.104 270.254 243.104ZM392.65 243.104C403.291 243.104 412.261 245.08 419.558 249.032C427.007 252.985 432.708 258.61 436.661 265.907C440.613 273.052 442.589 281.566 442.589 291.447V325.881C442.893 329.225 444.11 331.505 446.238 332.722C448.366 333.938 451.179 334.546 454.675 334.546V358.946C447.53 358.946 441.525 358.262 436.661 356.894C431.948 355.525 428.071 353.549 425.031 350.965C421.99 348.228 419.406 344.808 417.278 340.703C413.781 346.632 408.308 351.649 400.859 355.754C393.562 359.707 385.58 361.683 376.915 361.683C370.226 361.683 363.993 360.314 358.216 357.578C352.439 354.842 347.726 350.965 344.078 345.948C340.581 340.779 338.833 334.698 338.833 327.705C338.833 319.344 340.885 312.502 344.99 307.182C349.094 301.861 354.72 297.909 361.865 295.324C369.162 292.74 377.295 291.447 386.264 291.447H413.173C413.173 286.278 412.337 281.946 410.665 278.449C409.144 274.953 406.788 272.292 403.595 270.468C400.555 268.492 396.754 267.503 392.194 267.503C386.873 267.503 382.083 268.72 377.827 271.152C373.722 273.433 371.214 277.31 370.302 282.782H341.113C341.873 274.573 344.685 267.503 349.55 261.574C354.415 255.645 360.648 251.085 368.25 247.893C375.851 244.7 383.984 243.104 392.65 243.104ZM650.835 243.104C662.085 243.104 671.891 245.536 680.252 250.4C688.766 255.265 695.379 261.954 700.091 270.468C704.956 278.981 707.389 288.787 707.389 299.885C707.389 301.861 707.313 303.837 707.161 305.813C707.009 307.638 706.781 309.386 706.477 311.059H622.559C623.015 316.379 624.383 321.093 626.664 325.197C629.096 329.15 632.289 332.266 636.242 334.546C640.346 336.674 644.983 337.739 650.152 337.739C655.472 337.739 660.033 336.599 663.833 334.318C667.786 332.038 670.903 328.541 673.183 323.828H704.424C702.296 330.517 698.875 336.75 694.163 342.527C689.45 348.304 683.445 352.941 676.148 356.438C669.003 359.934 660.565 361.683 650.835 361.683C638.978 361.683 628.716 359.098 620.05 353.93C611.537 348.761 604.924 341.691 600.211 332.722C595.499 323.752 593.142 313.642 593.142 302.393C593.142 290.383 595.575 279.97 600.44 271.152C605.305 262.335 612.07 255.494 620.735 250.629C629.4 245.612 639.434 243.104 650.835 243.104ZM196.628 358.946H167.44V199.32H196.628V358.946ZM533.505 243.104C546.579 243.104 557.297 247.36 565.659 255.873C574.02 264.234 578.201 276.397 578.201 292.359V358.946H549.24V296.236C549.24 287.723 547.035 280.882 542.626 275.713C538.37 270.392 532.061 267.731 523.7 267.731C515.338 267.731 508.878 270.392 504.317 275.713C499.908 280.882 497.704 287.723 497.704 296.236V358.946H468.743V245.84H497.704V259.066C501.656 253.746 506.901 249.792 513.438 247.208C520.127 244.472 526.816 243.104 533.505 243.104ZM787.141 273.66H779.388C770.115 273.66 763.198 275.865 758.637 280.273C754.077 284.682 751.795 292.055 751.795 302.393V358.946H722.834V245.84H751.795V262.715C755.748 256.33 760.765 251.465 766.846 248.12C772.927 244.776 779.692 243.104 787.141 243.104V273.66ZM388.088 310.146C384.744 310.147 381.552 310.678 378.511 311.742C375.471 312.654 373.039 314.175 371.214 316.304C369.39 318.28 368.478 321.016 368.478 324.513C368.478 329.225 370.074 332.722 373.266 335.002C376.611 337.13 380.639 338.195 385.352 338.195C390.369 338.195 394.93 337.055 399.035 334.774C403.291 332.494 406.712 329.302 409.296 325.197C411.881 321.093 413.173 316.379 413.173 311.059V310.146H388.088ZM269.342 267.047C263.109 267.047 257.332 269.024 252.011 272.977C246.69 276.777 243.422 283.01 242.206 291.676H296.707C296.555 284.075 293.742 278.069 288.269 273.66C282.948 269.252 276.639 267.047 269.342 267.047ZM649.923 267.047C643.69 267.047 637.913 269.024 632.592 272.977C627.272 276.777 624.004 283.011 622.788 291.676H677.288C677.136 284.075 674.324 278.069 668.851 273.66C663.53 269.251 657.221 267.047 649.923 267.047ZM355.852 0.270508C373.781 0.270508 388.65 4.56986 400.457 13.1699C412.263 21.77 419.916 33.6501 423.415 48.8096H392.148C389.816 41.6671 385.588 36.128 379.466 32.1924C373.344 28.111 365.472 26.0703 355.852 26.0703C345.649 26.0704 336.976 28.257 329.833 32.6299C322.691 37.0028 317.225 43.2708 313.435 51.4336C309.791 59.4506 307.969 69.1441 307.969 80.5137C307.969 91.7374 309.791 101.358 313.435 109.375C317.225 117.246 322.545 123.295 329.396 127.522C336.393 131.604 344.556 133.644 353.884 133.645C367.003 133.645 377.061 130.292 384.058 123.587C391.055 116.882 395.5 107.99 397.395 96.9121H348.637V73.2979H426.256V155.946H400.457L398.27 135.831C393.314 143.119 387.119 148.731 379.685 152.667C372.251 156.603 362.776 158.57 351.261 158.57C336.831 158.57 324.222 155.291 313.435 148.731C302.649 142.172 294.267 132.989 288.291 121.182C282.314 109.375 279.327 95.7458 279.327 80.2949C279.327 65.2814 282.241 51.7253 288.072 39.627C293.902 27.5286 302.503 17.9811 313.873 10.9844C325.388 3.842 339.381 0.270565 355.852 0.270508ZM571.805 44.874C582.592 44.8741 591.993 47.2067 600.01 51.8711C608.173 56.5355 614.514 62.9486 619.033 71.1113C623.697 79.2741 626.029 88.6766 626.029 99.3174C626.029 101.212 625.956 103.107 625.81 105.002C625.664 106.751 625.446 108.427 625.155 110.03H544.693C545.13 115.132 546.442 119.651 548.628 123.587C550.961 127.377 554.021 130.364 557.811 132.551C561.747 134.591 566.193 135.612 571.149 135.612C576.251 135.612 580.623 134.518 584.267 132.332C588.057 130.146 591.045 126.793 593.232 122.274H623.187C621.146 128.688 617.866 134.665 613.347 140.204C608.829 145.743 603.071 150.189 596.075 153.541C589.224 156.894 581.134 158.57 571.805 158.57C560.436 158.57 550.596 156.092 542.288 151.136C534.125 146.18 527.784 139.402 523.265 130.802C518.747 122.202 516.487 112.508 516.487 101.722C516.487 90.2065 518.82 80.2218 523.484 71.7676C528.148 63.3133 534.635 56.7543 542.944 52.0898C551.252 47.2797 560.873 44.874 571.805 44.874ZM692.658 44.874C703.444 44.874 712.847 47.2066 720.864 51.8711C729.026 56.5355 735.367 62.9489 739.885 71.1113C744.55 79.2741 746.882 88.6766 746.882 99.3174C746.882 101.212 746.809 103.107 746.664 105.002C746.518 106.751 746.299 108.427 746.007 110.03H665.545C665.983 115.132 667.295 119.651 669.482 123.587C671.814 127.377 674.875 130.364 678.665 132.551C682.6 134.591 687.046 135.612 692.002 135.612C697.104 135.612 701.477 134.518 705.121 132.332C708.91 130.146 711.899 126.793 714.085 122.274H744.04C741.999 128.688 738.719 134.665 734.201 140.204C729.682 145.743 723.924 150.188 716.927 153.541C710.076 156.893 701.987 158.57 692.658 158.57C681.288 158.57 671.45 156.092 663.141 151.136C654.978 146.18 648.637 139.402 644.119 130.802C639.6 122.202 637.34 112.508 637.34 101.722C637.34 90.2065 639.673 80.2218 644.337 71.7676C649.002 63.3134 655.488 56.7543 663.796 52.0898C672.105 47.2797 681.726 44.8741 692.658 44.874ZM936.286 44.874C947.072 44.874 956.475 47.2066 964.492 51.8711C972.654 56.5354 978.995 62.9488 983.513 71.1113C988.178 79.2741 990.51 88.6766 990.51 99.3174C990.51 101.212 990.437 103.107 990.292 105.002C990.146 106.751 989.927 108.427 989.635 110.03H909.174C909.612 115.132 910.923 119.651 913.11 123.587C915.442 127.377 918.503 130.364 922.292 132.551C926.228 134.591 930.674 135.612 935.63 135.612C940.732 135.612 945.104 134.518 948.749 132.332C952.538 130.146 955.527 126.793 957.713 122.274H987.667C985.627 128.688 982.347 134.665 977.829 140.204C973.31 145.743 967.553 150.189 960.556 153.541C953.705 156.894 945.615 158.57 936.286 158.57C924.916 158.57 915.078 156.092 906.769 151.136C898.606 146.18 892.265 139.402 887.747 130.802C883.228 122.202 880.968 112.508 880.968 101.722C880.968 90.2065 883.301 80.2218 887.965 71.7676C892.63 63.3134 899.116 56.7543 907.424 52.0898C915.733 47.2797 925.354 44.8741 936.286 44.874ZM509.046 74.1729H501.613C492.721 74.1729 486.088 76.2865 481.715 80.5137C477.343 84.7408 475.157 91.8102 475.157 101.722V155.946H447.388V47.498H475.157V63.6777C478.947 57.5557 483.757 52.8914 489.587 49.6846C495.418 46.4779 501.904 44.874 509.046 44.874V74.1729ZM823.788 44.874C836.323 44.874 846.6 48.9554 854.617 57.1182C862.634 65.1352 866.642 76.7964 866.642 92.1016V155.946H838.875V95.8184C838.874 87.6558 836.761 81.0965 832.534 76.1406C828.452 71.039 822.403 68.4884 814.386 68.4883C806.369 68.4883 800.174 71.039 795.801 76.1406C791.574 81.0965 789.461 87.6557 789.46 95.8184V155.946H761.692V47.498H789.46V60.1797C793.25 55.078 798.279 51.2876 804.546 48.8096C810.96 46.1858 817.374 44.874 823.788 44.874ZM1066.98 74.1729H1059.54C1050.65 74.1729 1044.02 76.2865 1039.65 80.5137C1035.28 84.7408 1033.09 91.8099 1033.09 101.722V155.946H1005.32V47.498H1033.09V63.6777C1036.88 57.5556 1041.69 52.8914 1047.52 49.6846C1053.35 46.4778 1059.84 44.8741 1066.98 44.874V74.1729ZM570.93 67.832C564.954 67.832 559.415 69.7267 554.313 73.5166C549.211 77.1606 546.078 83.137 544.912 91.4453H597.167C597.022 84.1573 594.325 78.3999 589.078 74.1729C583.976 69.9457 577.927 67.832 570.93 67.832ZM691.784 67.832C685.807 67.832 680.268 69.7268 675.167 73.5166C670.065 77.1607 666.93 83.1369 665.764 91.4453H718.021C717.875 84.1574 715.178 78.3999 709.931 74.1729C704.829 69.9458 698.78 67.8321 691.784 67.832ZM935.412 67.832C929.435 67.832 923.896 69.7268 918.794 73.5166C913.693 77.1606 910.559 83.137 909.393 91.4453H961.649C961.503 84.1573 958.806 78.3999 953.559 74.1729C948.457 69.9457 942.408 67.8321 935.412 67.832Z" fill="#E3E7E2"/>
</svg>
