<svg preserveAspectRatio="none" width="100%" height="100%" overflow="visible" style="display: block;" viewBox="0 0 66 34" fill="none" xmlns="http://www.w3.org/2000/svg">
<g id="Group 1000022311">
<g id="Group 1000022309">
<path id="Vector" d="M10.4248 1.13672C11.0146 0.861913 11.6352 0.94018 12.1592 1.14746C12.681 1.35395 13.1879 1.71558 13.6553 2.1543C14.5939 3.03535 15.5162 4.35932 16.2393 5.90918C16.9623 7.45906 17.3842 9.01656 17.4561 10.3018C17.4918 10.9417 17.4438 11.5623 17.2666 12.0947C17.2451 12.1593 17.2197 12.2232 17.1934 12.2871C17.5393 12.178 17.8805 12.1104 18.1953 12.0928C18.4534 12.0784 18.7416 12.0948 19.0146 12.1855C19.2557 12.2657 19.5455 12.4274 19.7373 12.7305L19.8135 12.8682L19.8711 13.0156C19.98 13.3573 19.9178 13.6836 19.8242 13.9199C19.7182 14.1875 19.5452 14.419 19.3682 14.6074C19.3126 14.6666 19.252 14.7238 19.1895 14.7812C19.723 14.8463 20.2175 14.9656 20.6357 15.1328C20.9646 15.2643 21.2911 15.4429 21.5498 15.6875C21.8105 15.9339 22.0615 16.3092 22.0615 16.7979C22.0614 17.2863 21.8104 17.6609 21.5498 17.9072C21.291 18.1519 20.9646 18.3314 20.6357 18.4629C20.3068 18.5944 19.9305 18.6956 19.5254 18.7646C19.9722 19.0711 20.3636 19.3981 20.6777 19.7324C20.9857 20.0602 21.2529 20.4296 21.4092 20.8242C21.5663 21.2212 21.6384 21.7251 21.4092 22.2168C21.1797 22.7086 20.747 22.9775 20.3418 23.1123C19.939 23.2462 19.4843 23.279 19.0352 23.2539C18.6387 23.2317 18.2096 23.1601 17.7627 23.0479C18.173 23.6119 18.5034 24.1757 18.7324 24.71C18.9472 25.2109 19.0926 25.7293 19.1064 26.2217C19.1203 26.7168 18.9991 27.2714 18.5771 27.6934C18.1551 28.1152 17.6006 28.2374 17.1055 28.2236C16.6129 28.2099 16.0941 28.0634 15.5928 27.8486C14.9065 27.5547 14.1714 27.0948 13.4502 26.5107C13.8302 27.5867 14.0579 28.6243 14.1084 29.5283C14.1441 30.168 14.096 30.7881 13.9189 31.3203C13.7409 31.8551 13.4015 32.3811 12.8115 32.6562C12.2214 32.9313 11.6004 32.8529 11.0762 32.6455C10.5544 32.439 10.0484 32.0773 9.58105 31.6387C8.64236 30.7576 7.72012 29.4337 6.99707 27.8838C6.27401 26.3339 5.85115 24.7764 5.7793 23.4912C5.74659 22.9059 5.78543 22.3371 5.92773 21.8369C5.86174 21.7574 5.79935 21.6762 5.74121 21.5928C5.49992 21.6522 5.26459 21.6917 5.04199 21.7041C4.78396 21.7185 4.49559 21.702 4.22266 21.6113C3.94722 21.5197 3.60751 21.3213 3.42383 20.9277C3.24014 20.534 3.30613 20.146 3.41309 19.876C3.51908 19.6085 3.69215 19.3769 3.86914 19.1885C3.92476 19.1293 3.98427 19.0711 4.04688 19.0137C3.5127 18.9487 3.01731 18.8315 2.59863 18.6641C2.26975 18.5326 1.94337 18.353 1.68457 18.1084C1.45655 17.8928 1.23531 17.5791 1.18359 17.1768L1.17285 16.999L1.18359 16.8203C1.23537 16.418 1.45655 16.1042 1.68457 15.8887C1.94331 15.6441 2.26982 15.4655 2.59863 15.334C2.92837 15.2021 3.30563 15.1003 3.71191 15.0312C3.26383 14.7242 2.87148 14.3957 2.55664 14.0605C2.24884 13.7328 1.98146 13.3642 1.8252 12.9697C1.66793 12.5726 1.5957 12.0681 1.8252 11.5762L1.91992 11.4023C2.16202 11.0193 2.53791 10.7986 2.89258 10.6807C3.29535 10.5467 3.75007 10.5149 4.19922 10.54C4.59426 10.5621 5.02171 10.6326 5.4668 10.7441C5.05779 10.1814 4.72757 9.61993 4.49902 9.08691C4.28414 8.58573 4.13878 8.06678 4.125 7.57422C4.11118 7.07908 4.2323 6.52455 4.6543 6.10254L4.81836 5.95801C5.21413 5.65205 5.69354 5.56115 6.12695 5.57324C6.61943 5.58707 7.13842 5.73254 7.63965 5.94727C8.32776 6.24209 9.06402 6.70465 9.78711 7.29102C9.40544 6.21231 9.17765 5.17183 9.12695 4.26562C9.09118 3.62568 9.14018 3.00507 9.31738 2.47266C9.49543 1.93777 9.8347 1.41177 10.4248 1.13672Z" fill="var(--fill-0, #111212)" stroke="var(--stroke-0, #111212)" stroke-width="1.79335"/>
<g id="Group 1000017860">
<path id="Vector_2" d="M11.0329 20.2392C11.7994 19.4702 13.9741 20.4053 15.8904 22.3278C17.8066 24.2503 18.7387 26.4323 17.9722 27.2013C17.2057 27.9703 15.0309 27.0352 13.1147 25.1126C11.1984 23.1901 10.2664 21.0082 11.0329 20.2392Z" fill="url(#paint0_linear_7106_733)"/>
<path id="Vector_3" d="M7.49643 21.2932C8.67534 20.7417 10.7452 22.6917 12.1195 25.6486C13.4938 28.6056 13.6522 31.4498 12.4733 32.0013C11.2944 32.5529 9.22462 30.6029 7.85028 27.6459C6.47595 24.689 6.31752 21.8448 7.49643 21.2932Z" fill="url(#paint1_linear_7106_733)"/>
<path id="Vector_4" d="M13.5138 18.6283C13.8802 17.8398 15.7702 17.9457 17.735 18.865C19.6999 19.7842 20.9956 21.1686 20.6291 21.9572C20.2626 22.7457 18.3727 22.6397 16.4078 21.7205C14.443 20.8012 13.1473 19.4168 13.5138 18.6283Z" fill="url(#paint2_linear_7106_733)"/>
<path id="Vector_5" d="M15.3103 16.9025C15.3103 16.2499 16.6284 15.721 18.2544 15.721C19.8803 15.721 21.1985 16.2499 21.1985 16.9025C21.1985 17.555 19.8803 18.084 18.2544 18.084C16.6284 18.084 15.3103 17.555 15.3103 16.9025Z" fill="url(#paint3_linear_7106_733)"/>
<path id="Vector_6" d="M15.4818 15.0031C15.665 15.3974 16.61 15.3444 17.5924 14.8848C18.5749 14.4252 19.2227 13.733 19.0395 13.3387C18.8562 12.9444 17.9113 12.9974 16.9288 13.457C15.9464 13.9167 15.2986 14.6089 15.4818 15.0031Z" fill="url(#paint4_linear_7106_733)"/>
<path id="Vector_7" d="M12.2599 13.7627C11.4934 14.5317 9.31864 13.5966 7.4024 11.6741C5.48617 9.75157 4.55412 7.56964 5.32061 6.80062C6.08711 6.03161 8.26189 6.96672 10.1781 8.88926C12.0944 10.8118 13.0264 12.9937 12.2599 13.7627Z" fill="url(#paint5_linear_7106_733)"/>
<path id="Vector_8" d="M15.815 12.7068C14.6361 13.2583 12.5663 11.3083 11.192 8.35136C9.81762 5.3944 9.6592 2.55019 10.8381 1.99865C12.017 1.44711 14.0868 3.39709 15.4612 6.35405C16.8355 9.31101 16.9939 12.1552 15.815 12.7068Z" fill="url(#paint6_linear_7106_733)"/>
<path id="Vector_9" d="M9.77912 15.3728C9.41264 16.1613 7.52271 16.0554 5.55787 15.1361C3.59302 14.2169 2.29729 12.8325 2.66378 12.044C3.03027 11.2554 4.92019 11.3614 6.88504 12.2806C8.84989 13.1999 10.1456 14.5843 9.77912 15.3728Z" fill="url(#paint7_linear_7106_733)"/>
<path id="Vector_10" d="M7.97629 17.1074C7.97629 17.7599 6.65817 18.2889 5.03219 18.2889C3.40622 18.2889 2.0881 17.7599 2.0881 17.1074C2.0881 16.4548 3.40622 15.9259 5.03219 15.9259C6.65817 15.9259 7.97629 16.4548 7.97629 17.1074Z" fill="url(#paint8_linear_7106_733)"/>
<path id="Vector_11" d="M7.83596 18.9996C7.65272 18.6054 6.70775 18.6584 5.72533 19.118C4.74291 19.5776 4.09504 20.2698 4.27829 20.6641C4.46153 21.0583 5.40649 21.0053 6.38892 20.5457C7.37134 20.0861 8.0192 19.3939 7.83596 18.9996Z" fill="url(#paint9_linear_7106_733)"/>
</g>
</g>
<path id="Vector_12" d="M36.2162 17.8015C36.2162 18.0478 36.176 18.278 36.0954 18.492C36.0149 18.7061 35.9042 18.9019 35.7634 19.0797C35.6225 19.2533 35.4574 19.4088 35.2682 19.5461C35.0831 19.6834 34.8818 19.7985 34.6644 19.8914C34.4511 19.9843 34.2297 20.0549 34.0003 20.1034C33.7708 20.1478 33.5454 20.17 33.3241 20.17H28.2099V11.4468H32.8833C33.0886 11.4468 33.3039 11.463 33.5293 11.4953C33.7547 11.5236 33.9741 11.57 34.1875 11.6346C34.4048 11.6992 34.6101 11.7841 34.8033 11.8891C35.0006 11.9941 35.1716 12.1233 35.3166 12.2768C35.4655 12.4262 35.5822 12.5998 35.6667 12.7977C35.7553 12.9956 35.7996 13.2218 35.7996 13.4762C35.7996 13.7185 35.7513 13.9386 35.6547 14.1365C35.5581 14.3344 35.4273 14.5121 35.2622 14.6696C35.1012 14.8231 34.914 14.9604 34.7007 15.0815C34.4914 15.1986 34.27 15.3016 34.0365 15.3905C34.3304 15.4713 34.6081 15.5782 34.8698 15.7115C35.1354 15.8448 35.3669 16.0084 35.5641 16.2022C35.7654 16.3961 35.9244 16.6262 36.0411 16.8928C36.1578 17.1553 36.2162 17.4582 36.2162 17.8015ZM33.3663 13.6882C33.3663 13.1955 33.2355 12.8361 32.9739 12.61C32.7162 12.3838 32.3479 12.2707 31.8689 12.2707H30.607V15.0997H31.6636C31.881 15.0997 32.0923 15.0735 32.2976 15.021C32.5029 14.9644 32.684 14.8796 32.841 14.7665C33.002 14.6494 33.1288 14.502 33.2214 14.3243C33.318 14.1466 33.3663 13.9346 33.3663 13.6882ZM33.789 17.65C33.789 17.4118 33.7588 17.1896 33.6984 16.9836C33.638 16.7737 33.5454 16.5939 33.4207 16.4445C33.2959 16.2911 33.1389 16.1719 32.9497 16.0871C32.7645 15.9983 32.5452 15.9538 32.2916 15.9538H30.607V19.322H32.0802C32.3257 19.322 32.5532 19.2816 32.7625 19.2008C32.9718 19.12 33.153 19.007 33.3059 18.8616C33.4589 18.7161 33.5776 18.5405 33.6622 18.3345C33.7467 18.1286 33.789 17.9004 33.789 17.65ZM43.6549 13.1733L41.119 19.328C40.8292 20.0307 40.5051 20.7253 40.1469 21.4119C39.7927 22.1025 39.4083 22.7648 38.9937 23.3988L38.1967 22.9142C38.2973 22.7325 38.416 22.5225 38.5529 22.2842C38.6898 22.0459 38.8246 21.7996 38.9574 21.5451C39.0903 21.2907 39.213 21.0383 39.3258 20.788C39.4384 20.5416 39.525 20.3154 39.5854 20.1095L36.5362 13.1733H38.577L40.648 17.9044L42.2421 13.1733H43.6549ZM50.4413 13.7912L49.2943 15.6994C49.246 15.5379 49.1836 15.3561 49.1072 15.1542C49.0307 14.9523 48.9361 14.7645 48.8234 14.5909C48.7107 14.4131 48.5758 14.2658 48.4189 14.1486C48.2619 14.0275 48.0807 13.9669 47.8754 13.9669C47.6862 13.9669 47.5212 14.0154 47.3803 14.1123C47.2435 14.2092 47.1267 14.3364 47.0301 14.4939C46.9335 14.6474 46.853 14.8231 46.7886 15.021C46.7282 15.2148 46.6799 15.4126 46.6437 15.6146C46.6115 15.8125 46.5893 16.0043 46.5773 16.1901C46.5652 16.3718 46.5592 16.5293 46.5592 16.6626V20.17H44.5123V13.1733H45.2972L46.1244 14.8029C46.2371 14.5403 46.366 14.3001 46.5108 14.082C46.6558 13.8599 46.8228 13.6701 47.012 13.5125C47.2012 13.351 47.4145 13.2258 47.652 13.137C47.8935 13.0481 48.1653 13.0037 48.4671 13.0037C48.6241 13.0037 48.7992 13.0178 48.9924 13.0461C49.1856 13.0703 49.3748 13.1148 49.56 13.1794C49.7454 13.24 49.916 13.3207 50.0733 13.4217C50.2301 13.5227 50.3528 13.6458 50.4413 13.7912ZM58.1699 20.17H57.3849L56.4792 18.6496C56.3907 18.904 56.268 19.1341 56.1112 19.3401C55.9584 19.5461 55.7788 19.7238 55.5736 19.8732C55.3723 20.0186 55.1492 20.1317 54.9034 20.2124C54.662 20.2932 54.4063 20.3336 54.1367 20.3336C53.6055 20.3336 53.1306 20.2387 52.7117 20.0489C52.2932 19.8591 51.9391 19.6006 51.6492 19.2735C51.3594 18.9423 51.1378 18.5546 50.9849 18.1104C50.8321 17.6662 50.7554 17.1896 50.7554 16.6808C50.7554 16.1719 50.8321 15.6954 50.9849 15.2511C51.1378 14.8069 51.3594 14.4212 51.6492 14.0941C51.9391 13.767 52.2932 13.5085 52.7117 13.3187C53.1306 13.1289 53.6055 13.034 54.1367 13.034C54.5433 13.034 54.9157 13.1127 55.2536 13.2702C55.5958 13.4277 55.8877 13.6741 56.129 14.0093V10.5988H58.1699V20.17ZM56.1172 16.6808C56.1172 16.5192 56.1053 16.3415 56.0811 16.1477C56.0568 15.9538 56.0187 15.7579 55.9663 15.5601C55.9139 15.3622 55.8456 15.1704 55.761 14.9846C55.6765 14.7988 55.5716 14.6332 55.447 14.4878C55.3263 14.3425 55.1833 14.2274 55.0181 14.1425C54.8574 14.0537 54.6719 14.0093 54.4626 14.0093C54.2331 14.0093 54.0343 14.0517 53.8651 14.1365C53.696 14.2173 53.551 14.3283 53.4304 14.4697C53.3097 14.607 53.2088 14.7665 53.1286 14.9483C53.052 15.13 52.9916 15.3198 52.9471 15.5177C52.9031 15.7156 52.8709 15.9155 52.8507 16.1174C52.8343 16.3153 52.8264 16.5031 52.8264 16.6808C52.8264 16.8585 52.8343 17.0482 52.8507 17.2502C52.8709 17.4481 52.9031 17.646 52.9471 17.8438C52.9916 18.0417 53.052 18.2336 53.1286 18.4193C53.2088 18.6011 53.3097 18.7626 53.4304 18.904C53.551 19.0413 53.696 19.1524 53.8651 19.2372C54.0343 19.3179 54.2331 19.3583 54.4626 19.3583C54.6922 19.3583 54.8935 19.3179 55.0666 19.2372C55.2397 19.1564 55.3866 19.0473 55.5073 18.91C55.6319 18.7687 55.7328 18.6092 55.809 18.4314C55.8896 18.2497 55.952 18.0599 55.9965 17.8621C56.0405 17.6601 56.0707 17.4582 56.087 17.2563C56.1073 17.0544 56.1172 16.8625 56.1172 16.6808ZM65.8747 17.9347C65.8747 18.2416 65.8301 18.5142 65.7416 18.7525C65.6531 18.9908 65.5324 19.1988 65.3795 19.3765C65.2262 19.5502 65.0452 19.6975 64.8359 19.8187C64.6267 19.9358 64.4012 20.0307 64.1598 20.1034C63.9224 20.1761 63.6726 20.2286 63.4109 20.2609C63.1493 20.2932 62.8896 20.3094 62.6319 20.3094C62.2862 20.3094 61.98 20.2871 61.7144 20.2427C61.4487 20.1983 61.195 20.1276 60.9536 20.0307C60.7122 19.9297 60.4704 19.8005 60.229 19.643C59.9916 19.4855 59.726 19.2937 59.4322 19.0675L60.6212 18.0922C60.7301 18.2982 60.873 18.486 61.0501 18.6556C61.2311 18.8212 61.4186 18.9645 61.6115 19.0857C61.8049 19.2068 61.9918 19.2997 62.1734 19.3644C62.3544 19.429 62.5013 19.4613 62.6141 19.4613C62.7066 19.4613 62.8114 19.4592 62.9282 19.4552C63.0449 19.4471 63.1636 19.435 63.2843 19.4189C63.405 19.3987 63.5237 19.3704 63.6404 19.3341C63.7572 19.2977 63.86 19.2493 63.9486 19.1887C64.0411 19.1241 64.1133 19.0453 64.1657 18.9524C64.2221 18.8555 64.2503 18.7404 64.2503 18.6071C64.2503 18.4698 64.2142 18.3507 64.1415 18.2497C64.0732 18.1447 63.9827 18.0539 63.8699 17.9771C63.7572 17.9004 63.6286 17.8358 63.4836 17.7833C63.3387 17.7308 63.1918 17.6843 63.0424 17.6439C62.898 17.6036 62.757 17.5693 62.62 17.541C62.483 17.5087 62.3643 17.4783 62.2639 17.4501C62.0784 17.3976 61.8835 17.3451 61.6783 17.2926C61.473 17.2361 61.2697 17.1734 61.0684 17.1048C60.8671 17.0321 60.6737 16.9473 60.4887 16.8504C60.3076 16.7535 60.1464 16.6383 60.0054 16.5051C59.8689 16.3678 59.7581 16.2082 59.6735 16.0265C59.5929 15.8408 59.5528 15.6247 59.5528 15.3784C59.5528 14.926 59.6414 14.5484 59.8185 14.2456C59.9995 13.9386 60.2369 13.6943 60.5307 13.5125C60.8245 13.3268 61.1589 13.1955 61.5333 13.1188C61.9078 13.0421 62.2881 13.0037 62.6744 13.0037C62.94 13.0037 63.22 13.032 63.5138 13.0885C63.8076 13.141 64.0935 13.2218 64.371 13.3308C64.649 13.4358 64.9082 13.5651 65.15 13.7185C65.3914 13.872 65.5927 14.0477 65.7535 14.2456L64.5644 15.2269C64.4759 14.9846 64.3591 14.7766 64.2142 14.603C64.0732 14.4293 63.9184 14.2879 63.7493 14.1789C63.584 14.0658 63.4129 13.983 63.2358 13.9305C63.0627 13.878 62.902 13.8518 62.7531 13.8518C62.6081 13.8518 62.4449 13.8578 62.2639 13.8699C62.0829 13.8821 61.9117 13.9164 61.7505 13.9729C61.5937 14.0295 61.4586 14.1163 61.3459 14.2334C61.2375 14.3465 61.1831 14.504 61.1831 14.7059C61.1831 14.8513 61.2153 14.9765 61.2796 15.0815C61.3478 15.1825 61.4364 15.2713 61.5452 15.348C61.654 15.4207 61.7767 15.4834 61.9137 15.5359C62.0547 15.5843 62.1976 15.6287 62.342 15.6691C62.487 15.7055 62.6279 15.7378 62.7649 15.766C62.902 15.7943 63.0246 15.8246 63.1334 15.8569C63.3184 15.9094 63.5138 15.9639 63.7191 16.0205C63.9283 16.073 64.1336 16.1356 64.3349 16.2082C64.5362 16.2769 64.7291 16.3597 64.9146 16.4566C65.1035 16.5495 65.2687 16.6646 65.4097 16.8019C65.5502 16.9392 65.663 17.1007 65.7475 17.2865C65.8321 17.4683 65.8747 17.6843 65.8747 17.9347Z" fill="var(--fill-0, #111212)"/>
</g>
<defs>
<linearGradient id="paint0_linear_7106_733" x1="17.9722" y1="27.2013" x2="11.0101" y2="20.262" gradientUnits="userSpaceOnUse">
<stop stop-color="#1FD83C"/>
<stop offset="1" stop-color="#5FFF5B"/>
</linearGradient>
<linearGradient id="paint1_linear_7106_733" x1="12.4733" y1="32.0013" x2="7.46954" y2="21.3058" gradientUnits="userSpaceOnUse">
<stop stop-color="#1FD83C"/>
<stop offset="1" stop-color="#5FFF5B"/>
</linearGradient>
<linearGradient id="paint2_linear_7106_733" x1="20.6291" y1="21.9572" x2="13.5054" y2="18.6462" gradientUnits="userSpaceOnUse">
<stop stop-color="#1FD83C"/>
<stop offset="1" stop-color="#5FFF5B"/>
</linearGradient>
<linearGradient id="paint3_linear_7106_733" x1="21.1985" y1="16.9025" x2="15.3103" y2="16.9025" gradientUnits="userSpaceOnUse">
<stop stop-color="#1FD83C"/>
<stop offset="1" stop-color="#5FFF5B"/>
</linearGradient>
<linearGradient id="paint4_linear_7106_733" x1="19.0395" y1="13.3387" x2="15.4776" y2="14.9942" gradientUnits="userSpaceOnUse">
<stop stop-color="#1FD83C"/>
<stop offset="1" stop-color="#5FFF5B"/>
</linearGradient>
<linearGradient id="paint5_linear_7106_733" x1="5.32061" y1="6.80062" x2="12.2827" y2="13.7399" gradientUnits="userSpaceOnUse">
<stop stop-color="#0C8FD9"/>
<stop offset="1" stop-color="#6BCAFF"/>
</linearGradient>
<linearGradient id="paint6_linear_7106_733" x1="10.8381" y1="1.99865" x2="15.8419" y2="12.6942" gradientUnits="userSpaceOnUse">
<stop stop-color="#0C8FD9"/>
<stop offset="1" stop-color="#6BCAFF"/>
</linearGradient>
<linearGradient id="paint7_linear_7106_733" x1="2.66378" y1="12.044" x2="9.78745" y2="15.3549" gradientUnits="userSpaceOnUse">
<stop stop-color="#0C8FD9"/>
<stop offset="1" stop-color="#6BCAFF"/>
</linearGradient>
<linearGradient id="paint8_linear_7106_733" x1="2.0881" y1="17.1074" x2="7.97629" y2="17.1074" gradientUnits="userSpaceOnUse">
<stop stop-color="#0C8FD9"/>
<stop offset="1" stop-color="#6BCAFF"/>
</linearGradient>
<linearGradient id="paint9_linear_7106_733" x1="4.27829" y1="20.6641" x2="7.84012" y2="19.0086" gradientUnits="userSpaceOnUse">
<stop stop-color="#0C8FD9"/>
<stop offset="1" stop-color="#6BCAFF"/>
</linearGradient>
</defs>
</svg>
