<svg width="147" height="147" viewBox="0 0 147 147" fill="none" xmlns="http://www.w3.org/2000/svg">
<path d="M79.0869 13.0382C77.9394 12.9361 77.0155 12.6913 76.3151 12.3037C75.6157 11.9042 75.1128 11.3956 74.8063 10.778C74.5128 10.1496 74.4001 9.45284 74.4681 8.68786L74.4953 8.38306L76.3958 8.5521L76.3782 8.74932C76.3346 9.23939 76.3816 9.6592 76.5192 10.0088C76.6687 10.3594 76.9631 10.6386 77.4025 10.8463C77.8418 11.054 78.4858 11.1957 79.3344 11.2711C80.2189 11.3498 80.8516 11.2796 81.2325 11.0605C81.6145 10.8294 81.83 10.439 81.8789 9.88913C81.9118 9.51859 81.8846 9.21498 81.7972 8.97831C81.7099 8.74164 81.5112 8.53724 81.2012 8.3651C80.9043 8.18207 80.4503 8.00315 79.8394 7.82834L77.8322 7.23417C77.1506 7.04103 76.589 6.78627 76.1472 6.46989C75.7066 6.14157 75.3804 5.74511 75.1688 5.28053C74.969 4.81701 74.8968 4.27448 74.9521 3.65294C75.0053 3.0553 75.2101 2.51331 75.5666 2.02698C75.9361 1.52976 76.4639 1.14902 77.15 0.88477C77.8481 0.621579 78.7111 0.535699 79.739 0.627127C80.8387 0.724935 81.7127 0.989406 82.361 1.42054C83.0213 1.85274 83.4798 2.38746 83.7363 3.02469C84.0059 3.65104 84.1088 4.32279 84.045 5.03996L84.0258 5.25511L82.1074 5.08448L82.125 4.88726C82.1696 4.38524 82.1226 3.96543 81.984 3.62782C81.8584 3.27932 81.5938 3.00279 81.1904 2.79825C80.7999 2.58281 80.2521 2.44373 79.5469 2.381C78.6624 2.30233 78.0112 2.37693 77.5934 2.60481C77.1755 2.83269 76.9432 3.20959 76.8964 3.73552C76.8645 4.0941 76.8988 4.38628 76.9992 4.61207C77.1115 4.83891 77.3172 5.03189 77.6163 5.19102C77.9284 5.33925 78.3476 5.50303 78.8737 5.68235L80.8794 6.29444C81.6316 6.50592 82.227 6.78777 82.6655 7.14001C83.116 7.4933 83.4346 7.90716 83.6213 8.38156C83.809 8.84402 83.8758 9.38004 83.8216 9.98963C83.7663 10.6112 83.5599 11.1711 83.2023 11.6694C82.8448 12.1677 82.3235 12.543 81.6385 12.7953C80.9654 13.0486 80.1148 13.1296 79.0869 13.0382ZM86.729 14.1502L84.8702 13.5812L88.4005 2.04947L91.0339 2.85565L91.7454 10.0009L91.9006 13.0604L92.0383 13.1025L93.8796 10.6543L98.4004 5.11086L101.034 5.91704L97.5034 17.4487L95.6618 16.8849L97.7484 10.0692L98.4074 8.16258L98.2869 8.12569L96.9739 9.83208L92.5163 15.169L90.2788 14.484L89.5557 7.56107L89.4574 5.42261L89.3025 5.37519L88.8156 7.33449L86.729 14.1502ZM99.9767 18.7132L98.2114 17.7029L108.279 9.56945L110.701 10.9553L108.788 23.7559L106.96 22.7098L108.216 14.1374L108.662 11.8001L108.537 11.7286L106.732 13.288L99.9767 18.7132ZM108.375 19.911L101.782 16.138L102.65 14.6226L109.242 18.3957L108.375 19.911ZM110.856 25.5671L109.376 24.3069L117.195 15.1244L121.142 18.4851C121.818 19.0608 122.309 19.6683 122.616 20.3077C122.93 20.9379 123.045 21.5714 122.96 22.2082C122.892 22.8436 122.609 23.4537 122.111 24.0384C121.683 24.541 121.209 24.8939 120.689 25.0974C120.186 25.2995 119.653 25.3423 119.09 25.2257C118.545 25.1077 117.986 24.8291 117.414 24.3897L117.321 24.4994C117.566 24.8968 117.708 25.294 117.749 25.6909C117.789 26.0877 117.759 26.5115 117.659 26.9622L116.873 30.6899L115.146 29.2196L115.863 25.74C115.951 25.3584 115.992 25.0146 115.984 24.7088C115.977 24.4029 115.894 24.1116 115.735 23.8349C115.577 23.5582 115.32 23.2681 114.963 22.9647L113.867 22.0312L110.856 25.5671ZM117.543 17.7141L114.906 20.8115L117.551 23.0636C118.145 23.5693 118.671 23.8122 119.129 23.7925C119.587 23.7728 120.053 23.4842 120.528 22.9269C120.994 22.3787 121.201 21.8769 121.147 21.4215C121.102 20.957 120.782 20.4719 120.188 19.9662L117.543 17.7141ZM120.615 35.2387L119.381 33.7602L128.639 26.0313L129.873 27.5098L120.615 35.2387ZM131.163 31.7792L124.668 23.9999L126.009 22.8809L132.503 30.6602L131.163 31.7792ZM124.594 40.7521L123.607 39.0774L133.996 32.9536L134.983 34.6284L124.594 40.7521ZM127.985 46.5052L123.908 39.5891L125.428 38.6934L129.504 45.6094L127.985 46.5052ZM132.314 43.6403L128.374 36.9568L129.894 36.0611L133.833 42.7446L132.314 43.6403ZM136.87 41.268L132.794 34.3519L134.298 33.4654L138.374 40.3814L136.87 41.268ZM129.29 49.7498L128.615 47.9267L139.926 43.7408L141.725 48.6025C142.033 49.4353 142.165 50.2056 142.119 50.9132C142.085 51.6167 141.876 52.2254 141.49 52.7392C141.12 53.2601 140.575 53.6538 139.854 53.9204C139.235 54.1494 138.649 54.2256 138.096 54.1488C137.559 54.079 137.073 53.8557 136.639 53.4789C136.221 53.1091 135.87 52.5928 135.586 51.9301L135.451 51.98C135.47 52.4464 135.4 52.8626 135.241 53.2284C135.083 53.5943 134.849 53.9494 134.542 54.2936L132.033 57.1606L131.246 55.0336L133.572 52.3491C133.836 52.0595 134.04 51.7794 134.183 51.509C134.326 51.2385 134.396 50.9439 134.393 50.6251C134.39 50.3062 134.308 49.9273 134.145 49.4884L133.645 48.138L129.29 49.7498ZM138.963 46.17L135.148 47.5819L136.354 50.84C136.624 51.5715 136.964 52.0406 137.373 52.2475C137.783 52.4543 138.331 52.4306 139.017 52.1766C139.692 51.9267 140.118 51.59 140.294 51.1666C140.481 50.739 140.439 50.1595 140.169 49.428L138.963 46.17ZM133.647 77.9342C133.721 76.7846 133.944 75.8551 134.315 75.1457C134.698 74.437 135.194 73.9221 135.804 73.601C136.426 73.2926 137.119 73.1633 137.886 73.2131L138.191 73.2329L138.067 75.1369L137.87 75.1241C137.379 75.0922 136.96 75.1492 136.614 75.295C136.267 75.4529 135.995 75.7539 135.798 76.198C135.601 76.6422 135.474 77.2894 135.419 78.1396C135.362 79.0257 135.447 79.6565 135.675 80.0321C135.915 80.4085 136.311 80.6146 136.861 80.6503C137.233 80.6745 137.536 80.64 137.77 80.547C138.005 80.454 138.204 80.2506 138.369 79.9366C138.545 79.6353 138.713 79.1773 138.873 78.5624L139.419 76.5415C139.596 75.8556 139.837 75.288 140.143 74.8389C140.461 74.3905 140.849 74.055 141.309 73.8323C141.767 73.6216 142.308 73.5365 142.931 73.577C143.53 73.6159 144.076 73.8077 144.571 74.1525C145.077 74.51 145.47 75.0286 145.751 75.7082C146.03 76.3998 146.137 77.2605 146.07 78.2904C145.998 79.3921 145.755 80.2721 145.339 80.9306C144.923 81.601 144.399 82.072 143.768 82.3437C143.148 82.6281 142.479 82.747 141.761 82.7003L141.545 82.6863L141.67 80.7643L141.868 80.7772C142.371 80.8099 142.789 80.7529 143.123 80.6062C143.469 80.4723 143.739 80.2013 143.934 79.7931C144.14 79.3976 144.266 78.8466 144.312 78.1401C144.369 77.254 144.279 76.6048 144.042 76.1925C143.804 75.7802 143.421 75.5569 142.895 75.5227C142.535 75.4994 142.244 75.5406 142.021 75.6463C141.797 75.764 141.609 75.9743 141.457 76.2771C141.316 76.5926 141.162 77.0155 140.995 77.5458L140.431 79.5655C140.238 80.3226 139.97 80.9245 139.629 81.3713C139.286 81.83 138.88 82.1584 138.41 82.3563C137.952 82.5551 137.418 82.6346 136.807 82.5949C136.185 82.5545 135.62 82.3615 135.113 82.0159C134.607 81.6703 134.219 81.1581 133.95 80.4793C133.681 79.8124 133.58 78.964 133.647 77.9342ZM131.809 88.6198C132.083 87.5627 132.502 86.7106 133.066 86.0635C133.639 85.4309 134.331 85.009 135.142 84.7977C135.95 84.5979 136.848 84.626 137.835 84.8818L144.944 86.7238L144.457 88.6057L137.348 86.7637C136.651 86.5831 136.063 86.53 135.585 86.6045C135.104 86.6906 134.706 86.9346 134.391 87.3365C134.088 87.7414 133.837 88.3272 133.639 89.0938C133.44 89.8605 133.375 90.4945 133.443 90.9957C133.523 91.4999 133.754 91.9006 134.136 92.1978C134.515 92.5067 135.052 92.7514 135.749 92.932L142.859 94.774L142.371 96.6559L135.262 94.8138C134.274 94.558 133.478 94.1408 132.871 93.5622C132.262 92.9953 131.862 92.2904 131.671 91.4477C131.489 90.6195 131.535 89.6769 131.809 88.6198ZM127.821 99.6977C128.31 98.6549 128.857 97.8711 129.462 97.3462C130.077 96.8264 130.727 96.5285 131.412 96.4526C132.103 96.3926 132.797 96.5258 133.492 96.8522L133.769 96.9823L132.958 98.7094L132.779 98.6252C132.333 98.4161 131.923 98.3162 131.547 98.3255C131.167 98.3456 130.803 98.5263 130.457 98.8677C130.112 99.209 129.758 99.7653 129.395 100.537C129.018 101.34 128.867 101.959 128.942 102.392C129.028 102.83 129.321 103.166 129.82 103.401C130.157 103.559 130.452 103.637 130.704 103.637C130.956 103.636 131.216 103.519 131.484 103.287C131.758 103.071 132.082 102.706 132.456 102.192L133.703 100.511C134.118 99.9369 134.55 99.4968 134.999 99.1905C135.458 98.8893 135.943 98.719 136.452 98.6796C136.956 98.6511 137.49 98.7694 138.055 99.0346C138.598 99.2897 139.037 99.668 139.371 100.17C139.711 100.687 139.888 101.314 139.901 102.049C139.908 102.795 139.693 103.635 139.254 104.569C138.785 105.569 138.237 106.299 137.609 106.76C136.977 107.232 136.317 107.479 135.631 107.501C134.95 107.539 134.283 107.405 133.632 107.099L133.436 107.008L134.255 105.264L134.434 105.348C134.89 105.563 135.301 105.662 135.665 105.648C136.036 105.65 136.386 105.496 136.717 105.187C137.053 104.895 137.372 104.428 137.673 103.787C138.05 102.983 138.204 102.346 138.133 101.875C138.062 101.405 137.788 101.057 137.31 100.833C136.984 100.68 136.698 100.611 136.451 100.628C136.2 100.656 135.948 100.783 135.696 101.009C135.45 101.252 135.152 101.589 134.803 102.022L133.54 103.696C133.083 104.329 132.614 104.792 132.133 105.083C131.646 105.385 131.148 105.542 130.638 105.555C130.14 105.572 129.613 105.451 129.059 105.191C128.494 104.926 128.039 104.54 127.694 104.033C127.349 103.526 127.175 102.908 127.173 102.178C127.166 101.458 127.382 100.632 127.821 99.6977ZM122.735 108.779L123.806 107.179L133.827 113.889L132.755 115.49L122.735 108.779ZM129.021 117.928L134.66 109.508L136.111 110.479L130.472 118.9L129.021 117.928ZM119.979 112.234L121.378 110.757L126.905 122.46L124.986 124.486L112.999 119.606L114.447 118.076L122.481 121.321L124.647 122.306L124.746 122.201L123.656 120.079L119.979 112.234ZM116.833 120.112L122.055 114.597L123.323 115.797L118.1 121.313L116.833 120.112ZM110.851 121.32L112.359 120.093L119.974 129.444L118.466 130.672L110.851 121.32ZM107.521 123.536L109.176 122.515L115.507 132.78L113.73 133.876L106.21 130.393L104.111 129.425L103.988 129.5L105 131.14L108.628 137.023L106.974 138.043L100.642 127.779L102.42 126.683L109.867 130.083L112.016 131.063L112.123 130.997L111.093 129.327L107.521 123.536ZM98.0727 128.863L99.9783 128.151L99.7937 141.093L97.1798 142.068L88.5615 132.412L90.5345 131.676L96.3222 138.123L97.8341 139.961L97.969 139.91L97.9243 137.525L98.0727 128.863ZM91.7815 134.554L98.898 131.898L99.5085 133.533L92.392 136.189L91.7815 134.554ZM82.0734 133.429L87.7585 132.503L89.6974 144.406L84.2077 145.3C83.4379 145.425 82.7573 145.427 82.1659 145.304C81.5745 145.182 81.095 144.926 80.7276 144.536C80.3601 144.146 80.1214 143.613 80.0114 142.938C79.8995 142.251 80.0023 141.651 80.3199 141.137C80.6255 140.625 81.1537 140.247 81.9042 140.004L81.8811 139.861C80.9517 139.903 80.2177 139.689 79.6788 139.217C79.1282 138.747 78.7892 138.122 78.6619 137.34C78.5519 136.665 78.6113 136.06 78.8402 135.524C79.069 134.988 79.4574 134.536 80.0052 134.167C80.5431 133.812 81.2325 133.566 82.0734 133.429ZM86.7137 138.181L86.1234 134.556L82.4103 135.161C81.6878 135.279 81.187 135.488 80.9077 135.789C80.6166 136.092 80.5279 136.592 80.6418 137.291C80.7575 138.002 81.0015 138.455 81.3736 138.649C81.7477 138.856 82.29 138.901 83.0007 138.785L86.7137 138.181ZM87.498 142.995L86.9742 139.78L83.5809 140.332C82.8703 140.448 82.3793 140.643 82.108 140.919C81.8387 141.206 81.7532 141.651 81.8516 142.255C81.9519 142.871 82.1684 143.268 82.5012 143.444C82.824 143.635 83.3408 143.672 84.0514 143.557L87.498 142.995ZM74.5614 134.289L76.5039 134.212L76.9815 146.262L75.0391 146.339L74.5614 134.289ZM70.5629 134.121L72.502 134.259L71.6476 146.289L69.7085 146.151L70.5629 134.121ZM64.1531 133.666L71.9275 134.218L71.8025 135.978L64.0281 135.426L64.1531 133.666ZM61.3519 133.157L63.2659 133.497L61.1544 145.371L59.2404 145.031L61.3519 133.157ZM54.8183 131.264L56.662 131.821L53.1731 143.366L51.3295 142.808L54.8183 131.264ZM47.9061 139.95L57.6067 142.882L57.1016 144.553L47.401 141.621L47.9061 139.95ZM42.9608 130.832L44.4354 131.586L45.1759 140.738L43.2045 139.73L42.8645 135.372L42.7308 133.181L42.6026 133.116L40.7808 134.307L37.0657 136.593L35.1102 135.593L42.9608 130.832ZM44.7657 126.984L46.4967 127.869L43.9329 132.886L42.2018 132.001L44.7657 126.984ZM25.6389 110.555L27.2805 112.855L19.085 122.132L17.7884 120.315L22.4335 115.142L24.8512 112.797L24.7676 112.68L21.6075 113.985L14.9233 116.301L13.3443 114.088L17.7071 108.52L19.9575 105.941L19.8843 105.838L16.8706 107.348L10.4687 110.059L9.19301 108.272L20.6406 103.551L22.2823 105.852L18.3423 110.897L15.87 113.878L15.9641 114.01L19.5762 112.626L25.6389 110.555ZM17.7505 98.6299L18.5915 100.383L7.7185 105.6L6.87748 103.847L17.7505 98.6299ZM15.4366 92.2333L16.072 94.0515L4.68713 98.0301L4.05175 96.2119L15.4366 92.2333ZM4.3461 91.7617L7.68929 101.328L6.04104 101.904L2.69785 92.3377L4.3461 91.7617ZM12.4894 77.7281L12.7852 79.6494L0.865562 81.4843L0.569786 79.563L12.4894 77.7281ZM13.7108 85.6626L14.0066 87.584L2.08701 89.4189L1.79123 87.4975L13.7108 85.6626ZM7.49857 79.498L8.77205 87.7706L7.04638 88.0362L5.7729 79.7637L7.49857 79.498ZM15.178 55.4913L13.5875 61.0274L1.99642 57.6973L3.53223 52.3515C3.7476 51.6019 4.03696 50.9858 4.4003 50.5034C4.76364 50.021 5.20009 49.6969 5.70967 49.5311C6.21924 49.3654 6.80273 49.377 7.46014 49.5658C8.12908 49.758 8.62802 50.1074 8.95694 50.6139C9.28918 51.1089 9.40528 51.7478 9.30524 52.5306L9.44364 52.5703C9.80258 51.7121 10.3103 51.14 10.9667 50.8542C11.6265 50.5568 12.337 50.5174 13.0982 50.7361C13.7556 50.925 14.2777 51.2373 14.6644 51.673C15.0511 52.1088 15.2943 52.6531 15.3939 53.3059C15.4852 53.944 15.4133 54.6724 15.178 55.4913ZM8.89968 57.6579L12.4289 58.6719L13.4677 55.0561C13.6698 54.3526 13.6945 53.8103 13.5418 53.4293C13.3924 53.0368 12.9774 52.7428 12.2969 52.5473C11.6049 52.3485 11.0914 52.3758 10.7564 52.6291C10.4099 52.8792 10.1373 53.3502 9.93846 54.0422L8.89968 57.6579ZM4.21132 56.311L7.34266 57.2106L8.29198 53.9063C8.49079 53.2143 8.5237 52.6868 8.39072 52.324C8.2462 51.9579 7.87983 51.6903 7.29163 51.5213C6.69189 51.349 6.24103 51.3756 5.93906 51.6009C5.62887 51.8115 5.37436 52.2627 5.17555 52.9548L4.21132 56.311ZM18.9734 46.2204L19.4694 47.5297C18.7673 47.832 17.9831 48.0973 17.1169 48.3257C16.2556 48.5431 15.3407 48.6311 14.3723 48.5897C13.3929 48.5434 12.3726 48.2811 11.3113 47.8031C10.239 47.3201 9.36656 46.7296 8.69383 46.0317C8.01017 45.3289 7.46987 44.5854 7.07294 43.8012C6.67 43.0011 6.34912 42.238 6.1103 41.5118L7.41956 41.0158C7.68578 41.6227 7.95477 42.165 8.22652 42.6428C8.49226 43.1047 8.80205 43.5272 9.15591 43.9103C9.5147 44.2825 9.93696 44.6307 10.4227 44.9548C10.9024 45.263 11.487 45.5724 12.1762 45.8829C12.8546 46.1885 13.4736 46.4213 14.0333 46.5812C14.5979 46.7303 15.1384 46.8159 15.6549 46.8379C16.1654 46.8442 16.6872 46.7962 17.2201 46.6941C17.758 46.5811 18.3424 46.4232 18.9734 46.2204ZM20.1116 43.7447L19.0094 45.4542L11.4196 34.9704L12.9315 32.6256L25.6131 35.2126L24.4718 36.9825L15.9778 35.2751L13.6674 34.7063L13.5893 34.8273L15.0511 36.7123L20.1116 43.7447ZM21.7518 35.4214L17.6355 41.8054L16.1681 40.8592L20.2844 34.4753L21.7518 35.4214ZM27.4048 33.1295L26.1513 34.6154L16.9333 26.839L18.1868 25.3531L27.4048 33.1295ZM19.4243 23.5018L19.4227 22.1018C20.1864 22.067 21.0095 22.1 21.8921 22.2008C22.7831 22.2932 23.6786 22.534 24.5785 22.9233C25.4699 23.3042 26.3275 23.9057 27.1515 24.7278C27.984 25.5585 28.5959 26.4233 28.9872 27.3223C29.3701 28.2128 29.6087 29.1035 29.703 29.9943C29.7973 30.8682 29.8279 31.687 29.7948 32.4507L28.3948 32.4523C28.3601 31.7905 28.3 31.1966 28.2146 30.6706C28.1291 30.1276 27.9843 29.6187 27.7801 29.1437C27.5844 28.6603 27.3166 28.1896 26.9767 27.7318C26.6367 27.257 26.1992 26.7526 25.664 26.2186C25.1373 25.6931 24.6362 25.261 24.1607 24.9221C23.6936 24.5747 23.2224 24.3079 22.747 24.1218C22.2716 23.9187 21.7623 23.775 21.2192 23.6907C20.6845 23.598 20.0862 23.535 19.4243 23.5018ZM34.4988 26.4744L32.95 27.6493L25.6614 18.041L29.7915 14.9079C30.499 14.3713 31.1979 14.0218 31.8882 13.8597C32.5713 13.6879 33.2146 13.712 33.8182 13.9319C34.4241 14.135 34.9592 14.5425 35.4233 15.1543C35.8222 15.6802 36.0652 16.2189 36.1522 16.7704C36.2415 17.3051 36.1688 17.8347 35.9341 18.3592C35.7016 18.8669 35.3095 19.3526 34.7576 19.8165L34.8447 19.9312C35.2854 19.7776 35.7039 19.7237 36.1002 19.7695C36.4964 19.8153 36.9039 19.9355 37.3226 20.13L40.7944 21.6987L38.9875 23.0694L35.7431 21.6219C35.3894 21.4534 35.0624 21.34 34.762 21.2817C34.4617 21.2233 34.1594 21.2418 33.8551 21.337C33.5508 21.4323 33.2123 21.6213 32.8394 21.9042L31.6922 22.7745L34.4988 26.4744ZM28.2654 18.2571L30.724 21.4981L33.4917 19.3986C34.1131 18.9272 34.4634 18.4656 34.5426 18.014C34.6217 17.5624 34.4401 17.045 33.9977 16.4618C33.5625 15.8881 33.1168 15.5786 32.6606 15.5331C32.1971 15.478 31.6546 15.6862 31.0332 16.1576L28.2654 18.2571ZM45.5939 19.2838L42.3251 20.9169L41.5367 19.3389L44.8055 17.7058C45.6642 17.2767 46.295 16.8073 46.6976 16.2976C47.111 15.7826 47.2963 15.1869 47.2536 14.5107C47.2162 13.8185 46.9669 13.0107 46.5057 12.0875C46.0444 11.1643 45.5509 10.4853 45.0251 10.0505C44.5047 9.59951 43.9144 9.38467 43.2544 9.40594C42.5996 9.41111 41.8429 9.62822 40.9841 10.0573L37.7154 11.6904L36.935 10.1285L40.2037 8.49538C41.3202 7.9376 42.3962 7.67496 43.432 7.70747C44.4731 7.72389 45.4148 8.0247 46.2572 8.60991C47.0996 9.19512 47.7996 10.0459 48.3574 11.1623C48.9152 12.2788 49.1752 13.3495 49.1373 14.3745C49.0994 15.3995 48.7771 16.3385 48.1705 17.1916C47.5691 18.0286 46.7103 18.726 45.5939 19.2838ZM43.5006 20.3297L41.7616 21.1985L36.3714 10.4101L38.1105 9.54123L43.5006 20.3297ZM57.1364 14.9392C56.028 15.2533 55.0776 15.3543 54.285 15.2421C53.4891 15.1184 52.8378 14.8228 52.3311 14.3552C51.8327 13.8728 51.4788 13.2622 51.2694 12.5233L51.186 12.2288L53.0217 11.7086L53.0757 11.8991C53.2099 12.3725 53.4036 12.7479 53.6568 13.0254C53.9216 13.2996 54.2962 13.4553 54.7808 13.4926C55.2653 13.53 55.9174 13.4325 56.7371 13.2002C57.5915 12.9581 58.1575 12.6667 58.4352 12.3261C58.7096 11.974 58.7715 11.5323 58.621 11.0013C58.5196 10.6433 58.3858 10.3694 58.2198 10.1795C58.0537 9.9896 57.7952 9.86954 57.4442 9.81933C57.1015 9.75431 56.6136 9.74913 55.9805 9.8038L53.8934 9.96495C53.1877 10.0277 52.5722 9.99011 52.0466 9.85216C51.5179 9.70267 51.0717 9.44869 50.7082 9.09021C50.3562 8.72847 50.0952 8.24741 49.9251 7.64705C49.7615 7.06978 49.7594 6.49039 49.9189 5.90888C50.0867 5.31254 50.4439 4.76854 50.9906 4.27687C51.5488 3.78193 52.3243 3.39378 53.3172 3.11241C54.3794 2.81142 55.2903 2.74663 56.0498 2.91805C56.8208 3.0862 57.4399 3.42215 57.9069 3.9259C58.3822 4.41484 58.718 5.00566 58.9143 5.69839L58.9732 5.9062L57.1202 6.43131L57.0662 6.24081C56.9288 5.75591 56.7351 5.38049 56.4851 5.11457C56.2434 4.83383 55.8976 4.6699 55.4477 4.62277C55.0061 4.56083 54.4447 4.62637 53.7636 4.8194C52.9092 5.06151 52.3275 5.36354 52.0185 5.72551C51.7095 6.08747 51.6269 6.52245 51.7709 7.03045C51.869 7.37681 52.0053 7.63754 52.1796 7.81264C52.3655 7.98447 52.6265 8.09135 52.9627 8.13329C53.3072 8.16041 53.7571 8.16385 54.3127 8.14362L56.4047 7.9998C57.1829 7.92896 57.8396 7.97983 58.375 8.15241C58.9218 8.32172 59.3671 8.59466 59.7108 8.97122C60.0512 9.33624 60.3049 9.81316 60.4717 10.402C60.6418 11.0023 60.6488 11.599 60.4926 12.1921C60.3363 12.7852 59.9833 13.3218 59.4333 13.8019C58.895 14.2787 58.1293 14.6578 57.1364 14.9392Z" fill="#111212"/>
</svg>
