<svg preserveAspectRatio="none" width="100%" height="100%" overflow="visible" style="display: block;" viewBox="0 0 13 23" fill="none" xmlns="http://www.w3.org/2000/svg">
<g id="Group">
<path id="Vector" d="M6.0419 11.0835C5.05823 11.0865 4.10936 10.7197 3.3835 10.0558C2.65763 9.39191 2.20779 8.47948 2.12318 7.49945C2.03858 6.51942 2.32539 5.54339 2.92673 4.76493C3.52808 3.98647 4.40004 3.46245 5.36966 3.2968C8.56278 2.68059 9.40307 2.38928 10.5235 1C11.0837 2.12039 11.6438 3.34162 11.6438 5.48156C11.6438 8.56264 8.96612 11.0835 6.0419 11.0835Z" fill="var(--fill-0, #FDFF9F)" stroke="var(--stroke-0, #111212)" stroke-width="1.26044" stroke-linecap="round" stroke-linejoin="round"/>
<path id="Vector_2" d="M1 11.6443C1 9.96371 2.03636 8.64165 3.84579 8.28313C5.20147 8.01423 6.60195 7.16273 7.16215 6.60254" stroke="var(--stroke-0, #111212)" stroke-width="1.26044" stroke-linecap="round" stroke-linejoin="round"/>
<path id="Vector_3" d="M6.0419 12.2046C5.05823 12.2016 4.10936 12.5684 3.3835 13.2323C2.65763 13.8962 2.20779 14.8086 2.12318 15.7886C2.03858 16.7687 2.32539 17.7447 2.92673 18.5232C3.52808 19.3016 4.40004 19.8256 5.36966 19.9913C8.56278 20.6075 9.40307 20.8988 10.5235 22.2881C11.0837 21.1677 11.6438 19.9465 11.6438 17.8065C11.6438 14.7254 8.96612 12.2046 6.0419 12.2046Z" fill="var(--fill-0, #FDFF9F)" stroke="var(--stroke-0, #111212)" stroke-width="1.26044" stroke-linecap="round" stroke-linejoin="round"/>
<path id="Vector_4" d="M1 11.6438C1 13.3244 2.03636 14.6464 3.84579 15.005C5.20147 15.2739 6.60195 16.1254 7.16215 16.6855" stroke="var(--stroke-0, #111212)" stroke-width="1.26044" stroke-linecap="round" stroke-linejoin="round"/>
</g>
</svg>
