<svg preserveAspectRatio="none" width="100%" height="100%" overflow="visible" style="display: block;" viewBox="0 0 55 80" fill="none" xmlns="http://www.w3.org/2000/svg">
<g id="Group 1000022309">
<path id="Vector" d="M24.792 3.32053C26.1782 2.67452 27.6367 2.85961 28.8682 3.34689C30.094 3.832 31.2837 4.68145 32.3818 5.71213C34.5872 7.78214 36.7534 10.893 38.4522 14.5344C40.1509 18.1758 41.1427 21.8342 41.3115 24.8537C41.3956 26.3572 41.2825 27.8148 40.8662 29.0656C40.8158 29.2171 40.759 29.3679 40.6973 29.5178C41.5093 29.2619 42.3098 29.102 43.0488 29.0608C43.6554 29.0269 44.3331 29.0652 44.9746 29.2785C45.6218 29.4938 46.4191 29.9593 46.8506 30.884C47.2821 31.8089 47.1262 32.7193 46.875 33.3537C46.626 33.9824 46.2196 34.5262 45.8037 34.969C45.6732 35.1079 45.5326 35.2434 45.3857 35.3781C46.6388 35.531 47.7999 35.8106 48.7822 36.2033C49.5548 36.5122 50.3217 36.9324 50.9297 37.507C51.5421 38.0859 52.1327 38.9666 52.1328 40.1145C52.1328 41.2625 51.5421 42.143 50.9297 42.7219C50.3217 43.2967 49.5549 43.7176 48.7822 44.0266C48.0099 44.3354 47.1269 44.5733 46.1758 44.7356C47.225 45.4553 48.1422 46.2257 48.8799 47.011C49.6034 47.7811 50.2324 48.6473 50.5996 49.5744C50.9691 50.5073 51.1387 51.6921 50.5996 52.8479C50.0605 54.0035 49.0438 54.6348 48.0918 54.9514C47.1455 55.2661 46.0777 55.3414 45.0225 55.2824C44.0933 55.2305 43.087 55.0684 42.04 54.8059C43.0014 56.1284 43.7734 57.4507 44.3106 58.7033C44.8154 59.8809 45.1581 61.0998 45.1904 62.257C45.2229 63.4206 44.9373 64.7235 43.9453 65.7151C42.9535 66.7063 41.6507 66.9916 40.4873 66.9592C39.3301 66.9269 38.1115 66.5839 36.9336 66.0793C35.3267 65.3909 33.6041 64.3181 31.915 62.9524C32.8036 65.4733 33.3288 67.9061 33.4473 70.0246C33.5313 71.5279 33.4172 72.9849 33.001 74.2356C32.5827 75.4923 31.7859 76.7289 30.3994 77.3752C29.0133 78.0212 27.5546 77.837 26.3232 77.3498C25.0974 76.8647 23.9077 76.0143 22.8096 74.9836C20.6042 72.9136 18.438 69.8028 16.7393 66.1613C15.0405 62.5199 14.0487 58.8615 13.8799 55.842C13.803 54.4662 13.891 53.129 14.2256 51.9533C14.0713 51.7674 13.926 51.5771 13.79 51.382C13.2228 51.5218 12.6688 51.6126 12.1455 51.6418C11.5392 51.6756 10.862 51.6372 10.2207 51.424C9.57345 51.2088 8.77524 50.7425 8.34375 49.8176C7.91248 48.8927 8.06811 47.9822 8.31934 47.3479C8.56835 46.7193 8.97475 46.1753 9.39063 45.7326C9.52099 45.5939 9.66092 45.458 9.80762 45.3235C8.55281 45.1708 7.38978 44.8924 6.40625 44.4992C5.63356 44.1903 4.86682 43.7693 4.25879 43.1945C3.64636 42.6156 3.05567 41.7352 3.05567 40.5871C3.05578 39.4392 3.64642 38.5586 4.25879 37.9797C4.86676 37.4051 5.6337 36.9849 6.40625 36.676C7.18024 36.3666 8.06504 36.1263 9.01856 35.9641C7.96679 35.2431 7.04676 34.4716 6.30762 33.6848C5.58423 32.9147 4.95605 32.0483 4.58887 31.1213C4.21938 30.1884 4.04968 29.0037 4.58887 27.8479L4.69532 27.6369C5.25477 26.6144 6.20426 26.0411 7.09668 25.7444C8.04294 25.4297 9.11082 25.3544 10.166 25.4133C11.0907 25.465 12.0923 25.6246 13.1338 25.885C12.1762 24.5661 11.4067 23.2474 10.8711 21.9983C10.3664 20.8209 10.0236 19.6026 9.99122 18.4455C9.95873 17.282 10.2443 15.9791 11.2363 14.9875L11.4258 14.8098C12.3904 13.9617 13.6036 13.713 14.6943 13.7434C15.8515 13.7757 17.0703 14.1178 18.2481 14.6223C19.8599 15.3128 21.5881 16.3911 23.2822 17.7629C22.3896 15.2351 21.8629 12.795 21.7441 10.6711C21.6601 9.16787 21.7742 7.71086 22.1904 6.46017C22.6087 5.2034 23.4055 3.9668 24.792 3.32053Z" fill="var(--fill-0, #111212)" stroke="var(--stroke-0, #111212)" stroke-width="4.21334"/>
<g id="Group 1000017860">
<path id="Vector_2" d="M26.2214 48.2006C28.0222 46.3939 33.1317 48.5908 37.6337 53.1077C42.1358 57.6245 44.3256 62.7508 42.5248 64.5576C40.7239 66.3643 35.6144 64.1673 31.1124 59.6505C26.6103 55.1336 24.4205 50.0073 26.2214 48.2006Z" fill="url(#paint0_linear_6485_641)"/>
<path id="Vector_3" d="M17.9132 50.6765C20.6829 49.3807 25.5458 53.962 28.7747 60.9092C32.0036 67.8563 32.3758 74.5386 29.606 75.8344C26.8363 77.1302 21.9734 72.5489 18.7445 65.6017C15.5156 58.6545 15.1434 51.9723 17.9132 50.6765Z" fill="url(#paint1_linear_6485_641)"/>
<path id="Vector_4" d="M32.0505 44.4154C32.9115 42.5628 37.3517 42.8118 41.968 44.9715C46.5843 47.1312 49.6285 50.3837 48.7675 52.2363C47.9064 54.0889 43.4662 53.8399 38.8499 51.6803C34.2336 49.5206 31.1894 46.268 32.0505 44.4154Z" fill="url(#paint2_linear_6485_641)"/>
<path id="Vector_5" d="M36.2707 40.3638C36.2707 38.8307 39.3676 37.5879 43.1877 37.5879C47.0078 37.5879 50.1046 38.8307 50.1046 40.3638C50.1046 41.8968 47.0078 43.1396 43.1877 43.1396C39.3676 43.1396 36.2707 41.8968 36.2707 40.3638Z" fill="url(#paint3_linear_6485_641)"/>
<path id="Vector_6" d="M36.6743 35.8992C37.1048 36.8255 39.325 36.701 41.6331 35.6211C43.9412 34.5413 45.4633 32.915 45.0328 31.9887C44.6023 31.0624 42.3822 31.1869 40.0741 32.2667C37.7659 33.3466 36.2438 34.9729 36.6743 35.8992Z" fill="url(#paint4_linear_6485_641)"/>
<path id="Vector_7" d="M29.1048 32.9839C27.304 34.7906 22.1945 32.5936 17.6924 28.0768C13.1904 23.5599 11.0006 18.4336 12.8014 16.6269C14.6023 14.8201 19.7117 17.0171 24.2138 21.534C28.7159 26.0508 30.9056 31.1771 29.1048 32.9839Z" fill="url(#paint5_linear_6485_641)"/>
<path id="Vector_8" d="M37.4567 30.5041C34.687 31.7999 29.8241 27.2186 26.5952 20.2714C23.3663 13.3242 22.9941 6.64197 25.7638 5.34616C28.5336 4.05036 33.3965 8.63169 36.6254 15.5789C39.8543 22.526 40.2265 29.2083 37.4567 30.5041Z" fill="url(#paint6_linear_6485_641)"/>
<path id="Vector_9" d="M23.2759 36.7673C22.4149 38.6199 17.9747 38.3709 13.3584 36.2112C8.74211 34.0515 5.6979 30.799 6.55894 28.9464C7.41998 27.0938 11.8602 27.3428 16.4765 29.5024C21.0928 31.6621 24.137 34.9147 23.2759 36.7673Z" fill="url(#paint7_linear_6485_641)"/>
<path id="Vector_10" d="M19.0407 40.8413C19.0407 42.3743 15.9438 43.6171 12.1237 43.6171C8.30361 43.6171 5.20679 42.3743 5.20679 40.8413C5.20679 39.3082 8.30361 38.0654 12.1237 38.0654C15.9438 38.0654 19.0407 39.3082 19.0407 40.8413Z" fill="url(#paint8_linear_6485_641)"/>
<path id="Vector_11" d="M18.7109 45.2885C18.2803 44.3622 16.0602 44.4867 13.7521 45.5665C11.4439 46.6464 9.92184 48.2727 10.3524 49.1989C10.7829 50.1252 13.003 50.0008 15.3111 48.9209C17.6193 47.8411 19.1414 46.2148 18.7109 45.2885Z" fill="url(#paint9_linear_6485_641)"/>
</g>
</g>
<defs>
<linearGradient id="paint0_linear_6485_641" x1="42.5248" y1="64.5576" x2="26.1679" y2="48.2543" gradientUnits="userSpaceOnUse">
<stop stop-color="#1FD83C"/>
<stop offset="1" stop-color="#5FFF5B"/>
</linearGradient>
<linearGradient id="paint1_linear_6485_641" x1="29.606" y1="75.8344" x2="17.85" y2="50.706" gradientUnits="userSpaceOnUse">
<stop stop-color="#1FD83C"/>
<stop offset="1" stop-color="#5FFF5B"/>
</linearGradient>
<linearGradient id="paint2_linear_6485_641" x1="48.7675" y1="52.2363" x2="32.0309" y2="44.4575" gradientUnits="userSpaceOnUse">
<stop stop-color="#1FD83C"/>
<stop offset="1" stop-color="#5FFF5B"/>
</linearGradient>
<linearGradient id="paint3_linear_6485_641" x1="50.1046" y1="40.3638" x2="36.2707" y2="40.3638" gradientUnits="userSpaceOnUse">
<stop stop-color="#1FD83C"/>
<stop offset="1" stop-color="#5FFF5B"/>
</linearGradient>
<linearGradient id="paint4_linear_6485_641" x1="45.0328" y1="31.9887" x2="36.6646" y2="35.8781" gradientUnits="userSpaceOnUse">
<stop stop-color="#1FD83C"/>
<stop offset="1" stop-color="#5FFF5B"/>
</linearGradient>
<linearGradient id="paint5_linear_6485_641" x1="12.8014" y1="16.6269" x2="29.1583" y2="32.9302" gradientUnits="userSpaceOnUse">
<stop stop-color="#0C8FD9"/>
<stop offset="1" stop-color="#6BCAFF"/>
</linearGradient>
<linearGradient id="paint6_linear_6485_641" x1="25.7638" y1="5.34616" x2="37.5199" y2="30.4745" gradientUnits="userSpaceOnUse">
<stop stop-color="#0C8FD9"/>
<stop offset="1" stop-color="#6BCAFF"/>
</linearGradient>
<linearGradient id="paint7_linear_6485_641" x1="6.55894" y1="28.9464" x2="23.2955" y2="36.7252" gradientUnits="userSpaceOnUse">
<stop stop-color="#0C8FD9"/>
<stop offset="1" stop-color="#6BCAFF"/>
</linearGradient>
<linearGradient id="paint8_linear_6485_641" x1="5.20679" y1="40.8413" x2="19.0407" y2="40.8413" gradientUnits="userSpaceOnUse">
<stop stop-color="#0C8FD9"/>
<stop offset="1" stop-color="#6BCAFF"/>
</linearGradient>
<linearGradient id="paint9_linear_6485_641" x1="10.3524" y1="49.1989" x2="18.7206" y2="45.3095" gradientUnits="userSpaceOnUse">
<stop stop-color="#0C8FD9"/>
<stop offset="1" stop-color="#6BCAFF"/>
</linearGradient>
</defs>
</svg>
