<svg width="184" height="188" viewBox="0 0 184 188" fill="none" xmlns="http://www.w3.org/2000/svg">
<path d="M20.4018 64.5052C19.8187 65.8936 19.1467 66.9468 18.3857 67.665C17.6103 68.3771 16.7772 68.8013 15.8864 68.9376C14.9871 69.0533 14.0747 68.9168 13.1492 68.5281L12.7804 68.3732L13.7461 66.0738L13.9847 66.174C14.5776 66.423 15.1191 66.5313 15.6091 66.4989C16.1051 66.452 16.5697 66.1963 17.003 65.7318C17.4363 65.2673 17.8685 64.5216 18.2997 63.4948C18.7492 62.4247 18.9131 61.6089 18.7916 61.0475C18.6557 60.48 18.2551 60.0566 17.5898 59.7772C17.1415 59.5889 16.7526 59.5022 16.4232 59.5169C16.0938 59.5317 15.7603 59.6978 15.4228 60.0154C15.0768 60.3125 14.6737 60.8067 14.2132 61.4979L12.6757 63.7614C12.1644 64.5334 11.6239 65.1315 11.0545 65.5558C10.4705 65.9741 9.84721 66.2227 9.18457 66.3017C8.52801 66.3662 7.82372 66.2405 7.07171 65.9247C6.34861 65.621 5.75509 65.1506 5.29114 64.5134C4.8188 63.8557 4.55442 63.0472 4.49799 62.0878C4.44764 61.1139 4.68363 60.0052 5.20595 58.7614C5.76472 57.4309 6.44135 56.4477 7.23586 55.8116C8.03645 55.1611 8.88447 54.8027 9.77994 54.7365C10.667 54.6497 11.5444 54.7885 12.4121 55.1529L12.6724 55.2622L11.6976 57.5834L11.459 57.4831C10.8516 57.2281 10.3102 57.1198 9.83467 57.1582C9.35078 57.1762 8.90132 57.3957 8.48628 57.8169C8.06285 58.2175 7.67197 58.8444 7.31363 59.6976C6.86419 60.7678 6.69833 61.6083 6.81607 62.2192C6.9338 62.8301 7.31083 63.2691 7.94715 63.5363C8.38101 63.7185 8.75846 63.792 9.07951 63.7567C9.40664 63.7069 9.72869 63.5275 10.0457 63.2183C10.3543 62.8885 10.7248 62.4317 11.1572 61.8477L12.7164 59.5934C13.2786 58.7407 13.8662 58.1113 14.4791 57.7052C15.098 57.2846 15.74 57.0524 16.4049 57.0084C17.0554 56.9583 17.7494 57.0882 18.487 57.3979C19.239 57.7137 19.8542 58.1933 20.3326 58.8365C20.811 59.4798 21.0712 60.2781 21.1132 61.2314C21.1612 62.1702 20.9241 63.2615 20.4018 64.5052ZM28.2448 50.2884C27.4195 51.453 26.5119 52.2998 25.5219 52.8286C24.5283 53.3356 23.4869 53.5301 22.3979 53.412C21.3179 53.2811 20.2341 52.8303 19.1462 52.0594L11.3138 46.5093L12.783 44.436L20.6154 49.9862C21.3833 50.5303 22.0765 50.8677 22.6952 50.9985C23.3228 51.1165 23.9223 51.003 24.4936 50.6581C25.052 50.3041 25.6305 49.7047 26.2291 48.86C26.8276 48.0154 27.2014 47.2709 27.3503 46.6267C27.4864 45.9734 27.3903 45.3766 27.0618 44.8363C26.7425 44.2832 26.1989 43.7345 25.431 43.1904L17.5986 37.6402L19.0678 35.567L26.9001 41.1171C27.988 41.888 28.768 42.7676 29.2404 43.7559C29.7218 44.7315 29.8835 45.7784 29.7254 46.8967C29.5636 47.9932 29.07 49.1238 28.2448 50.2884ZM39.6103 37.0378C38.5008 38.0559 37.4505 38.7324 36.4592 39.0673C35.4572 39.3907 34.5231 39.4283 33.6567 39.1802C32.7913 38.9099 32.0192 38.4049 31.3405 37.6653L31.07 37.3706L32.9076 35.6843L33.0825 35.875C33.5174 36.3489 33.9642 36.6733 34.4229 36.8484C34.8932 37.0129 35.4222 36.9746 36.0098 36.7334C36.5974 36.4922 37.3015 35.995 38.122 35.2421C38.9772 34.4573 39.4668 33.7844 39.5908 33.2236C39.7042 32.6512 39.517 32.0991 39.0291 31.5675C38.7003 31.2093 38.3832 30.9681 38.0777 30.844C37.7722 30.7198 37.3998 30.7316 36.9605 30.8793C36.5221 31.0048 35.9494 31.2855 35.2424 31.7214L32.9004 33.1362C32.1134 33.6242 31.3726 33.9421 30.678 34.0899C29.9727 34.2262 29.3026 34.1919 28.6675 33.987C28.0439 33.7715 27.4564 33.3633 26.9049 32.7623C26.3747 32.1845 26.0317 31.5092 25.8762 30.7366C25.7216 29.9417 25.8189 29.0966 26.1682 28.2013C26.529 27.2954 27.2064 26.3864 28.2002 25.4743C29.2634 24.4986 30.2888 23.8876 31.2763 23.6413C32.2754 23.3845 33.1956 23.4129 34.0369 23.7265C34.8792 24.018 35.6186 24.5105 36.2549 25.2039L36.4458 25.4119L34.5909 27.1141L34.4159 26.9234C33.9705 26.438 33.5237 26.1135 33.0756 25.95C32.6284 25.7643 32.1283 25.7761 31.5753 25.9855C31.0233 26.1727 30.4064 26.5792 29.7246 27.2049C28.8694 27.9897 28.3677 28.6843 28.2197 29.2885C28.0716 29.8927 28.2309 30.4491 28.6976 30.9576C29.0157 31.3043 29.3281 31.5286 29.6345 31.6306C29.9525 31.7219 30.3201 31.6933 30.7373 31.5447C31.1553 31.3739 31.6827 31.1135 32.3195 30.7633L34.6775 29.3658C35.5444 28.8258 36.341 28.4992 37.0675 28.386C37.8055 28.2623 38.4858 28.3192 39.1084 28.5569C39.7204 28.783 40.2968 29.1907 40.8377 29.7801C41.3892 30.3811 41.748 31.0736 41.9141 31.8579C42.0803 32.6421 41.9835 33.4761 41.6236 34.3599C41.2753 35.2331 40.6042 36.1257 39.6103 37.0378ZM51.9645 27.3747L49.8294 28.7085L41.4774 15.339L43.6125 14.0051L51.9645 27.3747ZM49.3713 13.0986L38.1369 20.1167L36.9278 18.1811L48.1622 11.163L49.3713 13.0986ZM58.9231 23.6921L56.4356 24.6306L56.6165 7.71381L60.0286 6.42647L71.3388 19.0078L68.7632 19.9796L61.168 11.5792L59.1832 9.18469L59.0071 9.25113L59.0767 12.3683L58.9231 23.6921ZM67.1199 16.224L57.8302 19.7288L57.0246 17.5935L66.3143 14.0886L67.1199 16.224ZM76.8383 17.6016L74.3468 18.1013L71.2473 2.64509L73.7388 2.14547L76.8383 17.6016ZM84.1208 16.7674L81.5816 16.8642L80.9807 1.1118L83.708 1.00776L90.0242 9.80822L91.7895 12.2602L91.9775 12.2531L91.8816 9.73736L91.5372 0.7091L94.0764 0.612235L94.6773 16.3647L91.95 16.4687L85.6627 7.80843L83.8486 5.31119L83.684 5.31747L83.7818 7.88018L84.1208 16.7674ZM100.389 16.7805L97.7757 16.2932L106.702 1.92172L110.287 2.59007L113.435 19.2124L110.728 18.7079L108.589 7.58688L108.134 4.51026L107.949 4.47576L106.392 7.17725L100.389 16.7805ZM111.27 14.6445L101.51 12.8249L101.928 10.5813L111.689 12.4009L111.27 14.6445ZM123.344 23.0962L116.447 20.0772L122.768 5.63609L129.428 8.55128C130.362 8.9601 131.11 9.44163 131.672 9.99589C132.234 10.5501 132.578 11.1717 132.705 11.8606C132.831 12.5495 132.715 13.3035 132.357 14.1225C131.992 14.956 131.453 15.5419 130.74 15.8804C130.041 16.2252 129.193 16.265 128.196 15.9999L128.121 16.1723C129.171 16.7859 129.824 17.5427 130.081 18.4427C130.352 19.349 130.28 20.2763 129.865 21.2247C129.506 22.0437 129.011 22.666 128.38 23.0917C127.748 23.5173 127.001 23.7381 126.138 23.7541C125.295 23.762 124.364 23.5427 123.344 23.0962ZM121.624 14.5868L119.699 18.9838L124.204 20.9556C125.08 21.3393 125.779 21.4651 126.299 21.3332C126.833 21.2075 127.286 20.7208 127.657 19.873C128.034 19.0109 128.088 18.3409 127.818 17.863C127.554 17.3708 126.99 16.936 126.128 16.5586L121.624 14.5868ZM124.18 8.74572L122.473 12.647L126.589 14.4489C127.452 14.8263 128.129 14.9602 128.622 14.8507C129.122 14.7269 129.532 14.2985 129.853 13.5657C130.18 12.8185 130.223 12.2298 129.984 11.7995C129.764 11.3612 129.224 10.9533 128.362 10.576L124.18 8.74572ZM134.062 28.4379L131.919 27.0717L140.395 13.7802L142.537 15.1464L134.062 28.4379ZM139.946 32.8169L138.011 31.1701L148.227 19.1647L150.162 20.8115L139.946 32.8169ZM146.343 38.2604L138.584 31.658L140.078 29.902L147.837 36.5044L146.343 38.2604ZM150.423 42.4052L148.724 40.5162L160.442 29.9722L162.142 31.8612L150.423 42.4052ZM156.861 51.3118L155.468 49.2145L168.601 40.4953L169.994 42.5926L156.861 51.3118ZM171.06 48.3241L163.733 37.2885L165.634 36.0261L172.961 47.0618L171.06 48.3241ZM169.513 63.5247L168.69 61.523L175.733 51.806L176.834 54.4823L173.468 59.0989L171.738 61.388L171.81 61.5621L174.631 61.9275L180.264 62.8156L181.356 65.4701L169.513 63.5247ZM164.45 65.8118L163.483 63.4619L170.293 60.6595L171.26 63.0094L164.45 65.8118Z" fill="#111212"/>
<path d="M163.053 125.139C163.66 123.761 164.351 122.72 165.125 122.015C165.912 121.317 166.753 120.908 167.646 120.787C168.547 120.687 169.457 120.84 170.375 121.245L170.741 121.406L169.735 123.688L169.499 123.584C168.91 123.324 168.371 123.207 167.88 123.23C167.383 123.268 166.914 123.516 166.473 123.973C166.032 124.429 165.586 125.167 165.137 126.186C164.669 127.248 164.49 128.061 164.602 128.625C164.728 129.194 165.121 129.625 165.781 129.916C166.226 130.112 166.613 130.206 166.943 130.197C167.273 130.188 167.609 130.028 167.952 129.716C168.303 129.425 168.715 128.938 169.188 128.255L170.765 126.019C171.29 125.256 171.841 124.668 172.417 124.254C173.009 123.846 173.636 123.608 174.3 123.541C174.958 123.488 175.66 123.626 176.406 123.955C177.124 124.271 177.709 124.752 178.161 125.398C178.622 126.064 178.872 126.877 178.912 127.837C178.945 128.811 178.689 129.916 178.145 131.15C177.563 132.471 176.869 133.442 176.063 134.064C175.251 134.7 174.397 135.043 173.501 135.094C172.612 135.165 171.737 135.011 170.876 134.631L170.618 134.517L171.634 132.213L171.87 132.318C172.473 132.584 173.013 132.702 173.489 132.671C173.973 132.662 174.426 132.45 174.849 132.037C175.279 131.644 175.681 131.024 176.054 130.177C176.523 129.115 176.703 128.277 176.596 127.665C176.489 127.052 176.12 126.606 175.489 126.328C175.058 126.138 174.682 126.058 174.36 126.087C174.032 126.131 173.707 126.305 173.385 126.609C173.07 126.933 172.692 127.383 172.249 127.959L170.65 130.186C170.073 131.028 169.475 131.647 168.855 132.043C168.228 132.452 167.583 132.673 166.917 132.705C166.266 132.744 165.574 132.602 164.842 132.279C164.096 131.95 163.489 131.46 163.022 130.808C162.555 130.157 162.309 129.354 162.284 128.4C162.252 127.46 162.509 126.373 163.053 125.139ZM155.299 139.311L156.757 137.259L169.609 146.388L168.151 148.44L155.299 139.311ZM163.184 151.492L170.855 140.693L172.715 142.015L165.044 152.814L163.184 151.492ZM148.062 148.171L149.917 146.435L160.691 157.942L158.836 159.679L148.062 148.171ZM141.69 154.137L149.35 146.965L150.926 148.648L143.266 155.82L141.69 154.137ZM146.579 158.842L153.982 151.912L155.557 153.595L148.155 160.526L146.579 158.842ZM150.904 163.979L158.565 156.807L160.124 158.473L152.464 165.645L150.904 163.979ZM135.035 164.885L139.951 161.922L141.13 163.877L135.951 166.998C135.064 167.532 134.55 168.108 134.409 168.724C134.254 169.348 134.468 170.144 135.051 171.111C135.634 172.079 136.238 172.64 136.862 172.794C137.473 172.957 138.222 172.772 139.109 172.237L144.287 169.116L145.465 171.07L140.549 174.034C139.608 174.601 138.659 174.925 137.702 175.008C136.744 175.091 135.851 174.915 135.021 174.481C134.187 174.068 133.478 173.378 132.895 172.411C132.312 171.444 132.029 170.488 132.046 169.544C132.049 168.608 132.311 167.736 132.832 166.927C133.36 166.133 134.094 165.452 135.035 164.885ZM135.978 158.383L138.154 157.071L146.292 170.572L144.115 171.884L135.978 158.383ZM110.584 169.717L113.026 169.103L116.875 184.39L114.433 185.004L110.584 169.717ZM108.674 184.101L121.52 180.867L122.077 183.08L109.231 186.314L108.674 184.101ZM95.4536 171.493C96.9429 171.444 98.2549 171.731 99.3896 172.353C100.509 172.991 101.394 173.903 102.045 175.09C102.681 176.294 103.026 177.718 103.08 179.364C103.134 181.01 102.883 182.447 102.327 183.673C101.756 184.916 100.932 185.885 99.8567 186.579C98.7657 187.29 97.4756 187.67 95.9863 187.719C94.4813 187.768 93.169 187.474 92.0495 186.836C90.9305 186.213 90.0531 185.301 89.4172 184.097C88.7818 182.91 88.4371 181.493 88.3831 179.847C88.3291 178.201 88.5798 176.756 89.1354 175.514C89.6915 174.287 90.5072 173.319 91.5825 172.609C92.6582 171.914 93.9486 171.542 95.4536 171.493ZM95.5347 173.962C94.4373 173.998 93.5575 174.208 92.8952 174.59C92.2334 174.989 91.7594 175.608 91.4731 176.45C91.1712 177.291 91.0426 178.394 91.0874 179.758C91.1327 181.138 91.3333 182.23 91.6893 183.034C92.0301 183.855 92.5438 184.442 93.2302 184.796C93.9167 185.15 94.8086 185.309 95.906 185.273C96.9877 185.238 97.8673 185.02 98.5447 184.622C99.2222 184.223 99.7119 183.602 100.014 182.761C100.301 181.935 100.421 180.833 100.376 179.453C100.331 178.089 100.138 176.997 99.7976 176.176C99.4412 175.356 98.9118 174.769 98.2097 174.416C97.5081 174.078 96.6164 173.927 95.5347 173.962ZM78.0033 170.214L81.595 171.077L81.4571 187.257L78.6204 186.575L78.7715 177.489L79.1482 173.103L78.9652 173.059L76.9643 177.054L72.3521 185.069L68.8977 184.238L68.4313 175.004L68.4418 170.529L68.2817 170.491L66.6011 174.564L62.6066 182.726L59.8157 182.056L67.0683 167.586L70.6599 168.449L71.0956 176.805L71.2102 181.866L71.416 181.916L73.795 177.454L78.0033 170.214ZM59.5906 164.984L61.9083 166.286L48.8313 177.02L45.6522 175.233L48.0227 158.482L50.4224 159.831L48.8677 171.048L48.3087 174.108L48.4727 174.2L50.8162 172.144L59.5906 164.984ZM48.6011 163.503L57.2566 168.368L56.1383 170.358L47.4829 165.493L48.6011 163.503ZM43.1596 154.759L45.0401 156.468L34.4381 168.134L29.4234 163.576C28.5644 162.796 27.9481 161.981 27.5744 161.133C27.1902 160.296 27.0672 159.464 27.2052 158.636C27.3212 157.808 27.7167 157.023 28.3919 156.28C28.9721 155.642 29.6061 155.201 30.294 154.957C30.9598 154.714 31.6577 154.681 32.3879 154.857C33.0959 155.034 33.814 155.422 34.5421 156.02L34.6687 155.88C34.3658 155.351 34.1964 154.826 34.1604 154.306C34.1244 153.786 34.1813 153.233 34.331 152.649L35.5157 147.812L37.7096 149.806L36.6262 154.321C36.4944 154.816 36.4269 155.263 36.4238 155.663C36.4207 156.063 36.5168 156.447 36.7121 156.816C36.9073 157.184 37.2313 157.574 37.684 157.985L39.077 159.251L43.1596 154.759ZM34.0925 164.736L37.6687 160.801L34.3082 157.747C33.5536 157.061 32.8767 156.721 32.2774 156.728C31.6781 156.734 31.0567 157.091 30.4132 157.799C29.7802 158.496 29.4891 159.143 29.5399 159.74C29.5801 160.349 29.9774 160.996 30.732 161.682L34.0925 164.736ZM29.5625 140.344L32.3035 144.256L30.4152 145.579L27.6742 141.668C26.9541 140.64 26.2257 139.915 25.4892 139.493C24.7437 139.057 23.9379 138.932 23.0719 139.118C22.1841 139.3 21.1878 139.777 20.0831 140.552C18.9784 141.326 18.1956 142.095 17.7347 142.858C17.2519 143.618 17.0878 144.422 17.2424 145.272C17.3752 146.117 17.8017 147.054 18.5218 148.081L21.2628 151.993L19.3938 153.302L16.6528 149.391C15.7166 148.055 15.1698 146.714 15.0124 145.369C14.8331 144.02 15.0406 142.744 15.6349 141.543C16.2293 140.341 17.1944 139.272 18.5303 138.336C19.8663 137.4 21.2005 136.857 22.5329 136.709C23.8654 136.56 25.1415 136.796 26.3613 137.416C27.5593 138.032 28.6263 139.008 29.5625 140.344ZM31.3178 142.849L32.776 144.93L19.8664 153.977L18.4081 151.896L31.3178 142.849ZM20.3959 124.089C20.9863 125.475 21.2743 126.69 21.2599 127.737C21.231 128.789 20.9553 129.682 20.4327 130.417C19.8896 131.143 19.1563 131.702 18.2328 132.096L17.8649 132.253L16.887 129.959L17.1251 129.857C17.7167 129.605 18.1715 129.292 18.4894 128.918C18.8012 128.529 18.9412 128.017 18.9095 127.383C18.8778 126.748 18.6437 125.919 18.207 124.895C17.7519 123.827 17.2806 123.141 16.7931 122.837C16.2911 122.54 15.7083 122.532 15.0445 122.815C14.5972 123.006 14.2641 123.225 14.0453 123.471C13.8265 123.718 13.7135 124.073 13.7064 124.536C13.6788 124.992 13.7527 125.625 13.9282 126.437L14.482 129.117C14.68 130.021 14.733 130.825 14.6409 131.53C14.5345 132.24 14.2789 132.86 13.8742 133.391C13.4633 133.907 12.8826 134.325 12.1323 134.645C11.4108 134.952 10.6599 135.051 9.87955 134.94C9.0786 134.821 8.3142 134.448 7.58635 133.82C6.85235 133.178 6.22089 132.237 5.69199 130.996C5.12619 129.668 4.89166 128.498 4.98843 127.485C5.07904 126.457 5.41235 125.599 5.98835 124.91C6.54378 124.213 7.25437 123.68 8.12014 123.311L8.37987 123.2L9.36696 125.516L9.12887 125.618C8.52283 125.876 8.06806 126.189 7.76457 126.557C7.44049 126.917 7.28507 127.393 7.29831 127.984C7.29097 128.567 7.46873 129.284 7.83158 130.135C8.28668 131.203 8.77444 131.907 9.29484 132.248C9.81524 132.589 10.3929 132.624 11.0278 132.354C11.4607 132.169 11.7762 131.949 11.9745 131.694C12.1665 131.425 12.262 131.069 12.2608 130.626C12.2391 130.175 12.1692 129.591 12.0511 128.874L11.5189 126.185C11.2985 125.188 11.2559 124.328 11.3912 123.605C11.5204 122.868 11.8007 122.245 12.2322 121.738C12.6492 121.236 13.2257 120.828 13.9616 120.515C14.712 120.195 15.4845 120.087 16.2793 120.192C17.0741 120.296 17.8282 120.665 18.5417 121.299C19.2489 121.918 19.867 122.849 20.3959 124.089Z" fill="#111212"/>
<path d="M177.149 93.6206C176.166 93.6236 175.217 93.2568 174.491 92.5929C173.765 91.929 173.315 91.0166 173.231 90.0366C173.146 89.0565 173.433 88.0805 174.034 87.302C174.636 86.5236 175.507 85.9996 176.477 85.8339C179.67 85.2177 180.51 84.9264 181.631 83.5371C182.191 84.6575 182.751 85.8787 182.751 88.0187C182.751 91.0997 180.074 93.6206 177.149 93.6206Z" fill="#FDFF9F" stroke="#111212" stroke-width="1.26044" stroke-linecap="round" stroke-linejoin="round"/>
<path d="M172.107 94.1814C172.107 92.5008 173.144 91.1788 174.953 90.8202C176.309 90.5513 177.709 89.6998 178.27 89.1396" stroke="#111212" stroke-width="1.26044" stroke-linecap="round" stroke-linejoin="round"/>
<path d="M177.149 94.7417C176.166 94.7387 175.217 95.1055 174.491 95.7694C173.765 96.4333 173.315 97.3457 173.231 98.3257C173.146 99.3058 173.433 100.282 174.034 101.06C174.636 101.839 175.507 102.363 176.477 102.528C179.67 103.145 180.51 103.436 181.631 104.825C182.191 103.705 182.751 102.484 182.751 100.344C182.751 97.2626 180.074 94.7417 177.149 94.7417Z" fill="#FDFF9F" stroke="#111212" stroke-width="1.26044" stroke-linecap="round" stroke-linejoin="round"/>
<path d="M172.107 94.1809C172.107 95.8615 173.144 97.1835 174.953 97.5421C176.309 97.811 177.709 98.6625 178.27 99.2227" stroke="#111212" stroke-width="1.26044" stroke-linecap="round" stroke-linejoin="round"/>
<path d="M6.84995 93.6206C7.83362 93.6236 8.78248 93.2568 9.50835 92.5929C10.2342 91.929 10.6841 91.0166 10.7687 90.0366C10.8533 89.0565 10.5665 88.0805 9.96511 87.302C9.36376 86.5236 8.49181 85.9996 7.52218 85.8339C4.32907 85.2177 3.48878 84.9264 2.36839 83.5371C1.80819 84.6575 1.248 85.8787 1.248 88.0187C1.248 91.0997 3.92573 93.6206 6.84995 93.6206Z" fill="#FDFF9F" stroke="#111212" stroke-width="1.26044" stroke-linecap="round" stroke-linejoin="round"/>
<path d="M11.8921 94.1814C11.8921 92.5008 10.8557 91.1788 9.0463 90.8202C7.69062 90.5513 6.29014 89.6998 5.72994 89.1396" stroke="#111212" stroke-width="1.26044" stroke-linecap="round" stroke-linejoin="round"/>
<path d="M6.84995 94.7417C7.83362 94.7387 8.78248 95.1055 9.50835 95.7694C10.2342 96.4333 10.6841 97.3457 10.7687 98.3257C10.8533 99.3058 10.5665 100.282 9.96511 101.06C9.36376 101.839 8.49181 102.363 7.52218 102.528C4.32907 103.145 3.48878 103.436 2.36839 104.825C1.80819 103.705 1.248 102.484 1.248 100.344C1.248 97.2626 3.92573 94.7417 6.84995 94.7417Z" fill="#FDFF9F" stroke="#111212" stroke-width="1.26044" stroke-linecap="round" stroke-linejoin="round"/>
<path d="M11.8921 94.1809C11.8921 95.8615 10.8557 97.1835 9.0463 97.5421C7.69062 97.811 6.29014 98.6625 5.72994 99.2227" stroke="#111212" stroke-width="1.26044" stroke-linecap="round" stroke-linejoin="round"/>
</svg>
