<svg width="325" height="118" viewBox="0 0 325 118" fill="none" xmlns="http://www.w3.org/2000/svg">
<path d="M11.6343 65.3613V35.7377H1.35874V30.2741H28.5764V35.7377H18.351V65.3613H11.6343ZM51.4673 65.3613V30.2741H58.2341V65.3613H51.4673ZM29.3623 65.3613V30.2741H36.1292V65.3613H29.3623ZM35.1768 50.1736V44.71H52.6202V50.1736H35.1768ZM61.1347 65.3613V30.2741H74.2172C77.0576 30.2741 79.3968 30.7586 81.2347 31.7277C83.0726 32.6968 84.4426 34 85.3449 35.6374C86.2471 37.2414 86.6982 39.0292 86.6982 41.0008C86.6982 42.8721 86.2638 44.6264 85.395 46.2639C84.5262 47.8678 83.1561 49.1711 81.2848 50.1736C79.4469 51.1426 77.0743 51.6272 74.1671 51.6272H67.9015V65.3613H61.1347ZM79.3299 65.3613L72.112 49.9229H79.4302L87.0491 65.3613H79.3299ZM67.9015 46.715H73.8162C75.8546 46.715 77.3584 46.2137 78.3274 45.2112C79.2965 44.2087 79.781 42.8888 79.781 41.2514C79.781 39.614 79.2965 38.3275 78.3274 37.3918C77.3918 36.4227 75.888 35.9382 73.8162 35.9382H67.9015V46.715ZM88.7463 65.3613V30.2741H111.804V35.7377H95.5131V44.9105H110.3V50.1736H95.5131V59.8977H111.804V65.3613H88.7463ZM111.604 65.3613L124.435 30.2741H132.104L144.886 65.3613H137.718L128.245 37.9933L118.721 65.3613H111.604ZM117.268 57.3915L119.072 52.1284H136.916L138.671 57.3915H117.268ZM145.487 65.3613V30.2741H157.216C161.293 30.2741 164.651 31.0093 167.291 32.4796C169.964 33.9165 171.936 35.9549 173.206 38.5948C174.509 41.2013 175.161 44.2756 175.161 47.8177C175.161 51.3599 174.509 54.4509 173.206 57.0908C171.936 59.6972 169.981 61.7356 167.341 63.206C164.701 64.6429 161.326 65.3613 157.216 65.3613H145.487ZM152.254 59.5469H156.865C159.739 59.5469 161.995 59.079 163.632 58.1434C165.303 57.2077 166.489 55.8711 167.191 54.1334C167.893 52.3623 168.244 50.2571 168.244 47.8177C168.244 45.3449 167.893 43.2397 167.191 41.502C166.489 39.7309 165.303 38.3776 163.632 37.4419C161.995 36.5063 159.739 36.0384 156.865 36.0384H152.254V59.5469ZM172.358 65.3613L185.19 30.2741H192.859L205.641 65.3613H198.473L188.999 37.9933L179.476 65.3613H172.358ZM178.022 57.3915L179.827 52.1284H197.671L199.425 57.3915H178.022ZM206.242 65.3613V30.2741H213.008V60.0982H228.397V65.3613H206.242ZM230.182 65.3613V30.2741H236.949V65.3613H230.182ZM247.999 65.3613V35.7377H237.724V30.2741H264.941V35.7377H254.716V65.3613H247.999ZM274.8 65.3613V53.0307L262.97 30.2741H270.639L278.91 47.6172H277.557L285.777 30.2741H293.396L281.567 53.0307V65.3613H274.8ZM11.9852 117.361V85.7327H1.50911V82.2741H26.6717V85.7327H16.1956V117.361H11.9852ZM27.8519 117.361V82.2741H49.5559V85.7327H32.0624V97.9631H48.0522V101.372H32.0624V113.903H49.5559V117.361H27.8519ZM67.4218 117.963C64.0133 117.963 61.056 117.211 58.5497 115.707C56.0769 114.17 54.1722 112.048 52.8355 109.341C51.4989 106.601 50.8306 103.427 50.8306 99.8177C50.8306 96.2087 51.4989 93.0509 52.8355 90.3442C54.1722 87.604 56.0769 85.4821 58.5497 83.9783C61.056 82.4412 64.0133 81.6726 67.4218 81.6726C71.4318 81.6726 74.6899 82.625 77.1961 84.5297C79.7023 86.4344 81.3063 89.1245 82.0081 92.5998H77.3465C76.8118 90.4277 75.7258 88.69 74.0884 87.3868C72.451 86.0502 70.2288 85.3818 67.4218 85.3818C64.9156 85.3818 62.7435 85.9666 60.9056 87.1362C59.0677 88.2723 57.6475 89.9265 56.645 92.0985C55.6425 94.2372 55.1413 96.8102 55.1413 99.8177C55.1413 102.825 55.6425 105.415 56.645 107.587C57.6475 109.726 59.0677 111.38 60.9056 112.549C62.7435 113.686 64.9156 114.254 67.4218 114.254C70.2288 114.254 72.451 113.619 74.0884 112.349C75.7258 111.046 76.8118 109.325 77.3465 107.186H82.0081C81.3063 110.561 79.7023 113.201 77.1961 115.106C74.6899 117.01 71.4318 117.963 67.4218 117.963ZM106.509 117.361V82.2741H110.719V117.361H106.509ZM84.1031 117.361V82.2741H88.3136V117.361H84.1031ZM87.5116 101.221V97.7626H107.561V101.221H87.5116ZM114.211 117.361V82.2741H118.422L137.118 110.394V82.2741H141.329V117.361H137.118L118.422 89.2414V117.361H114.211ZM160.497 117.963C157.121 117.963 154.147 117.211 151.574 115.707C149.035 114.17 147.046 112.048 145.61 109.341C144.206 106.601 143.504 103.427 143.504 99.8177C143.504 96.2422 144.206 93.101 145.61 90.3943C147.046 87.6541 149.035 85.5155 151.574 83.9783C154.147 82.4412 157.121 81.6726 160.497 81.6726C163.938 81.6726 166.929 82.4412 169.469 83.9783C172.009 85.5155 173.98 87.6541 175.384 90.3943C176.82 93.101 177.539 96.2422 177.539 99.8177C177.539 103.427 176.82 106.601 175.384 109.341C173.98 112.048 172.009 114.17 169.469 115.707C166.929 117.211 163.938 117.963 160.497 117.963ZM160.497 114.254C163.036 114.254 165.258 113.686 167.163 112.549C169.101 111.38 170.588 109.726 171.624 107.587C172.694 105.415 173.228 102.825 173.228 99.8177C173.228 96.8102 172.694 94.2372 171.624 92.0985C170.588 89.9265 169.101 88.2723 167.163 87.1362C165.258 86 163.036 85.4319 160.497 85.4319C157.99 85.4319 155.768 86 153.83 87.1362C151.925 88.2723 150.438 89.9265 149.369 92.0985C148.333 94.2372 147.815 96.8102 147.815 99.8177C147.815 102.825 148.333 105.415 149.369 107.587C150.438 109.726 151.925 111.38 153.83 112.549C155.768 113.686 157.99 114.254 160.497 114.254ZM179.665 117.361V82.2741H183.875V114.003H200.216V117.361H179.665ZM214.447 117.963C211.072 117.963 208.098 117.211 205.525 115.707C202.985 114.17 200.997 112.048 199.56 109.341C198.157 106.601 197.455 103.427 197.455 99.8177C197.455 96.2422 198.157 93.101 199.56 90.3943C200.997 87.6541 202.985 85.5155 205.525 83.9783C208.098 82.4412 211.072 81.6726 214.447 81.6726C217.889 81.6726 220.88 82.4412 223.419 83.9783C225.959 85.5155 227.931 87.6541 229.334 90.3943C230.771 93.101 231.489 96.2422 231.489 99.8177C231.489 103.427 230.771 106.601 229.334 109.341C227.931 112.048 225.959 114.17 223.419 115.707C220.88 117.211 217.889 117.963 214.447 117.963ZM214.447 114.254C216.987 114.254 219.209 113.686 221.114 112.549C223.052 111.38 224.539 109.726 225.575 107.587C226.644 105.415 227.179 102.825 227.179 99.8177C227.179 96.8102 226.644 94.2372 225.575 92.0985C224.539 89.9265 223.052 88.2723 221.114 87.1362C219.209 86 216.987 85.4319 214.447 85.4319C211.941 85.4319 209.719 86 207.78 87.1362C205.876 88.2723 204.389 89.9265 203.319 92.0985C202.283 94.2372 201.766 96.8102 201.766 99.8177C201.766 102.825 202.283 105.415 203.319 107.587C204.389 109.726 205.876 111.38 207.78 112.549C209.719 113.686 211.941 114.254 214.447 114.254ZM248.703 117.963C245.428 117.963 242.554 117.211 240.082 115.707C237.609 114.17 235.687 112.048 234.317 109.341C232.947 106.635 232.262 103.477 232.262 99.8678C232.262 96.2923 232.947 93.1344 234.317 90.3943C235.721 87.6541 237.692 85.5155 240.232 83.9783C242.805 82.4412 245.829 81.6726 249.304 81.6726C253.248 81.6726 256.539 82.625 259.179 84.5297C261.819 86.401 263.506 89.0242 264.242 92.3993H259.379C258.912 90.294 257.809 88.6232 256.071 87.3868C254.334 86.1504 252.078 85.5322 249.304 85.5322C246.731 85.5322 244.476 86.117 242.538 87.2866C240.633 88.4227 239.163 90.0601 238.127 92.1988C237.091 94.3374 236.573 96.8938 236.573 99.8678C236.573 102.842 237.091 105.415 238.127 107.587C239.163 109.726 240.599 111.363 242.437 112.499C244.309 113.635 246.447 114.203 248.853 114.203C252.596 114.203 255.42 113.101 257.324 110.895C259.229 108.69 260.315 105.699 260.582 101.923H250.457V98.6147H264.893V117.361H261.034L260.683 111.597C259.847 112.967 258.878 114.137 257.775 115.106C256.706 116.041 255.436 116.76 253.966 117.261C252.496 117.729 250.741 117.963 248.703 117.963ZM267.591 117.361V82.2741H271.801V117.361H267.591ZM275.328 117.361V82.2741H297.032V85.7327H279.539V97.9631H295.529V101.372H279.539V113.903H297.032V117.361H275.328ZM310.838 117.963C308.265 117.963 306.026 117.495 304.122 116.559C302.217 115.624 300.747 114.32 299.711 112.65C298.675 110.979 298.157 109.041 298.157 106.835H302.568C302.568 108.205 302.885 109.475 303.52 110.645C304.155 111.781 305.074 112.7 306.277 113.401C307.513 114.07 309.034 114.404 310.838 114.404C312.409 114.404 313.745 114.153 314.848 113.652C315.984 113.117 316.837 112.399 317.405 111.497C318.006 110.595 318.307 109.575 318.307 108.439C318.307 107.069 318.006 105.966 317.405 105.131C316.837 104.262 316.051 103.56 315.049 103.026C314.046 102.491 312.877 102.023 311.54 101.622C310.237 101.188 308.867 100.737 307.43 100.269C304.656 99.3332 302.618 98.1636 301.315 96.7601C300.011 95.3566 299.36 93.5354 299.36 91.2965C299.36 89.3918 299.794 87.721 300.663 86.2841C301.565 84.8472 302.835 83.7277 304.472 82.9257C306.143 82.0903 308.115 81.6726 310.387 81.6726C312.626 81.6726 314.564 82.0903 316.202 82.9257C317.872 83.7611 319.176 84.914 320.111 86.3843C321.047 87.8212 321.515 89.492 321.515 91.3968H317.104C317.104 90.4277 316.853 89.4753 316.352 88.5397C315.851 87.604 315.082 86.8354 314.046 86.2339C313.044 85.599 311.774 85.2816 310.237 85.2816C308.967 85.2482 307.831 85.4654 306.828 85.9332C305.859 86.3676 305.091 87.0025 304.523 87.8379C303.988 88.6733 303.721 89.6925 303.721 90.8955C303.721 92.0317 303.954 92.9506 304.422 93.6524C304.924 94.3541 305.625 94.9556 306.528 95.4569C307.463 95.9247 308.549 96.3591 309.786 96.7601C311.022 97.1611 312.392 97.6122 313.896 98.1135C315.6 98.6816 317.104 99.3833 318.407 100.219C319.744 101.021 320.78 102.057 321.515 103.326C322.283 104.596 322.668 106.217 322.668 108.189C322.668 109.859 322.217 111.447 321.314 112.95C320.445 114.421 319.142 115.624 317.405 116.559C315.667 117.495 313.478 117.963 310.838 117.963Z" fill="#EEF6F0"/>
<path d="M0.506617 12.0996L4.81733 0.403866H6.30436L10.5984 12.0996H9.11134L5.5525 2.15823L1.97694 12.0996H0.506617ZM2.47819 9.09213L2.87918 7.95597H8.17568L8.57668 9.09213H2.47819ZM16.7919 12.0996V0.403866H20.6014C21.5259 0.403866 22.2833 0.559809 22.8737 0.871695C23.4752 1.17244 23.9152 1.57901 24.1936 2.09139C24.4832 2.60378 24.628 3.18857 24.628 3.84576C24.628 4.48067 24.4832 5.05989 24.1936 5.58341C23.9152 6.09579 23.4807 6.50793 22.8904 6.81982C22.3 7.1317 21.537 7.28765 20.6014 7.28765H18.1954V12.0996H16.7919ZM18.1954 6.10136H20.5847C21.5203 6.10136 22.1886 5.8953 22.5896 5.48316C22.9906 5.07102 23.1911 4.52522 23.1911 3.84576C23.1911 3.12173 22.9906 2.56479 22.5896 2.17494C22.1886 1.77394 21.5203 1.57344 20.5847 1.57344H18.1954V6.10136ZM26.4004 12.0996V3.67867H27.6702L27.7705 5.28266C27.9598 4.90394 28.1993 4.58092 28.4889 4.31359C28.7897 4.04625 29.1461 3.84019 29.5583 3.69538C29.9815 3.55058 30.4605 3.47818 30.9952 3.47818V4.9485H30.4772C30.1208 4.9485 29.781 4.99862 29.458 5.09887C29.135 5.18798 28.8454 5.33836 28.5892 5.54999C28.3441 5.76163 28.1492 6.05124 28.0044 6.41882C27.8707 6.77526 27.8039 7.22081 27.8039 7.75548V12.0996H26.4004ZM36.0337 12.3001C35.254 12.3001 34.5523 12.1219 33.9285 11.7654C33.3047 11.3979 32.8146 10.8855 32.4582 10.2283C32.1017 9.55996 31.9235 8.78582 31.9235 7.90585C31.9235 7.00361 32.1017 6.22389 32.4582 5.5667C32.8258 4.89837 33.3214 4.38599 33.9452 4.02955C34.5801 3.66197 35.2874 3.47818 36.0672 3.47818C36.8692 3.47818 37.5765 3.66197 38.1891 4.02955C38.8129 4.38599 39.303 4.89837 39.6594 5.5667C40.027 6.22389 40.2108 6.99804 40.2108 7.88914C40.2108 8.78025 40.027 9.55996 39.6594 10.2283C39.2918 10.8855 38.7962 11.3979 38.1724 11.7654C37.5486 12.1219 36.8357 12.3001 36.0337 12.3001ZM36.0504 11.0971C36.5294 11.0971 36.975 10.9802 37.3871 10.7462C37.7992 10.5012 38.1334 10.1392 38.3896 9.66021C38.6458 9.18124 38.7739 8.59089 38.7739 7.88914C38.7739 7.17626 38.6458 6.5859 38.3896 6.11807C38.1445 5.6391 37.8159 5.28266 37.4038 5.04875C37.0028 4.80369 36.5573 4.68117 36.0672 4.68117C35.5993 4.68117 35.1538 4.80369 34.7305 5.04875C34.3184 5.28266 33.9842 5.6391 33.728 6.11807C33.483 6.5859 33.3604 7.17626 33.3604 7.88914C33.3604 8.59089 33.483 9.18124 33.728 9.66021C33.9842 10.1392 34.3128 10.5012 34.7138 10.7462C35.1259 10.9802 35.5715 11.0971 36.0504 11.0971ZM45.8878 12.3001C45.0747 12.3001 44.3618 12.1107 43.7491 11.732C43.1365 11.3422 42.6631 10.8131 42.329 10.1447C41.9948 9.47642 41.8277 8.71898 41.8277 7.87243C41.8277 7.02588 41.9948 6.27402 42.329 5.61683C42.6631 4.9485 43.1365 4.42497 43.7491 4.04625C44.3729 3.66754 45.0914 3.47818 45.9045 3.47818C46.5951 3.47818 47.1966 3.61741 47.709 3.89588C48.2325 4.17435 48.6335 4.56421 48.912 5.06545V0.0697018H50.3155V12.0996H49.0456L48.9287 10.7128C48.7505 10.9913 48.5221 11.2531 48.2437 11.4981C47.9652 11.732 47.631 11.927 47.2412 12.0829C46.8513 12.2277 46.4002 12.3001 45.8878 12.3001ZM46.0549 11.0804C46.6118 11.0804 47.1019 10.9467 47.5252 10.6794C47.9485 10.4121 48.2771 10.0445 48.511 9.57667C48.7449 9.0977 48.8619 8.53519 48.8619 7.88914C48.8619 7.25423 48.7449 6.69729 48.511 6.21832C48.2771 5.73935 47.9485 5.3662 47.5252 5.09887C47.1019 4.83154 46.6118 4.69787 46.0549 4.69787C45.5091 4.69787 45.0245 4.83154 44.6013 5.09887C44.178 5.3662 43.8494 5.73935 43.6155 6.21832C43.3816 6.69729 43.2646 7.25423 43.2646 7.88914C43.2646 8.53519 43.3816 9.0977 43.6155 9.57667C43.8494 10.0445 44.178 10.4121 44.6013 10.6794C45.0245 10.9467 45.5091 11.0804 46.0549 11.0804ZM55.7114 12.3001C55.0654 12.3001 54.4973 12.172 54.0072 11.9158C53.5282 11.6596 53.1551 11.2642 52.8877 10.7295C52.6316 10.1949 52.5035 9.52655 52.5035 8.72455V3.67867H53.907V8.57418C53.907 9.40959 54.0907 10.0389 54.4583 10.4622C54.8259 10.8855 55.3439 11.0971 56.0122 11.0971C56.48 11.0971 56.9033 10.9857 57.282 10.763C57.6607 10.529 57.9559 10.2004 58.1675 9.77717C58.3903 9.34276 58.5017 8.81366 58.5017 8.18989V3.67867H59.9052V12.0996H58.6354L58.5518 10.6293C58.2956 11.1528 57.9169 11.5649 57.4157 11.8657C56.9144 12.1553 56.3463 12.3001 55.7114 12.3001ZM66.0244 12.3001C65.2336 12.3001 64.5207 12.1163 63.8858 11.7487C63.262 11.3812 62.7719 10.8688 62.4155 10.2116C62.059 9.54325 61.8808 8.77468 61.8808 7.90585C61.8808 7.01475 62.059 6.2406 62.4155 5.58341C62.7719 4.92622 63.262 4.41383 63.8858 4.04625C64.5207 3.66754 65.2336 3.47818 66.0244 3.47818C67.0269 3.47818 67.8624 3.73994 68.5307 4.26346C69.199 4.77585 69.6223 5.46645 69.8005 6.33528H68.3636C68.2522 5.81175 67.9793 5.40519 67.5449 5.11558C67.1105 4.82597 66.5981 4.68117 66.0077 4.68117C65.5288 4.68117 65.0832 4.80369 64.6711 5.04875C64.2589 5.28266 63.9304 5.6391 63.6853 6.11807C63.4402 6.59704 63.3177 7.1874 63.3177 7.88914C63.3177 8.41267 63.3901 8.8805 63.5349 9.29263C63.6797 9.69363 63.8747 10.0278 64.1197 10.2951C64.3648 10.5625 64.6488 10.7685 64.9718 10.9133C65.306 11.047 65.6513 11.1138 66.0077 11.1138C66.4087 11.1138 66.7707 11.0526 67.0938 10.93C67.4168 10.7964 67.6897 10.6014 67.9125 10.3452C68.1353 10.0891 68.2856 9.78831 68.3636 9.443H69.8005C69.6223 10.2896 69.1934 10.9802 68.514 11.5148C67.8456 12.0383 67.0158 12.3001 66.0244 12.3001ZM74.873 12.0996C74.3718 12.0996 73.9373 12.0216 73.5698 11.8657C73.2022 11.7098 72.9181 11.448 72.7177 11.0804C72.5283 10.7017 72.4336 10.1949 72.4336 9.55996V4.86496H70.9633V3.67867H72.4336L72.6174 1.64027H73.8371V3.67867H76.2765V4.86496H73.8371V9.55996C73.8371 10.0835 73.9429 10.4399 74.1546 10.6293C74.3662 10.8075 74.7393 10.8966 75.274 10.8966H76.1762V12.0996H74.873ZM86.9568 12.3001C86.4779 12.3001 86.0434 12.2333 85.6536 12.0996C85.2749 11.9548 84.9407 11.7654 84.6511 11.5315C84.3615 11.2976 84.122 11.0247 83.9326 10.7128L83.8157 12.0996H82.5459V0.0697018H83.9493V5.06545C84.2167 4.63104 84.601 4.25789 85.1022 3.94601C85.6035 3.63412 86.2217 3.47818 86.9568 3.47818C87.77 3.47818 88.4828 3.6731 89.0955 4.06296C89.7081 4.44168 90.1815 4.96521 90.5157 5.63353C90.861 6.29072 91.0336 7.04259 91.0336 7.88914C91.0336 8.73569 90.861 9.49313 90.5157 10.1615C90.1815 10.8298 89.7081 11.3533 89.0955 11.732C88.4828 12.1107 87.77 12.3001 86.9568 12.3001ZM86.7897 11.0804C87.3355 11.0804 87.8201 10.9467 88.2434 10.6794C88.6666 10.4121 88.9952 10.0445 89.2291 9.57667C89.4742 9.0977 89.5967 8.53519 89.5967 7.88914C89.5967 7.25423 89.4742 6.69729 89.2291 6.21832C88.9952 5.73935 88.6666 5.3662 88.2434 5.09887C87.8201 4.83154 87.3355 4.69787 86.7897 4.69787C86.2328 4.69787 85.7427 4.83154 85.3194 5.09887C84.8961 5.3662 84.5675 5.73935 84.3336 6.21832C84.0997 6.69729 83.9828 7.25423 83.9828 7.88914C83.9828 8.53519 84.0997 9.0977 84.3336 9.57667C84.5675 10.0445 84.8961 10.4121 85.3194 10.6794C85.7427 10.9467 86.2328 11.0804 86.7897 11.0804ZM93.2548 15.7754L95.3099 11.1639H94.8253L91.5171 3.67867H93.0376L95.7777 10.1113L98.6515 3.67867H100.105L94.7251 15.7754H93.2548Z" fill="#EEF6F0"/>
</svg>
