<svg preserveAspectRatio="none" width="100%" height="100%" overflow="visible" style="display: block;" viewBox="0 0 14 14" fill="none" xmlns="http://www.w3.org/2000/svg">
<g id="Frame">
<path id="Vector" fill-rule="evenodd" clip-rule="evenodd" d="M7 1.3125C3.85875 1.3125 1.3125 3.85875 1.3125 7C1.3125 10.1412 3.85875 12.6875 7 12.6875C10.1412 12.6875 12.6875 10.1412 12.6875 7C12.6875 3.85875 10.1412 1.3125 7 1.3125ZM9.49667 7.30917C9.5786 7.22713 9.62461 7.11594 9.62461 7C9.62461 6.88406 9.5786 6.77286 9.49667 6.69083L7.74667 4.94083C7.70661 4.89785 7.65831 4.86337 7.60465 4.83946C7.55098 4.81555 7.49305 4.80269 7.4343 4.80165C7.37556 4.80062 7.31721 4.81142 7.26273 4.83343C7.20826 4.85543 7.15877 4.88818 7.11723 4.92973C7.07568 4.97127 7.04293 5.02076 7.02093 5.07523C6.99892 5.12971 6.98812 5.18806 6.98915 5.2468C6.99019 5.30555 7.00305 5.36348 7.02696 5.41715C7.05087 5.47081 7.08535 5.51911 7.12833 5.55917L8.13167 6.5625H4.8125C4.69647 6.5625 4.58519 6.60859 4.50314 6.69064C4.42109 6.77269 4.375 6.88397 4.375 7C4.375 7.11603 4.42109 7.22731 4.50314 7.30936C4.58519 7.39141 4.69647 7.4375 4.8125 7.4375H8.13167L7.12833 8.44083C7.08535 8.48089 7.05087 8.52919 7.02696 8.58285C7.00305 8.63652 6.99019 8.69445 6.98915 8.7532C6.98812 8.81194 6.99892 8.87029 7.02093 8.92477C7.04293 8.97924 7.07568 9.02873 7.11723 9.07027C7.15877 9.11182 7.20826 9.14457 7.26273 9.16657C7.31721 9.18858 7.37556 9.19938 7.4343 9.19834C7.49305 9.19731 7.55098 9.18445 7.60465 9.16054C7.65831 9.13663 7.70661 9.10215 7.74667 9.05917L9.49667 7.30917Z" fill="var(--fill-0, #172726)"/>
</g>
</svg>
