<svg width="14" height="11" viewBox="0 0 14 11" fill="none" xmlns="http://www.w3.org/2000/svg">
<path d="M0.780192 5.31283C0.739936 5.19184 0.739936 5.06107 0.780192 4.94008C1.58928 2.50583 3.88586 0.75 6.59253 0.75C9.29803 0.75 11.5934 2.50408 12.4043 4.93717C12.4451 5.05792 12.4451 5.18858 12.4043 5.30992C11.5958 7.74417 9.29919 9.5 6.59253 9.5C3.88703 9.5 1.59103 7.74592 0.780192 5.31283Z" stroke="#263A33" stroke-width="1.5" stroke-linecap="round" stroke-linejoin="round"/>
<path d="M8.34253 5.125C8.34253 5.58913 8.15815 6.03425 7.82997 6.36244C7.50178 6.69063 7.05666 6.875 6.59253 6.875C6.1284 6.875 5.68328 6.69063 5.35509 6.36244C5.0269 6.03425 4.84253 5.58913 4.84253 5.125C4.84253 4.66087 5.0269 4.21575 5.35509 3.88756C5.68328 3.55937 6.1284 3.375 6.59253 3.375C7.05666 3.375 7.50178 3.55937 7.82997 3.88756C8.15815 4.21575 8.34253 4.66087 8.34253 5.125Z" fill="#263A33" stroke="#263A33" stroke-width="1.5" stroke-linecap="round" stroke-linejoin="round"/>
</svg>
