<svg preserveAspectRatio="none" width="100%" height="100%" overflow="visible" style="display: block;" viewBox="0 0 64 34" fill="none" xmlns="http://www.w3.org/2000/svg">
<g id="Group 1000022311">
<g id="Group 1000022309">
<path id="Vector" d="M10.8289 1.91504C11.4768 1.61292 12.1464 1.70498 12.6843 1.91797C13.2191 2.12971 13.7246 2.49478 14.1795 2.92188C15.0944 3.78105 15.9813 5.05942 16.6726 6.54199C17.3639 8.02451 17.7735 9.5252 17.8435 10.7783C17.872 11.288 17.8447 11.7966 17.7351 12.2637C17.9077 12.2297 18.0778 12.2064 18.242 12.1973C18.5058 12.1826 18.8153 12.1985 19.117 12.2988C19.384 12.3877 19.7213 12.5724 19.9461 12.9277L20.0349 13.0898L20.1023 13.2627C20.2299 13.6631 20.1541 14.0402 20.0506 14.3018C19.9741 14.4948 19.8657 14.6654 19.7507 14.8154C20.0761 14.8812 20.3818 14.9681 20.657 15.0781C20.986 15.2097 21.3283 15.3944 21.6062 15.6572C21.8865 15.9223 22.1756 16.3443 22.1756 16.9062C22.1754 17.4679 21.8864 17.8893 21.6062 18.1543C21.3283 18.4171 20.986 18.6018 20.657 18.7334C20.5023 18.7953 20.3378 18.8495 20.1658 18.8975C20.3987 19.0855 20.6121 19.278 20.7976 19.4756C21.1015 19.7993 21.3773 20.1757 21.5418 20.5908C21.7074 21.0091 21.7946 21.5687 21.5359 22.124C21.2769 22.6795 20.792 22.9732 20.365 23.1152C19.9412 23.2562 19.4754 23.2865 19.032 23.2617C18.8497 23.2515 18.6611 23.2289 18.4675 23.1992C18.6881 23.552 18.8758 23.9008 19.0213 24.2402C19.2317 24.7313 19.382 25.2557 19.3963 25.7666C19.4106 26.2807 19.2845 26.888 18.8152 27.3574C18.3458 27.8268 17.7384 27.9528 17.2244 27.9385C16.7135 27.9242 16.1891 27.7739 15.698 27.5635C15.2535 27.3729 14.7922 27.1115 14.3289 26.7949C14.5334 27.5273 14.6584 28.2302 14.6941 28.8691C14.7289 29.4923 14.6833 30.1143 14.5017 30.6602C14.3191 31.2092 13.9602 31.7819 13.3123 32.084C12.6645 32.386 11.9957 32.293 11.4578 32.0801C10.9228 31.8683 10.4167 31.5035 9.96169 31.0762C9.04684 30.2171 8.16079 28.9394 7.4695 27.457C6.77821 25.9746 6.36868 24.4738 6.2986 23.2207C6.27015 22.7115 6.29583 22.2031 6.40505 21.7363C6.23326 21.7701 6.06456 21.7946 5.90114 21.8037C5.6372 21.8184 5.32702 21.8026 5.02516 21.7021C4.72024 21.6006 4.32404 21.3739 4.10817 20.9111C3.89223 20.448 3.97324 19.9981 4.09157 19.6992C4.16791 19.5064 4.27567 19.3354 4.3904 19.1855C4.0647 19.1198 3.75864 19.033 3.48317 18.9229C3.15417 18.7913 2.81184 18.6066 2.53395 18.3438C2.25372 18.0787 1.96462 17.6566 1.96462 17.0947C1.96477 16.5331 2.25381 16.1117 2.53395 15.8467C2.81184 15.5839 3.15417 15.3992 3.48317 15.2676C3.63832 15.2055 3.80284 15.1496 3.97536 15.1016C3.74213 14.9133 3.52833 14.7213 3.34255 14.5234C3.03843 14.1996 2.76286 13.8226 2.59841 13.4072C2.43277 12.9888 2.34534 12.4295 2.60427 11.874L2.71169 11.6777C2.98376 11.2476 3.40151 11.0081 3.77516 10.8838C4.19896 10.7428 4.66468 10.7116 5.10817 10.7363C5.2886 10.7464 5.47533 10.7687 5.66677 10.7979C5.44735 10.4465 5.26088 10.0988 5.11598 9.76074C4.90557 9.26974 4.75524 8.74517 4.74098 8.23438C4.7267 7.72038 4.85283 7.11289 5.32204 6.64355L5.41188 6.55957C5.86738 6.15896 6.43182 6.04905 6.91384 6.0625C7.42448 6.07681 7.94837 6.22717 8.43923 6.4375C8.88535 6.6287 9.34826 6.89183 9.81325 7.20996C9.60767 6.4753 9.48285 5.76972 9.44704 5.12891C9.41223 4.50574 9.45782 3.88376 9.63942 3.33789C9.82204 2.78896 10.1812 2.2172 10.8289 1.91504Z" fill="var(--fill-0, #111212)" stroke="var(--stroke-0, #111212)" stroke-width="2.25"/>
<g id="Group 1000017860">
<path id="Vector_2" d="M11.4926 20.0368C12.2135 19.3159 14.2591 20.1925 16.0614 21.9949C17.8638 23.7973 18.7405 25.8428 18.0195 26.5638C17.2986 27.2847 15.253 26.408 13.4507 24.6057C11.6483 22.8033 10.7716 20.7578 11.4926 20.0368Z" fill="url(#paint0_linear_2994_560)"/>
<path id="Vector_3" d="M8.15499 21.025C9.26384 20.5079 11.2107 22.336 12.5033 25.1081C13.796 27.8803 13.945 30.5467 12.8361 31.0638C11.7273 31.5808 9.78047 29.7527 8.48781 26.9806C7.19514 24.2085 7.04613 21.5421 8.15499 21.025Z" fill="url(#paint1_linear_2994_560)"/>
<path id="Vector_4" d="M13.823 18.529C14.1677 17.7898 15.9453 17.8891 17.7934 18.7509C19.6415 19.6127 20.8602 20.9105 20.5155 21.6498C20.1708 22.389 18.3932 22.2897 16.5451 21.4279C14.697 20.5661 13.4783 19.2682 13.823 18.529Z" fill="url(#paint2_linear_2994_560)"/>
<path id="Vector_5" d="M15.5118 16.906C15.5118 16.2943 16.7516 15.7984 18.2809 15.7984C19.8103 15.7984 21.0501 16.2943 21.0501 16.906C21.0501 17.5178 19.8103 18.0137 18.2809 18.0137C16.7516 18.0137 15.5118 17.5178 15.5118 16.906Z" fill="url(#paint3_linear_2994_560)"/>
<path id="Vector_6" d="M15.6677 15.1281C15.8401 15.4977 16.7289 15.448 17.6529 15.0171C18.577 14.5862 19.1864 13.9373 19.014 13.5677C18.8416 13.1981 17.9528 13.2477 17.0288 13.6786C16.1047 14.1095 15.4954 14.7585 15.6677 15.1281Z" fill="url(#paint4_linear_2994_560)"/>
<path id="Vector_7" d="M12.6442 13.9661C11.9232 14.6871 9.87768 13.8104 8.07532 12.008C6.27296 10.2057 5.39629 8.16012 6.11724 7.43918C6.83818 6.71823 8.88373 7.59489 10.6861 9.39726C12.4885 11.1996 13.3651 13.2452 12.6442 13.9661Z" fill="url(#paint5_linear_2994_560)"/>
<path id="Vector_8" d="M15.9847 12.975C14.8758 13.4921 12.929 11.664 11.6364 8.89185C10.3437 6.11972 10.1947 3.4533 11.3035 2.93623C12.4124 2.41916 14.3592 4.24726 15.6519 7.01939C16.9445 9.79152 17.0936 12.4579 15.9847 12.975Z" fill="url(#paint6_linear_2994_560)"/>
<path id="Vector_9" d="M10.3167 15.471C9.97196 16.2102 8.19435 16.1109 6.34626 15.2491C4.49817 14.3873 3.27944 13.0895 3.62415 12.3502C3.96887 11.611 5.74648 11.7103 7.59457 12.5721C9.44266 13.4339 10.6614 14.7318 10.3167 15.471Z" fill="url(#paint7_linear_2994_560)"/>
<path id="Vector_10" d="M8.6279 17.0969C8.6279 17.7087 7.38811 18.2046 5.85876 18.2046C4.3294 18.2046 3.08962 17.7087 3.08962 17.0969C3.08962 16.4852 4.3294 15.9893 5.85876 15.9893C7.38811 15.9893 8.6279 16.4852 8.6279 17.0969Z" fill="url(#paint8_linear_2994_560)"/>
<path id="Vector_11" d="M8.47341 18.8749C8.30105 18.5052 7.41225 18.5549 6.4882 18.9858C5.56416 19.4167 4.95479 20.0656 5.12715 20.4352C5.2995 20.8049 6.18831 20.7552 7.11236 20.3243C8.0364 19.8934 8.64576 19.2445 8.47341 18.8749Z" fill="url(#paint9_linear_2994_560)"/>
</g>
</g>
<path id="Vector_12" d="M35.2102 17.7525C35.2102 17.9834 35.1724 18.1993 35.0966 18.3999C35.0209 18.6006 34.9168 18.7842 34.7843 18.9508C34.6518 19.1136 34.4965 19.2593 34.3186 19.3881C34.1444 19.5168 33.9551 19.6247 33.7507 19.7118C33.55 19.7989 33.3418 19.8651 33.126 19.9106C32.9102 19.9522 32.6982 19.973 32.4899 19.973H27.6797V11.7951H32.0754C32.2684 11.7951 32.471 11.8103 32.683 11.8405C32.895 11.867 33.1014 11.9106 33.302 11.9711C33.5065 12.0317 33.6996 12.1112 33.8813 12.2097C34.0668 12.3081 34.2277 12.4292 34.364 12.5731C34.5041 12.7132 34.6139 12.876 34.6934 13.0615C34.7767 13.247 34.8184 13.4591 34.8184 13.6976C34.8184 13.9247 34.7729 14.1311 34.6821 14.3166C34.5912 14.5021 34.4681 14.6687 34.3129 14.8164C34.1615 14.9603 33.9854 15.089 33.7848 15.2025C33.5879 15.3123 33.3796 15.4089 33.16 15.4922C33.4364 15.5679 33.6977 15.6682 33.9438 15.7932C34.1937 15.9181 34.4113 16.0715 34.5969 16.2532C34.7862 16.435 34.9357 16.6507 35.0455 16.9006C35.1553 17.1467 35.2102 17.4307 35.2102 17.7525ZM32.5297 13.8964C32.5297 13.4345 32.4066 13.0975 32.1605 12.8855C31.9182 12.6734 31.5718 12.5675 31.1213 12.5675H29.9343V15.2196H30.9281C31.1326 15.2196 31.3313 15.195 31.5245 15.1458C31.7175 15.0928 31.8879 15.0132 32.0356 14.9073C32.187 14.7975 32.3063 14.6592 32.3934 14.4927C32.4842 14.3261 32.5297 14.1273 32.5297 13.8964ZM32.9272 17.6105C32.9272 17.3871 32.8988 17.1789 32.842 16.9858C32.7852 16.7889 32.6982 16.6204 32.5808 16.4804C32.4634 16.3365 32.3157 16.2248 32.1378 16.1453C31.9637 16.062 31.7573 16.0203 31.5188 16.0203H29.9343V19.178H31.32C31.5509 19.178 31.7649 19.1401 31.9617 19.0644C32.1586 18.9887 32.329 18.8826 32.4729 18.7463C32.6167 18.61 32.7284 18.4453 32.808 18.2522C32.8875 18.0592 32.9272 17.8453 32.9272 17.6105ZM42.2069 13.4136L39.8217 19.1836C39.549 19.8424 39.2443 20.4936 38.9073 21.1373C38.5742 21.7847 38.2126 22.4056 37.8226 23L37.073 22.5457C37.1676 22.3753 37.2793 22.1784 37.408 21.955C37.5368 21.7316 37.6636 21.5007 37.7885 21.2622C37.9135 21.0236 38.0289 20.787 38.135 20.5523C38.241 20.3213 38.3224 20.1093 38.3792 19.9162L35.5112 13.4136H37.4307L39.3787 17.849L40.878 13.4136H42.2069ZM48.59 13.9929L47.5112 15.7818C47.4657 15.6304 47.4071 15.46 47.3351 15.2707C47.2632 15.0814 47.1742 14.9054 47.0682 14.7426C46.9622 14.576 46.8353 14.4378 46.6877 14.328C46.5401 14.2144 46.3697 14.1576 46.1766 14.1576C45.9986 14.1576 45.8434 14.203 45.7109 14.2939C45.5822 14.3848 45.4724 14.504 45.3815 14.6517C45.2906 14.7956 45.2149 14.9603 45.1544 15.1458C45.0976 15.3275 45.0521 15.513 45.0181 15.7023C44.9878 15.8878 44.9669 16.0677 44.9556 16.2418C44.9442 16.4122 44.9385 16.5599 44.9385 16.6848V19.973H43.0133V13.4136H43.7516L44.5296 14.9413C44.6356 14.6952 44.7568 14.4699 44.8931 14.2655C45.0294 14.0573 45.1865 13.8793 45.3645 13.7317C45.5424 13.5802 45.7431 13.4629 45.9665 13.3796C46.1936 13.2963 46.4492 13.2546 46.7331 13.2546C46.8808 13.2546 47.0455 13.2679 47.2272 13.2944C47.4089 13.3171 47.5869 13.3587 47.7611 13.4193C47.9354 13.4761 48.0959 13.5519 48.2439 13.6465C48.3914 13.7412 48.5067 13.8566 48.59 13.9929ZM55.8593 19.973H55.121L54.2691 18.5476C54.1858 18.7861 54.0705 19.0019 53.923 19.195C53.7792 19.3881 53.6104 19.5547 53.4173 19.6947C53.2279 19.8311 53.0181 19.937 52.7869 20.0128C52.5599 20.0885 52.3193 20.1263 52.0658 20.1263C51.5661 20.1263 51.1195 20.0374 50.7254 19.8594C50.3319 19.6815 49.9987 19.4392 49.7261 19.1325C49.4535 18.8221 49.2451 18.4586 49.1013 18.0421C48.9576 17.6257 48.8854 17.1789 48.8854 16.7019C48.8854 16.2248 48.9576 15.778 49.1013 15.3616C49.2451 14.9451 49.4535 14.5836 49.7261 14.2769C49.9987 13.9702 50.3319 13.7279 50.7254 13.5499C51.1195 13.372 51.5661 13.283 52.0658 13.283C52.4482 13.283 52.7985 13.3568 53.1163 13.5045C53.4382 13.6522 53.7127 13.8831 53.9397 14.1974V11H55.8593V19.973ZM53.9286 16.7019C53.9286 16.5504 53.9174 16.3838 53.8946 16.2021C53.8718 16.0203 53.836 15.8367 53.7867 15.6512C53.7374 15.4657 53.6732 15.2859 53.5936 15.1117C53.5141 14.9376 53.4154 14.7823 53.2982 14.646C53.1847 14.5097 53.0502 14.4018 52.8948 14.3223C52.7436 14.239 52.5692 14.1974 52.3724 14.1974C52.1565 14.1974 51.9695 14.2371 51.8104 14.3166C51.6513 14.3923 51.5149 14.4965 51.4014 14.629C51.2879 14.7577 51.193 14.9073 51.1176 15.0776C51.0455 15.248 50.9888 15.426 50.9469 15.6114C50.9055 15.797 50.8752 15.9844 50.8562 16.1737C50.8408 16.3592 50.8334 16.5353 50.8334 16.7019C50.8334 16.8685 50.8408 17.0464 50.8562 17.2357C50.8752 17.4212 50.9055 17.6067 50.9469 17.7922C50.9888 17.9778 51.0455 18.1576 51.1176 18.3318C51.193 18.5021 51.2879 18.6536 51.4014 18.7861C51.5149 18.9148 51.6513 19.019 51.8104 19.0985C51.9695 19.1742 52.1565 19.212 52.3724 19.212C52.5882 19.212 52.7776 19.1742 52.9404 19.0985C53.1033 19.0227 53.2414 18.9205 53.3549 18.7918C53.4722 18.6592 53.5671 18.5097 53.6387 18.3431C53.7146 18.1727 53.7732 17.9948 53.8151 17.8093C53.8565 17.62 53.8848 17.4307 53.9002 17.2414C53.9193 17.0521 53.9286 16.8722 53.9286 16.7019ZM63.1062 17.8774C63.1062 18.1652 63.0644 18.4207 62.9811 18.6441C62.8978 18.8675 62.7843 19.0625 62.6405 19.2291C62.4963 19.3919 62.326 19.5301 62.1292 19.6436C61.9324 19.7534 61.7203 19.8424 61.4933 19.9106C61.27 19.9787 61.035 20.0279 60.7889 20.0582C60.5428 20.0885 60.2985 20.1036 60.0562 20.1036C59.731 20.1036 59.443 20.0828 59.1932 20.0412C58.9433 19.9995 58.7047 19.9333 58.4776 19.8424C58.2506 19.7477 58.0231 19.6266 57.7961 19.4789C57.5727 19.3313 57.3229 19.1514 57.0466 18.9394L58.165 18.0251C58.2673 18.2182 58.4018 18.3942 58.5683 18.5533C58.7386 18.7085 58.9149 18.8429 59.0964 18.9565C59.2783 19.07 59.4541 19.1571 59.6249 19.2177C59.7952 19.2783 59.9333 19.3086 60.0394 19.3086C60.1264 19.3086 60.225 19.3067 60.3348 19.3029C60.4446 19.2953 60.5563 19.2839 60.6698 19.2688C60.7833 19.2499 60.895 19.2234 61.0048 19.1893C61.1146 19.1552 61.2113 19.1098 61.2946 19.053C61.3816 18.9924 61.4495 18.9186 61.4989 18.8315C61.5519 18.7406 61.5784 18.6328 61.5784 18.5078C61.5784 18.3791 61.5444 18.2674 61.4761 18.1727C61.4118 18.0743 61.3267 17.9891 61.2206 17.9172C61.1146 17.8453 60.9936 17.7847 60.8573 17.7355C60.721 17.6862 60.5828 17.6427 60.4423 17.6048C60.3065 17.567 60.1739 17.5348 60.045 17.5083C59.9161 17.478 59.8045 17.4496 59.71 17.4231C59.5356 17.3739 59.3523 17.3247 59.1592 17.2754C58.9661 17.2225 58.7749 17.1637 58.5856 17.0994C58.3962 17.0312 58.2143 16.9517 58.0403 16.8609C57.87 16.77 57.7184 16.6621 57.5858 16.5372C57.4574 16.4084 57.3532 16.2589 57.2736 16.0885C57.1978 15.9144 57.1601 15.7118 57.1601 15.4808C57.1601 15.0568 57.2434 14.7028 57.4099 14.4189C57.5802 14.1311 57.8035 13.902 58.0799 13.7317C58.3562 13.5575 58.6707 13.4345 59.0229 13.3625C59.3751 13.2906 59.7328 13.2546 60.0962 13.2546C60.346 13.2546 60.6093 13.2811 60.8857 13.3341C61.162 13.3833 61.4309 13.4591 61.6919 13.5613C61.9534 13.6597 62.1972 13.7809 62.4247 13.9247C62.6517 14.0686 62.841 14.2333 62.9922 14.4189L61.8738 15.3389C61.7906 15.1117 61.6808 14.9167 61.5444 14.7539C61.4119 14.5911 61.2662 14.4586 61.1071 14.3564C60.9517 14.2504 60.7908 14.1728 60.6242 14.1235C60.4614 14.0743 60.3102 14.0497 60.1701 14.0497C60.0338 14.0497 59.8803 14.0554 59.71 14.0667C59.5398 14.0781 59.3788 14.1103 59.2271 14.1633C59.0796 14.2163 58.9526 14.2977 58.8466 14.4075C58.7447 14.5135 58.6935 14.6612 58.6935 14.8505C58.6935 14.9868 58.7237 15.1041 58.7842 15.2025C58.8484 15.2972 58.9317 15.3805 59.034 15.4524C59.1364 15.5206 59.2518 15.5793 59.3806 15.6285C59.5132 15.6739 59.6477 15.7156 59.7835 15.7534C59.9198 15.7875 60.0524 15.8178 60.1813 15.8443C60.3102 15.8708 60.4256 15.8992 60.5279 15.9295C60.7019 15.9787 60.8857 16.0298 61.0787 16.0828C61.2755 16.132 61.4686 16.1908 61.658 16.2589C61.8473 16.3232 62.0288 16.4008 62.2032 16.4917C62.3809 16.5788 62.5363 16.6867 62.6689 16.8154C62.801 16.9441 62.9071 17.0956 62.9867 17.2698C63.0662 17.4401 63.1062 17.6427 63.1062 17.8774Z" fill="var(--fill-0, #111212)"/>
</g>
<defs>
<linearGradient id="paint0_linear_2994_560" x1="18.0195" y1="26.5638" x2="11.4926" y2="20.0368" gradientUnits="userSpaceOnUse">
<stop stop-color="#1FD83C"/>
<stop offset="1" stop-color="#5FFF5B"/>
</linearGradient>
<linearGradient id="paint1_linear_2994_560" x1="12.8361" y1="31.0638" x2="8.15499" y2="21.025" gradientUnits="userSpaceOnUse">
<stop stop-color="#1FD83C"/>
<stop offset="1" stop-color="#5FFF5B"/>
</linearGradient>
<linearGradient id="paint2_linear_2994_560" x1="20.5155" y1="21.6498" x2="13.823" y2="18.529" gradientUnits="userSpaceOnUse">
<stop stop-color="#1FD83C"/>
<stop offset="1" stop-color="#5FFF5B"/>
</linearGradient>
<linearGradient id="paint3_linear_2994_560" x1="21.0501" y1="16.906" x2="15.5118" y2="16.906" gradientUnits="userSpaceOnUse">
<stop stop-color="#1FD83C"/>
<stop offset="1" stop-color="#5FFF5B"/>
</linearGradient>
<linearGradient id="paint4_linear_2994_560" x1="19.014" y1="13.5677" x2="15.6677" y2="15.1281" gradientUnits="userSpaceOnUse">
<stop stop-color="#1FD83C"/>
<stop offset="1" stop-color="#5FFF5B"/>
</linearGradient>
<linearGradient id="paint5_linear_2994_560" x1="6.11724" y1="7.43918" x2="12.6442" y2="13.9661" gradientUnits="userSpaceOnUse">
<stop stop-color="#0C8FD9"/>
<stop offset="1" stop-color="#6BCAFF"/>
</linearGradient>
<linearGradient id="paint6_linear_2994_560" x1="11.3035" y1="2.93623" x2="15.9847" y2="12.975" gradientUnits="userSpaceOnUse">
<stop stop-color="#0C8FD9"/>
<stop offset="1" stop-color="#6BCAFF"/>
</linearGradient>
<linearGradient id="paint7_linear_2994_560" x1="3.62415" y1="12.3502" x2="10.3167" y2="15.471" gradientUnits="userSpaceOnUse">
<stop stop-color="#0C8FD9"/>
<stop offset="1" stop-color="#6BCAFF"/>
</linearGradient>
<linearGradient id="paint8_linear_2994_560" x1="3.08962" y1="17.0969" x2="8.6279" y2="17.0969" gradientUnits="userSpaceOnUse">
<stop stop-color="#0C8FD9"/>
<stop offset="1" stop-color="#6BCAFF"/>
</linearGradient>
<linearGradient id="paint9_linear_2994_560" x1="5.12715" y1="20.4352" x2="8.47341" y2="18.8749" gradientUnits="userSpaceOnUse">
<stop stop-color="#0C8FD9"/>
<stop offset="1" stop-color="#6BCAFF"/>
</linearGradient>
</defs>
</svg>