<svg width="42" height="42" viewBox="0 0 42 42" fill="none" xmlns="http://www.w3.org/2000/svg">
<path fill-rule="evenodd" clip-rule="evenodd" d="M15.0553 6.64825C15.7937 5.7964 16.7068 5.11342 17.7325 4.64569C18.7583 4.17796 19.8727 3.93643 21 3.9375C23.3748 3.9375 25.5028 4.9875 26.9448 6.64825C28.0695 6.56795 29.1983 6.73065 30.2546 7.12531C31.3108 7.51998 32.2698 8.13735 33.0663 8.9355C33.8641 9.73186 34.4813 10.6905 34.8759 11.7465C35.2706 12.8024 35.4334 13.9308 35.3535 15.0553C36.205 15.7938 36.8877 16.707 37.3551 17.7327C37.8225 18.7585 38.0638 19.8728 38.0625 21C38.0636 22.1274 37.822 23.2417 37.3543 24.2675C36.8866 25.2932 36.2036 26.2063 35.3518 26.9448C35.4317 28.0692 35.2688 29.1976 34.8742 30.2536C34.4795 31.3095 33.8623 32.2681 33.0645 33.0645C32.2681 33.8623 31.3095 34.4795 30.2536 34.8742C29.1976 35.2688 28.0692 35.4317 26.9448 35.3518C26.2063 36.2036 25.2932 36.8866 24.2675 37.3543C23.2417 37.822 22.1274 38.0636 21 38.0625C19.8727 38.0636 18.7583 37.822 17.7325 37.3543C16.7068 36.8866 15.7937 36.2036 15.0553 35.3518C13.9307 35.4323 12.8019 35.2699 11.7457 34.8755C10.6894 34.4811 9.7304 33.8641 8.93376 33.0663C8.1357 32.2697 7.51838 31.3107 7.12373 30.2545C6.72907 29.1983 6.56631 28.0695 6.64651 26.9448C5.79497 26.2062 5.11232 25.293 4.6449 24.2673C4.17747 23.2415 3.93622 22.1272 3.93751 21C3.93751 18.6253 4.98751 16.4973 6.64826 15.0553C6.5682 13.9308 6.73103 12.8023 7.12569 11.7464C7.52034 10.6905 8.13759 9.73179 8.93551 8.9355C9.7318 8.13758 10.6905 7.52034 11.7464 7.12569C12.8023 6.73103 13.9308 6.5682 15.0553 6.64825ZM27.3175 17.8255C27.4225 17.6856 27.4985 17.5261 27.541 17.3564C27.5834 17.1867 27.5916 17.0103 27.5649 16.8374C27.5382 16.6645 27.4772 16.4987 27.3855 16.3497C27.2938 16.2008 27.1733 16.0716 27.031 15.9699C26.8886 15.8682 26.7274 15.7959 26.5568 15.7574C26.3862 15.7189 26.2096 15.7149 26.0373 15.7456C25.8651 15.7763 25.7008 15.8411 25.554 15.9362C25.4072 16.0314 25.2809 16.1549 25.1825 16.2995L19.5195 24.227L16.6775 21.385C16.4287 21.1532 16.0996 21.0269 15.7596 21.0329C15.4196 21.0389 15.0951 21.1767 14.8547 21.4172C14.6142 21.6576 14.4764 21.9821 14.4704 22.3221C14.4644 22.6621 14.5907 22.9912 14.8225 23.24L18.76 27.1775C18.8947 27.3121 19.0572 27.4158 19.236 27.4814C19.4148 27.5469 19.6058 27.5728 19.7956 27.5571C19.9854 27.5415 20.1696 27.4847 20.3352 27.3907C20.5009 27.2968 20.6441 27.1679 20.755 27.013L27.3175 17.8255Z" fill="#263A33"/>
</svg>
