<svg width="644" height="251" viewBox="0 0 644 251" fill="none" xmlns="http://www.w3.org/2000/svg">
<path d="M137.083 88.2969V26.6969H141.659L165.595 74.5689L189.531 26.6969H194.195V88.2969H190.235V34.0889L167.267 79.6729H163.923L141.043 34.2649V88.2969H137.083ZM220.572 89.3529C217.228 89.3529 214.412 88.7075 212.124 87.4169C209.836 86.1262 208.105 84.4542 206.932 82.4009C205.758 80.2889 205.172 78.0302 205.172 75.6249C205.172 72.3982 205.905 69.7582 207.372 67.7049C208.838 65.6515 210.892 64.1262 213.532 63.1289C216.23 62.0729 219.34 61.5449 222.86 61.5449H236.236C236.236 58.3769 235.766 55.6782 234.828 53.4489C233.948 51.2195 232.569 49.4889 230.692 48.2569C228.814 47.0249 226.35 46.4089 223.3 46.4089C219.721 46.4089 216.758 47.2595 214.412 48.9609C212.124 50.6622 210.657 53.2435 210.012 56.7049H205.964C206.374 53.5955 207.401 51.0435 209.044 49.0489C210.745 46.9955 212.828 45.4702 215.292 44.4729C217.756 43.4169 220.425 42.8889 223.3 42.8889C227.348 42.8889 230.604 43.7102 233.068 45.3529C235.532 46.9369 237.321 49.1075 238.436 51.8649C239.609 54.5635 240.196 57.6435 240.196 61.1049V88.2969H236.676L236.236 79.4089C235.766 80.3475 235.121 81.4035 234.3 82.5769C233.478 83.7502 232.452 84.8355 231.22 85.8329C229.988 86.8302 228.492 87.6515 226.732 88.2969C225.03 89.0009 222.977 89.3529 220.572 89.3529ZM221.012 85.7449C223.534 85.7449 225.734 85.2755 227.612 84.3369C229.489 83.3395 231.073 82.0489 232.364 80.4649C233.654 78.8222 234.622 77.0622 235.268 75.1849C235.913 73.3075 236.236 71.4595 236.236 69.6409V64.9769H223.124C219.662 64.9769 216.934 65.4462 214.94 66.3849C212.945 67.2649 211.508 68.4969 210.628 70.0809C209.806 71.6649 209.396 73.4835 209.396 75.5369C209.396 77.4142 209.836 79.1449 210.716 80.7289C211.596 82.2542 212.916 83.4862 214.676 84.4249C216.436 85.3049 218.548 85.7449 221.012 85.7449ZM277.671 88.2969L254.879 64.0089L275.911 43.9449H281.103L258.663 65.2409V62.7769L283.039 88.2969H277.671ZM251.711 88.2969V24.9369H255.671V88.2969H251.711ZM306.365 89.3529C302.199 89.3529 298.591 88.3849 295.541 86.4489C292.549 84.5129 290.231 81.7849 288.589 78.2649C286.946 74.7449 286.125 70.6089 286.125 65.8569C286.125 61.0462 286.975 56.9395 288.677 53.5369C290.437 50.1342 292.842 47.5235 295.893 45.7049C299.002 43.8275 302.551 42.8889 306.541 42.8889C310.823 42.8889 314.402 43.8569 317.277 45.7929C320.151 47.6702 322.322 50.1635 323.789 53.2729C325.255 56.3822 325.989 59.7849 325.989 63.4809C325.989 64.0675 325.989 64.6249 325.989 65.1529C325.989 65.6809 325.959 66.2969 325.901 67.0009H288.941V63.5689H322.117C322.058 57.8782 320.562 53.5955 317.629 50.7209C314.695 47.8462 310.941 46.4089 306.365 46.4089C303.549 46.4089 300.909 47.0542 298.445 48.3449C295.981 49.6355 293.957 51.6302 292.373 54.3289C290.847 57.0275 290.085 60.4595 290.085 64.6249V66.2089C290.085 70.6675 290.847 74.3635 292.373 77.2969C293.898 80.1715 295.893 82.3129 298.357 83.7209C300.821 85.1289 303.49 85.8329 306.365 85.8329C310.061 85.8329 313.111 84.9822 315.517 83.2809C317.922 81.5209 319.682 79.0569 320.797 75.8889H324.757C323.994 78.4702 322.791 80.7875 321.149 82.8409C319.565 84.8942 317.541 86.5075 315.077 87.6809C312.613 88.7955 309.709 89.3529 306.365 89.3529ZM373.504 88.2969C371.157 88.2969 369.162 87.9449 367.52 87.2409C365.936 86.5369 364.704 85.3342 363.824 83.6329C363.002 81.8729 362.592 79.5262 362.592 76.5929V47.3769H354.848V43.9449H362.592L363.208 34.2649H366.552V43.9449H380.456V47.3769H366.552V76.5049C366.552 79.6142 367.168 81.7849 368.4 83.0169C369.632 84.2489 371.714 84.8649 374.648 84.8649H379.576V88.2969H373.504ZM389.899 88.2969V24.9369H393.859V53.1849C395.325 49.8995 397.467 47.3769 400.283 45.6169C403.157 43.7982 406.208 42.8889 409.435 42.8889C412.661 42.8889 415.507 43.5342 417.971 44.8249C420.435 46.1155 422.341 48.1102 423.691 50.8089C425.099 53.5075 425.803 56.9689 425.803 61.1929V88.2969H421.931V61.8089C421.931 56.5875 420.816 52.7449 418.587 50.2809C416.357 47.7582 413.16 46.4969 408.995 46.4969C406.12 46.4969 403.539 47.2302 401.251 48.6969C398.963 50.1049 397.144 52.1582 395.795 54.8569C394.504 57.4969 393.859 60.7529 393.859 64.6249V88.2969H389.899ZM455.552 89.3529C451.387 89.3529 447.779 88.3849 444.728 86.4489C441.736 84.5129 439.419 81.7849 437.776 78.2649C436.133 74.7449 435.312 70.6089 435.312 65.8569C435.312 61.0462 436.163 56.9395 437.864 53.5369C439.624 50.1342 442.029 47.5235 445.08 45.7049C448.189 43.8275 451.739 42.8889 455.728 42.8889C460.011 42.8889 463.589 43.8569 466.464 45.7929C469.339 47.6702 471.509 50.1635 472.976 53.2729C474.443 56.3822 475.176 59.7849 475.176 63.4809C475.176 64.0675 475.176 64.6249 475.176 65.1529C475.176 65.6809 475.147 66.2969 475.088 67.0009H438.128V63.5689H471.304C471.245 57.8782 469.749 53.5955 466.816 50.7209C463.883 47.8462 460.128 46.4089 455.552 46.4089C452.736 46.4089 450.096 47.0542 447.632 48.3449C445.168 49.6355 443.144 51.6302 441.56 54.3289C440.035 57.0275 439.272 60.4595 439.272 64.6249V66.2089C439.272 70.6675 440.035 74.3635 441.56 77.2969C443.085 80.1715 445.08 82.3129 447.544 83.7209C450.008 85.1289 452.677 85.8329 455.552 85.8329C459.248 85.8329 462.299 84.9822 464.704 83.2809C467.109 81.5209 468.869 79.0569 469.984 75.8889H473.944C473.181 78.4702 471.979 80.7875 470.336 82.8409C468.752 84.8942 466.728 86.5075 464.264 87.6809C461.8 88.7955 458.896 89.3529 455.552 89.3529ZM510.107 88.2969V47.3769H502.891V43.9449H510.107V34.8809C510.107 32.7102 510.459 30.8915 511.163 29.4249C511.867 27.9582 512.953 26.8435 514.419 26.0809C515.945 25.3182 517.881 24.9369 520.227 24.9369H524.363V28.3689H520.579C518.291 28.3689 516.619 28.8675 515.563 29.8649C514.566 30.8622 514.067 32.5929 514.067 35.0569V43.9449H536.683V88.2969H532.723V47.3769H514.067V88.2969H510.107ZM534.747 32.5049C533.985 32.5049 533.281 32.2115 532.635 31.6249C532.049 30.9795 531.755 30.2169 531.755 29.3369C531.755 28.4569 532.049 27.7529 532.635 27.2249C533.281 26.6382 534.014 26.3449 534.835 26.3449C535.657 26.3449 536.361 26.6382 536.947 27.2249C537.534 27.7529 537.827 28.4569 537.827 29.3369C537.827 30.2169 537.534 30.9795 536.947 31.6249C536.361 32.2115 535.627 32.5049 534.747 32.5049ZM549.828 88.2969V43.9449H553.348L553.788 52.9209C554.786 50.5742 556.076 48.6675 557.66 47.2009C559.303 45.7342 561.239 44.6489 563.468 43.9449C565.698 43.2409 568.22 42.8889 571.036 42.8889V46.9369H569.452C567.692 46.9369 565.874 47.1715 563.996 47.6409C562.178 48.1102 560.476 48.9609 558.892 50.1929C557.367 51.3662 556.135 53.0675 555.196 55.2969C554.258 57.5262 553.788 60.3715 553.788 63.8329V88.2969H549.828ZM594.447 89.3529C591.22 89.3529 588.316 88.8249 585.735 87.7689C583.154 86.6542 581.071 85.0115 579.487 82.8409C577.962 80.6702 576.994 77.9715 576.583 74.7449H580.807C581.042 77.0915 581.775 79.0862 583.007 80.7289C584.298 82.3715 585.94 83.6329 587.935 84.5129C589.93 85.3342 592.13 85.7449 594.535 85.7449C596.94 85.7449 598.964 85.3635 600.607 84.6009C602.308 83.8382 603.599 82.7822 604.479 81.4329C605.418 80.0249 605.887 78.4702 605.887 76.7689C605.887 74.5982 605.418 72.9262 604.479 71.7529C603.599 70.5209 602.25 69.5822 600.431 68.9369C598.612 68.2915 596.324 67.7049 593.567 67.1769C591.338 66.7662 589.314 66.2382 587.495 65.5929C585.735 64.9475 584.21 64.1555 582.919 63.2169C581.628 62.2782 580.631 61.1342 579.927 59.7849C579.282 58.3769 578.959 56.7929 578.959 55.0329C578.959 52.6275 579.546 50.5155 580.719 48.6969C581.951 46.8782 583.652 45.4702 585.823 44.4729C587.994 43.4169 590.575 42.8889 593.567 42.8889C597.791 42.8889 601.282 44.0035 604.039 46.2329C606.855 48.4622 608.468 51.7475 608.879 56.0889H604.831C604.655 53.2142 603.57 50.8969 601.575 49.1369C599.639 47.3769 596.94 46.4969 593.479 46.4969C590.135 46.4969 587.554 47.2595 585.735 48.7849C583.975 50.2515 583.095 52.2169 583.095 54.6809C583.095 56.0889 583.447 57.3502 584.151 58.4649C584.914 59.5795 586.116 60.5769 587.759 61.4569C589.402 62.2782 591.602 62.9822 594.359 63.5689C597.234 64.0969 599.844 64.7715 602.191 65.5929C604.596 66.4142 606.503 67.6462 607.911 69.2889C609.319 70.9315 610.023 73.2782 610.023 76.3289C610.023 78.8515 609.378 81.1102 608.087 83.1049C606.855 85.0409 605.066 86.5662 602.719 87.6809C600.431 88.7955 597.674 89.3529 594.447 89.3529ZM633.809 88.2969C631.462 88.2969 629.467 87.9449 627.825 87.2409C626.241 86.5369 625.009 85.3342 624.129 83.6329C623.307 81.8729 622.897 79.5262 622.897 76.5929V47.3769H615.153V43.9449H622.897L623.513 34.2649H626.857V43.9449H640.761V47.3769H626.857V76.5049C626.857 79.6142 627.473 81.7849 628.705 83.0169C629.937 84.2489 632.019 84.8649 634.953 84.8649H639.881V88.2969H633.809Z" fill="url(#paint0_linear_4602_516)"/>
<path d="M26.9186 224.353C22.1666 224.353 18.1772 223.502 14.9506 221.801C11.7826 220.1 9.37724 217.782 7.73457 214.849C6.15057 211.857 5.38791 208.513 5.44657 204.817H9.58257C9.58257 207.692 10.1692 210.361 11.3426 212.825C12.5746 215.23 14.4519 217.166 16.9746 218.633C19.5559 220.1 22.8412 220.833 26.8306 220.833C30.4679 220.833 33.4306 220.246 35.7186 219.073C38.0652 217.9 39.8252 216.316 40.9986 214.321C42.1719 212.326 42.7586 210.097 42.7586 207.633C42.7586 204.641 42.0839 202.265 40.7346 200.505C39.4439 198.686 37.7132 197.22 35.5426 196.105C33.4306 194.99 31.0546 194.052 28.4146 193.289C25.8332 192.468 23.2812 191.588 20.7586 190.649C16.6519 189.182 13.5132 187.334 11.3426 185.105C9.17191 182.817 8.08657 179.796 8.08657 176.041C8.08657 173.166 8.76124 170.585 10.1106 168.297C11.5186 165.95 13.5719 164.102 16.2706 162.753C18.9692 161.345 22.2546 160.641 26.1266 160.641C29.7052 160.641 32.8732 161.286 35.6306 162.577C38.3879 163.868 40.5586 165.745 42.1426 168.209C43.7266 170.614 44.5186 173.606 44.5186 177.185H40.2946C40.2946 174.428 39.7079 172.081 38.5346 170.145C37.4199 168.209 35.7772 166.742 33.6066 165.745C31.4946 164.689 28.9719 164.161 26.0386 164.161C22.9292 164.161 20.3479 164.689 18.2946 165.745C16.2412 166.742 14.7159 168.121 13.7186 169.881C12.7212 171.582 12.2226 173.548 12.2226 175.777C12.2226 178.3 12.8386 180.324 14.0706 181.849C15.3026 183.374 16.9452 184.636 18.9986 185.633C21.1106 186.572 23.4572 187.452 26.0386 188.273C28.6199 189.094 31.2599 190.033 33.9586 191.089C36.4226 192.086 38.6226 193.26 40.5586 194.609C42.5532 195.958 44.1079 197.66 45.2226 199.713C46.3959 201.766 46.9826 204.348 46.9826 207.457C46.9826 210.508 46.2492 213.324 44.7826 215.905C43.3159 218.428 41.0866 220.481 38.0946 222.065C35.1612 223.59 31.4359 224.353 26.9186 224.353ZM72.6366 224.353C69.4686 224.353 66.6233 223.737 64.1006 222.505C61.6366 221.214 59.7006 219.249 58.2926 216.609C56.8846 213.91 56.1806 210.42 56.1806 206.137V178.945H60.1406V205.609C60.1406 210.772 61.2553 214.585 63.4846 217.049C65.7726 219.513 69.058 220.745 73.3406 220.745C76.2153 220.745 78.738 220.07 80.9086 218.721C83.138 217.372 84.8686 215.377 86.1006 212.737C87.3913 210.038 88.0366 206.753 88.0366 202.881V178.945H91.9966V223.297H88.5646L88.0366 214.321C86.57 217.724 84.458 220.246 81.7006 221.889C78.9433 223.532 75.922 224.353 72.6366 224.353ZM119.9 224.353C116.674 224.353 113.77 223.825 111.188 222.769C108.607 221.654 106.524 220.012 104.94 217.841C103.415 215.67 102.447 212.972 102.036 209.745H106.26C106.495 212.092 107.228 214.086 108.46 215.729C109.751 217.372 111.394 218.633 113.388 219.513C115.383 220.334 117.583 220.745 119.988 220.745C122.394 220.745 124.418 220.364 126.06 219.601C127.762 218.838 129.052 217.782 129.932 216.433C130.871 215.025 131.34 213.47 131.34 211.769C131.34 209.598 130.871 207.926 129.932 206.753C129.052 205.521 127.703 204.582 125.884 203.937C124.066 203.292 121.778 202.705 119.02 202.177C116.791 201.766 114.767 201.238 112.948 200.593C111.188 199.948 109.663 199.156 108.372 198.217C107.082 197.278 106.084 196.134 105.38 194.785C104.735 193.377 104.412 191.793 104.412 190.033C104.412 187.628 104.999 185.516 106.172 183.697C107.404 181.878 109.106 180.47 111.276 179.473C113.447 178.417 116.028 177.889 119.02 177.889C123.244 177.889 126.735 179.004 129.492 181.233C132.308 183.462 133.922 186.748 134.332 191.089H130.284C130.108 188.214 129.023 185.897 127.028 184.137C125.092 182.377 122.394 181.497 118.932 181.497C115.588 181.497 113.007 182.26 111.188 183.785C109.428 185.252 108.548 187.217 108.548 189.681C108.548 191.089 108.9 192.35 109.604 193.465C110.367 194.58 111.57 195.577 113.212 196.457C114.855 197.278 117.055 197.982 119.812 198.569C122.687 199.097 125.298 199.772 127.644 200.593C130.05 201.414 131.956 202.646 133.364 204.289C134.772 205.932 135.476 208.278 135.476 211.329C135.476 213.852 134.831 216.11 133.54 218.105C132.308 220.041 130.519 221.566 128.172 222.681C125.884 223.796 123.127 224.353 119.9 224.353ZM159.262 223.297C156.915 223.297 154.92 222.945 153.278 222.241C151.694 221.537 150.462 220.334 149.582 218.633C148.76 216.873 148.35 214.526 148.35 211.593V182.377H140.606V178.945H148.35L148.966 169.265H152.31V178.945H166.214V182.377H152.31V211.505C152.31 214.614 152.926 216.785 154.158 218.017C155.39 219.249 157.472 219.865 160.406 219.865H165.334V223.297H159.262ZM189.032 224.353C185.688 224.353 182.872 223.708 180.584 222.417C178.296 221.126 176.566 219.454 175.392 217.401C174.219 215.289 173.632 213.03 173.632 210.625C173.632 207.398 174.366 204.758 175.832 202.705C177.299 200.652 179.352 199.126 181.992 198.129C184.691 197.073 187.8 196.545 191.32 196.545H204.696C204.696 193.377 204.227 190.678 203.288 188.449C202.408 186.22 201.03 184.489 199.152 183.257C197.275 182.025 194.811 181.409 191.76 181.409C188.182 181.409 185.219 182.26 182.872 183.961C180.584 185.662 179.118 188.244 178.472 191.705H174.424C174.835 188.596 175.862 186.044 177.504 184.049C179.206 181.996 181.288 180.47 183.752 179.473C186.216 178.417 188.886 177.889 191.76 177.889C195.808 177.889 199.064 178.71 201.528 180.353C203.992 181.937 205.782 184.108 206.896 186.865C208.07 189.564 208.656 192.644 208.656 196.105V223.297H205.136L204.696 214.409C204.227 215.348 203.582 216.404 202.76 217.577C201.939 218.75 200.912 219.836 199.68 220.833C198.448 221.83 196.952 222.652 195.192 223.297C193.491 224.001 191.438 224.353 189.032 224.353ZM189.472 220.745C191.995 220.745 194.195 220.276 196.072 219.337C197.95 218.34 199.534 217.049 200.824 215.465C202.115 213.822 203.083 212.062 203.728 210.185C204.374 208.308 204.696 206.46 204.696 204.641V199.977H191.584C188.123 199.977 185.395 200.446 183.4 201.385C181.406 202.265 179.968 203.497 179.088 205.081C178.267 206.665 177.856 208.484 177.856 210.537C177.856 212.414 178.296 214.145 179.176 215.729C180.056 217.254 181.376 218.486 183.136 219.425C184.896 220.305 187.008 220.745 189.472 220.745ZM220.7 223.297V178.945H224.66V223.297H220.7ZM222.724 167.241C221.903 167.241 221.169 166.948 220.524 166.361C219.937 165.716 219.644 164.953 219.644 164.073C219.644 163.193 219.937 162.489 220.524 161.961C221.169 161.374 221.903 161.081 222.724 161.081C223.545 161.081 224.249 161.374 224.836 161.961C225.481 162.489 225.804 163.193 225.804 164.073C225.804 164.953 225.481 165.716 224.836 166.361C224.249 166.948 223.545 167.241 222.724 167.241ZM237.703 223.297V178.945H241.223L241.575 187.921C243.101 184.577 245.213 182.084 247.911 180.441C250.669 178.74 253.719 177.889 257.063 177.889C260.29 177.889 263.135 178.534 265.599 179.825C268.063 181.116 269.999 183.11 271.407 185.809C272.815 188.449 273.519 191.881 273.519 196.105V223.297H269.559V196.721C269.559 191.5 268.445 187.657 266.215 185.193C263.986 182.729 260.759 181.497 256.535 181.497C253.719 181.497 251.167 182.201 248.879 183.609C246.65 184.958 244.89 186.953 243.599 189.593C242.309 192.233 241.663 195.489 241.663 199.361V223.297H237.703ZM298.431 224.353C295.087 224.353 292.271 223.708 289.983 222.417C287.695 221.126 285.964 219.454 284.791 217.401C283.618 215.289 283.031 213.03 283.031 210.625C283.031 207.398 283.764 204.758 285.231 202.705C286.698 200.652 288.751 199.126 291.391 198.129C294.09 197.073 297.199 196.545 300.719 196.545H314.095C314.095 193.377 313.626 190.678 312.687 188.449C311.807 186.22 310.428 184.489 308.551 183.257C306.674 182.025 304.21 181.409 301.159 181.409C297.58 181.409 294.618 182.26 292.271 183.961C289.983 185.662 288.516 188.244 287.871 191.705H283.823C284.234 188.596 285.26 186.044 286.903 184.049C288.604 181.996 290.687 180.47 293.151 179.473C295.615 178.417 298.284 177.889 301.159 177.889C305.207 177.889 308.463 178.71 310.927 180.353C313.391 181.937 315.18 184.108 316.295 186.865C317.468 189.564 318.055 192.644 318.055 196.105V223.297H314.535L314.095 214.409C313.626 215.348 312.98 216.404 312.159 217.577C311.338 218.75 310.311 219.836 309.079 220.833C307.847 221.83 306.351 222.652 304.591 223.297C302.89 224.001 300.836 224.353 298.431 224.353ZM298.871 220.745C301.394 220.745 303.594 220.276 305.471 219.337C307.348 218.34 308.932 217.049 310.223 215.465C311.514 213.822 312.482 212.062 313.127 210.185C313.772 208.308 314.095 206.46 314.095 204.641V199.977H300.983C297.522 199.977 294.794 200.446 292.799 201.385C290.804 202.265 289.367 203.497 288.487 205.081C287.666 206.665 287.255 208.484 287.255 210.537C287.255 212.414 287.695 214.145 288.575 215.729C289.455 217.254 290.775 218.486 292.535 219.425C294.295 220.305 296.407 220.745 298.871 220.745ZM351.307 224.353C348.549 224.353 345.997 223.854 343.651 222.857C341.304 221.801 339.28 220.393 337.579 218.633C335.877 216.814 334.557 214.761 333.619 212.473L333.091 223.297H329.571V160.201H333.531V190.209C334.88 186.572 337.08 183.609 340.131 181.321C343.181 179.033 346.907 177.889 351.307 177.889C355.648 177.889 359.373 178.916 362.483 180.969C365.651 182.964 368.085 185.721 369.787 189.241C371.488 192.702 372.339 196.692 372.339 201.209C372.339 205.668 371.488 209.657 369.787 213.177C368.085 216.638 365.651 219.366 362.483 221.361C359.373 223.356 355.648 224.353 351.307 224.353ZM351.131 220.745C354.475 220.745 357.408 219.953 359.931 218.369C362.512 216.726 364.536 214.438 366.003 211.505C367.469 208.572 368.203 205.11 368.203 201.121C368.203 197.132 367.469 193.67 366.003 190.737C364.536 187.745 362.512 185.457 359.931 183.873C357.408 182.289 354.475 181.497 351.131 181.497C347.787 181.497 344.824 182.318 342.243 183.961C339.661 185.604 337.637 187.921 336.171 190.913C334.763 193.846 334.059 197.249 334.059 201.121C334.059 204.993 334.763 208.396 336.171 211.329C337.637 214.262 339.661 216.58 342.243 218.281C344.824 219.924 347.787 220.745 351.131 220.745ZM382.852 223.297V159.937H386.812V223.297H382.852ZM417.396 224.353C413.231 224.353 409.623 223.385 406.572 221.449C403.58 219.513 401.263 216.785 399.62 213.265C397.977 209.745 397.156 205.609 397.156 200.857C397.156 196.046 398.007 191.94 399.708 188.537C401.468 185.134 403.873 182.524 406.924 180.705C410.033 178.828 413.583 177.889 417.572 177.889C421.855 177.889 425.433 178.857 428.308 180.793C431.183 182.67 433.353 185.164 434.82 188.273C436.287 191.382 437.02 194.785 437.02 198.481C437.02 199.068 437.02 199.625 437.02 200.153C437.02 200.681 436.991 201.297 436.932 202.001H399.972V198.569H433.148C433.089 192.878 431.593 188.596 428.66 185.721C425.727 182.846 421.972 181.409 417.396 181.409C414.58 181.409 411.94 182.054 409.476 183.345C407.012 184.636 404.988 186.63 403.404 189.329C401.879 192.028 401.116 195.46 401.116 199.625V201.209C401.116 205.668 401.879 209.364 403.404 212.297C404.929 215.172 406.924 217.313 409.388 218.721C411.852 220.129 414.521 220.833 417.396 220.833C421.092 220.833 424.143 219.982 426.548 218.281C428.953 216.521 430.713 214.057 431.828 210.889H435.788C435.025 213.47 433.823 215.788 432.18 217.841C430.596 219.894 428.572 221.508 426.108 222.681C423.644 223.796 420.74 224.353 417.396 224.353ZM488.231 224.353C483.479 224.353 479.49 223.502 476.263 221.801C473.095 220.1 470.69 217.782 469.047 214.849C467.463 211.857 466.7 208.513 466.759 204.817H470.895C470.895 207.692 471.482 210.361 472.655 212.825C473.887 215.23 475.764 217.166 478.287 218.633C480.868 220.1 484.154 220.833 488.143 220.833C491.78 220.833 494.743 220.246 497.031 219.073C499.378 217.9 501.138 216.316 502.311 214.321C503.484 212.326 504.071 210.097 504.071 207.633C504.071 204.641 503.396 202.265 502.047 200.505C500.756 198.686 499.026 197.22 496.855 196.105C494.743 194.99 492.367 194.052 489.727 193.289C487.146 192.468 484.594 191.588 482.071 190.649C477.964 189.182 474.826 187.334 472.655 185.105C470.484 182.817 469.399 179.796 469.399 176.041C469.399 173.166 470.074 170.585 471.423 168.297C472.831 165.95 474.884 164.102 477.583 162.753C480.282 161.345 483.567 160.641 487.439 160.641C491.018 160.641 494.186 161.286 496.943 162.577C499.7 163.868 501.871 165.745 503.455 168.209C505.039 170.614 505.831 173.606 505.831 177.185H501.607C501.607 174.428 501.02 172.081 499.847 170.145C498.732 168.209 497.09 166.742 494.919 165.745C492.807 164.689 490.284 164.161 487.351 164.161C484.242 164.161 481.66 164.689 479.607 165.745C477.554 166.742 476.028 168.121 475.031 169.881C474.034 171.582 473.535 173.548 473.535 175.777C473.535 178.3 474.151 180.324 475.383 181.849C476.615 183.374 478.258 184.636 480.311 185.633C482.423 186.572 484.77 187.452 487.351 188.273C489.932 189.094 492.572 190.033 495.271 191.089C497.735 192.086 499.935 193.26 501.871 194.609C503.866 195.958 505.42 197.66 506.535 199.713C507.708 201.766 508.295 204.348 508.295 207.457C508.295 210.508 507.562 213.324 506.095 215.905C504.628 218.428 502.399 220.481 499.407 222.065C496.474 223.59 492.748 224.353 488.231 224.353ZM533.949 223.297C531.602 223.297 529.608 222.945 527.965 222.241C526.381 221.537 525.149 220.334 524.269 218.633C523.448 216.873 523.037 214.526 523.037 211.593V182.377H515.293V178.945H523.037L523.653 169.265H526.997V178.945H540.901V182.377H526.997V211.505C526.997 214.614 527.613 216.785 528.845 218.017C530.077 219.249 532.16 219.865 535.093 219.865H540.021V223.297H533.949ZM567.357 224.353C563.191 224.353 559.583 223.385 556.533 221.449C553.541 219.513 551.223 216.785 549.581 213.265C547.938 209.745 547.117 205.609 547.117 200.857C547.117 196.046 547.967 191.94 549.669 188.537C551.429 185.134 553.834 182.524 556.885 180.705C559.994 178.828 563.543 177.889 567.533 177.889C571.815 177.889 575.394 178.857 578.269 180.793C581.143 182.67 583.314 185.164 584.781 188.273C586.247 191.382 586.981 194.785 586.981 198.481C586.981 199.068 586.981 199.625 586.981 200.153C586.981 200.681 586.951 201.297 586.893 202.001H549.933V198.569H583.109C583.05 192.878 581.554 188.596 578.621 185.721C575.687 182.846 571.933 181.409 567.357 181.409C564.541 181.409 561.901 182.054 559.437 183.345C556.973 184.636 554.949 186.63 553.365 189.329C551.839 192.028 551.077 195.46 551.077 199.625V201.209C551.077 205.668 551.839 209.364 553.365 212.297C554.89 215.172 556.885 217.313 559.349 218.721C561.813 220.129 564.482 220.833 567.357 220.833C571.053 220.833 574.103 219.982 576.509 218.281C578.914 216.521 580.674 214.057 581.789 210.889H585.749C584.986 213.47 583.783 215.788 582.141 217.841C580.557 219.894 578.533 221.508 576.069 222.681C573.605 223.796 570.701 224.353 567.357 224.353ZM596.922 242.657V178.945H600.442L600.882 190.033C601.762 187.804 603.023 185.78 604.666 183.961C606.309 182.142 608.303 180.676 610.65 179.561C613.055 178.446 615.754 177.889 618.746 177.889C623.029 177.889 626.725 178.916 629.834 180.969C633.002 182.964 635.437 185.721 637.138 189.241C638.839 192.702 639.69 196.692 639.69 201.209C639.69 205.668 638.839 209.657 637.138 213.177C635.437 216.638 633.002 219.366 629.834 221.361C626.725 223.356 622.999 224.353 618.658 224.353C614.434 224.353 610.767 223.268 607.658 221.097C604.549 218.926 602.29 215.905 600.882 212.033V242.657H596.922ZM618.482 220.745C621.826 220.745 624.759 219.953 627.282 218.369C629.863 216.785 631.887 214.526 633.354 211.593C634.821 208.66 635.554 205.169 635.554 201.121C635.554 197.132 634.821 193.67 633.354 190.737C631.887 187.804 629.863 185.545 627.282 183.961C624.759 182.318 621.826 181.497 618.482 181.497C615.138 181.497 612.175 182.348 609.594 184.049C607.013 185.692 604.989 188.009 603.522 191.001C602.114 193.934 601.41 197.308 601.41 201.121C601.41 204.993 602.114 208.425 603.522 211.417C604.989 214.35 607.013 216.638 609.594 218.281C612.175 219.924 615.138 220.745 618.482 220.745Z" fill="url(#paint1_linear_4602_516)"/>
<defs>
<linearGradient id="paint0_linear_4602_516" x1="244.207" y1="4.603" x2="629.539" y2="150.394" gradientUnits="userSpaceOnUse">
<stop stop-color="#2DB9FF"/>
<stop offset="1" stop-color="#BE45FF"/>
</linearGradient>
<linearGradient id="paint1_linear_4602_516" x1="143.881" y1="139.603" x2="594.072" y2="352.683" gradientUnits="userSpaceOnUse">
<stop stop-color="#2DB9FF"/>
<stop offset="1" stop-color="#BE45FF"/>
</linearGradient>
</defs>
</svg>
